<?xml version="1.0" encoding="utf-8"?>
<!-- Generator: Adobe Illustrator 16.0.0, SVG Export Plug-In . SVG Version: 6.00 Build 0)  -->
<!DOCTYPE svg PUBLIC "-//W3C//DTD SVG 1.1//EN" "http://www.w3.org/Graphics/SVG/1.1/DTD/svg11.dtd">
<svg version="1.1" id="圖層_1" xmlns="http://www.w3.org/2000/svg" xmlns:xlink="http://www.w3.org/1999/xlink" x="0px" y="0px"
	 width="1920px" height="540px" viewBox="0 0 1920 540" enable-background="new 0 0 1920 540" xml:space="preserve">
<path opacity="0.3" d="M774.621,311.878c0,21.822-17.689,39.512-39.509,39.512c-21.819,0-39.508-17.689-39.508-39.512
	c0-21.818,17.689-39.508,39.508-39.508C756.932,272.37,774.621,290.06,774.621,311.878z"/>
<circle opacity="0.3" cx="940.489" cy="184.16" r="23.119"/>
<circle opacity="0.3" cx="837.918" cy="331.418" r="49.024"/>
<circle opacity="0.3" cx="717.824" cy="294.305" r="34.915"/>
<circle opacity="0.3" cx="642.751" cy="309.171" r="38.835"/>
<circle opacity="0.3" cx="1018.108" cy="156.448" r="28.332"/>
<circle opacity="0.3" fill="#FFFFFF" cx="1081.235" cy="299.231" r="43.194"/>
<circle opacity="0.3" fill="#FFFFFF" cx="1034.886" cy="249.84" r="26.113"/>
<circle opacity="0.3" cx="833.659" cy="312.32" r="34.611"/>
<circle opacity="0.3" cx="650.262" cy="328.512" r="39.51"/>
<circle opacity="0.3" fill="#FFFFFF" cx="1197.785" cy="188.251" r="23.119"/>
<circle opacity="0.3" fill="#FFFFFF" cx="988.026" cy="356.302" r="49.024"/>
<circle opacity="0.3" fill="#FFFFFF" cx="967.058" cy="288.865" r="34.915"/>
<circle opacity="0.3" fill="#FFFFFF" cx="798.966" cy="324.941" r="38.835"/>
<circle opacity="0.3" cx="872.714" cy="306.437" r="28.332"/>
<circle opacity="0.3" fill="#FFFFFF" cx="1208.292" cy="302.43" r="43.194"/>
<circle opacity="0.3" cx="867.538" cy="217.189" r="26.115"/>
<circle opacity="0.3" fill="#FFFFFF" cx="1105.953" cy="315.691" r="34.61"/>
<circle opacity="0.3" cx="1063.359" cy="94.691" r="39.509"/>
<circle opacity="0.3" cx="832.619" cy="113.492" r="23.119"/>
<circle opacity="0.3" cx="1046.837" cy="317.08" r="49.024"/>
<circle opacity="0.3" cx="640.902" cy="299.76" r="34.916"/>
<circle opacity="0.3" cx="887.647" cy="276.437" r="38.834"/>
<circle opacity="0.3" cx="979.56" cy="134.633" r="28.331"/>
<circle opacity="0.3" cx="1288.236" cy="435.752" r="43.193"/>
<circle opacity="0.3" fill="#FFFFFF" cx="1032.746" cy="320.517" r="26.114"/>
<circle opacity="0.3" cx="939.234" cy="328.436" r="34.612"/>
<circle opacity="0.3" cx="674.005" cy="281.224" r="39.509"/>
<circle opacity="0.3" fill="#FFFFFF" cx="1184.88" cy="291.045" r="23.119"/>
<circle opacity="0.3" cx="906.812" cy="309.175" r="49.024"/>
<circle opacity="0.3" fill="#FFFFFF" cx="1200.813" cy="423.495" r="34.916"/>
<circle opacity="0.3" fill="#FFFFFF" cx="1033.633" cy="308.275" r="38.835"/>
<circle opacity="0.3" cx="765.382" cy="282.573" r="28.331"/>
<circle opacity="0.3" fill="#FFFFFF" cx="1350.708" cy="407.114" r="43.194"/>
<circle opacity="0.3" fill="#FFFFFF" cx="1077.067" cy="204.03" r="26.114"/>
<circle opacity="0.3" fill="#FFFFFF" cx="1016.742" cy="392.725" r="34.612"/>
</svg>
