<?xml version="1.0" encoding="utf-8"?>
<!-- Generator: Adobe Illustrator 16.0.0, SVG Export Plug-In . SVG Version: 6.00 Build 0)  -->
<!DOCTYPE svg PUBLIC "-//W3C//DTD SVG 1.1//EN" "http://www.w3.org/Graphics/SVG/1.1/DTD/svg11.dtd">
<svg version="1.1" id="圖層_1" xmlns="http://www.w3.org/2000/svg" xmlns:xlink="http://www.w3.org/1999/xlink" x="0px" y="0px"
	 width="1920px" height="540px" viewBox="0 0 1920 540" enable-background="new 0 0 1920 540" xml:space="preserve">
<circle opacity="0.7" fill="#FF00FF" cx="784.404" cy="173.422" r="39.509"/>
<circle opacity="0.7" fill="#FF00FF" cx="612.121" cy="257.419" r="23.119"/>
<circle opacity="0.7" fill="#FFFF00" cx="751.041" cy="337.72" r="49.024"/>
<circle opacity="0.7" fill="#FFFF00" cx="845.923" cy="183.615" r="34.915"/>
<circle opacity="0.7" fill="#00FFFF" cx="964.273" cy="133.622" r="38.834"/>
<circle opacity="0.7" fill="#00FFFF" cx="698.475" cy="250.794" r="28.332"/>
<circle opacity="0.7" fill="#00FFFF" cx="1153.431" cy="347.514" r="43.193"/>
<circle opacity="0.7" fill="#FFFF00" cx="1036.926" cy="218.066" r="26.113"/>
<circle opacity="0.7" fill="#FF00FF" cx="1003.55" cy="307.698" r="34.612"/>
<circle opacity="0.7" fill="#FF00FF" cx="919.438" cy="142.617" r="39.51"/>
<circle opacity="0.7" fill="#FF00FF" cx="1177.875" cy="184.482" r="23.119"/>
<circle opacity="0.7" fill="#FFFF00" cx="1064.925" cy="366.4" r="49.024"/>
<circle opacity="0.7" fill="#FFFF00" cx="1300.89" cy="157.082" r="34.916"/>
<circle opacity="0.7" fill="#00FFFF" cx="1086.894" cy="117.425" r="38.834"/>
<circle opacity="0.7" fill="#00FFFF" cx="864.124" cy="261.415" r="28.332"/>
<circle opacity="0.7" fill="#00FFFF" cx="1276.331" cy="309.511" r="43.194"/>
<circle opacity="0.7" fill="#FFFF00" cx="984.79" cy="133.432" r="26.114"/>
<circle opacity="0.7" fill="#FF00FF" cx="1097.859" cy="291.288" r="34.611"/>
<circle opacity="0.7" fill="#FF00FF" cx="890.736" cy="66.474" r="39.509"/>
<circle opacity="0.7" fill="#FF00FF" cx="708.055" cy="10.024" r="23.119"/>
<circle opacity="0.7" fill="#FFFF00" cx="739.865" cy="166.578" r="49.024"/>
<circle opacity="0.7" fill="#FFFF00" cx="909.685" cy="143.342" r="34.916"/>
<circle opacity="0.7" fill="#00FFFF" cx="1014.792" cy="146.363" r="38.835"/>
<circle opacity="0.7" fill="#00FFFF" cx="785.924" cy="37.596" r="28.331"/>
<circle opacity="0.7" fill="#00FFFF" cx="993.758" cy="460.065" r="43.193"/>
<circle opacity="0.7" fill="#FFFF00" cx="1045.647" cy="312.082" r="26.114"/>
<circle opacity="0.7" fill="#FF00FF" cx="952.121" cy="329.003" r="34.612"/>
<circle opacity="0.7" fill="#FF00FF" cx="977.045" cy="117.354" r="39.509"/>
<circle opacity="0.7" fill="#FF00FF" cx="1193.466" cy="355.785" r="23.118"/>
<circle opacity="0.7" fill="#FFFF00" cx="956.762" cy="379.44" r="49.024"/>
<circle opacity="0.7" fill="#FFFF00" cx="1234.339" cy="418.64" r="34.916"/>
<circle opacity="0.7" fill="#00FFFF" cx="1119.147" cy="277.79" r="38.835"/>
<circle opacity="0.7" fill="#00FFFF" cx="860.455" cy="197.617" r="28.331"/>
<circle opacity="0.7" fill="#00FFFF" cx="1119.267" cy="495.738" r="43.194"/>
<circle opacity="0.7" fill="#FFFF00" cx="1090.382" cy="185.499" r="26.114"/>
<circle opacity="0.7" fill="#FF00FF" cx="1043.999" cy="381.048" r="34.612"/>
</svg>
