<?xml version="1.0" encoding="utf-8"?>
<!-- Generator: Adobe Illustrator 16.0.0, SVG Export Plug-In . SVG Version: 6.00 Build 0)  -->
<!DOCTYPE svg PUBLIC "-//W3C//DTD SVG 1.1//EN" "http://www.w3.org/Graphics/SVG/1.1/DTD/svg11.dtd">
<svg version="1.1" id="Layer_1" xmlns="http://www.w3.org/2000/svg" xmlns:xlink="http://www.w3.org/1999/xlink" x="0px" y="0px"
	 width="1920px" height="540px" viewBox="0 0 1920 540" enable-background="new 0 0 1920 540" xml:space="preserve">
<path fill="#B1CCCB" d="M1169.33,236.573c-21.449,6.732-43.369,14.561-59.025,30.217c-4.384,0.313-8.769,0.626-13.151,0.783
	c-11.273,1.722-24.738-0.47-36.011,3.601c-3.758,1.409-7.358,3.444-10.49,6.576c-23.485,3.132-48.536,0-72.021,3.132
	c-1.566,4.696-1.566,9.394-4.697,12.524c-23.485-18.788-51.667-29.748-79.536-38.359c-3.288-1.096-6.576-2.348-9.707-3.914
	c-3.132-3.131-6.263-5.95-9.551-8.142c-4.384-2.818-10.646-5.949-15.344-9.081c-9.394-3.445-19.728-4.384-29.435-5.323
	c-3.288-0.313-6.576-0.626-9.707-0.939c-7.828,0-15.656,3.131-23.485,1.565c-20.354-3.131-39.142-10.959-59.495-12.525
	c-28.183-3.131-54.799,4.697-81.102,1.566c-3.914-0.783-7.202-1.722-9.707-2.505V540h626.268V168.31
	c-9.08,3.288-19.101,8.455-29.435,15.343c-3.444,2.349-6.889,4.854-10.489,7.515c-3.602,1.879-6.89,3.915-10.334,6.106
	c-3.288,2.192-6.576,4.541-9.707,6.889c-12.056,9.394-24.581,17.223-36.167,27.712
	C1174.497,233.441,1171.992,235.007,1169.33,236.573z"/>
</svg>
