<?xml version="1.0" encoding="utf-8"?>
<!-- Generator: Adobe Illustrator 16.0.0, SVG Export Plug-In . SVG Version: 6.00 Build 0)  -->
<!DOCTYPE svg PUBLIC "-//W3C//DTD SVG 1.1//EN" "http://www.w3.org/Graphics/SVG/1.1/DTD/svg11.dtd">
<svg version="1.1" id="Layer_1" xmlns="http://www.w3.org/2000/svg" xmlns:xlink="http://www.w3.org/1999/xlink" x="0px" y="0px"
	 width="1920px" height="540px" viewBox="0 0 1920 540" enable-background="new 0 0 1920 540" xml:space="preserve">
<path fill="#5883B7" d="M1272.514,240.017c0-0.156,0.156-0.469,0.156-0.783c0-0.783-0.156-1.252-0.469-1.252
	c-0.158,0-0.314,0.313-0.471,0.783c-0.156,0-0.156,0-0.313,0l0,0v-0.156l0,0c0.156,0,0.156-0.157,0.313-0.47
	c0-0.313,0-0.626-0.156-0.626s-0.313,0.157-0.313,0.47v0.157c0,0,0,0-0.157,0c-0.156,0-0.156,0.156-0.156,0.313
	c-0.156,0-0.313,0.157-0.313,0.313c0-0.156-0.155-0.156-0.313-0.156l0,0l0,0c-0.158,0-0.158,0.156-0.158,0.313
	c0,0.157,0,0.157,0,0.313l0,0c0,0,0,0-0.156,0c0,0,0,0,0-0.156c0-0.313-0.155-0.47-0.313-0.47s-0.156,0.313-0.156,0.626
	c0,0.157,0.156,0.157,0.156,0.157c0,0.156,0,0.156,0,0.313c0,0,0,0-0.156,0c0-0.157,0-0.313-0.156-0.313
	c0-0.313,0-0.626-0.157-0.783c-0.156,0-0.313,0.313-0.313,0.783c0,0,0,0-0.156,0c-0.155,0-0.313,0.156-0.155,0.47c0,0,0,0,0,0.156
	l0,0c0-0.156,0-0.156-0.156-0.156c0-0.157-0.158-0.313-0.158-0.313c-0.156,0-0.313,0.157-0.156,0.47l0.156,0.157h-0.156l0,0
	c0-0.157-0.155-0.313-0.313-0.313s-0.313,0.156-0.156,0.47l0,0c-0.156,0-0.313,0.156-0.471,0.156c0-0.156-0.156-0.313-0.313-0.313
	c0,0-0.155,0-0.155,0.157c0,0,0-0.157-0.156-0.157c-0.158,0-0.158,0.157-0.314,0.47c0,0-0.155,0-0.155-0.157c0,0,0,0-0.156-0.156
	c0,0-0.156-0.157-0.469-0.313c-0.314,0-0.158,0-0.314-0.313c-0.313-0.156-0.469-0.156-0.469-0.156c0-0.313-0.314-0.626-0.627-0.47
	l0,0l0,0l0,0c-0.156,0.156-0.313,0.313,0.156,0.313v0.157c-0.156,0-0.313,0-0.47-0.157c0,0,0.156,0,0.156-0.313s0-0.626-0.156-0.626
	c-0.155,0-0.155,0.157-0.313,0.313c0,0-0.156,0-0.156,0.157c0-0.313-0.156-0.626-0.156-0.626c-0.155,0-0.155,0.313-0.155,0.783
	v0.156l0,0c0-0.156,0-0.156,0-0.313c0-0.47-0.156-0.783-0.313-0.783c-0.158,0-0.158,0.47-0.158,0.783c0,0.157,0,0.157,0,0.313
	c-0.155,0-0.469,0-0.625,0.157c0,0-0.155,0-0.313,0l0,0h-0.156c0,0,0,0,0,0.157c0-0.157,0-0.157-0.156-0.157
	c-0.155,0-0.313,0.157-0.313,0.626l0,0c0,0,0,0,0-0.157c0-0.313-0.156-0.626-0.314-0.626c-0.155,0-0.155,0.313-0.155,0.783l0,0
	c-0.156,0-0.156,0-0.313,0c0-0.157,0-0.157,0-0.157c0-0.157-0.156-0.157-0.313-0.157c0-0.313,0-0.626,0-0.626
	c-0.158,0-0.314,0.313-0.472,0.783l0,0c0-0.313-0.155-0.783-0.155-0.783s-0.313,0.313-0.156,0.626c-0.156,0-0.156,0-0.314,0
	c0-0.313-0.155-0.47-0.155-0.626c-0.156,0-0.156,0.156-0.313,0.47c-0.156,0-0.313,0-0.471,0c0-0.157-0.156-0.157-0.156-0.157
	l-0.156,0.157h-0.155c0-0.313-0.156-0.47-0.313-0.47c-0.158,0-0.158,0.156-0.158,0.47h-0.155l0,0c-0.156,0-0.156-0.157-0.313,0l0,0
	c-0.156,0-0.471,0-0.627,0l-0.156-0.157c0,0-0.155,0-0.155,0.157c0,0,0,0-0.156,0c0,0,0-0.157,0.156-0.313
	c0-0.313,0-0.47-0.156-0.47s-0.314,0.157-0.314,0.47c0,0.157,0,0.313,0,0.313c-0.313,0-0.78,0.156-1.096,0.156
	c0-0.156-0.156-0.313-0.156-0.313c-0.155,0-0.155,0.157-0.155,0.47l0,0c0-0.157,0-0.157-0.156-0.157c0,0,0,0-0.156,0
	c0,0,0-0.156-0.158-0.156c-0.155,0-0.313,0.156-0.313,0.47l0,0c0-0.313,0-0.47-0.156-0.47c0,0-0.156,0-0.156,0.313
	c0,0,0-0.157-0.155-0.157c0,0-0.158,0-0.158,0.157c0-0.157,0-0.157-0.156-0.157s-0.313,0.313-0.469,0.626v0.156l0,0v-0.156
	c0-0.47-0.156-0.783-0.313-0.783s-0.157,0.313-0.157,0.783c0,0.156,0,0.156,0,0.313c0,0,0,0-0.156,0c0,0,0-0.157,0-0.313
	c0-0.313,0-0.783-0.156-0.783s-0.313,0.156-0.313,0.626c-0.156,0-0.156,0.157-0.156,0.313c0,0.157,0,0.157,0,0.313c0,0,0,0-0.158,0
	l0,0c0-0.313-0.156-0.47-0.156-0.47l0,0c0,0,0-0.157-0.155-0.157c0,0-0.156,0.157-0.156,0.313l0,0c0,0,0,0-0.156,0
	c0,0,0-0.156-0.156-0.156c-0.157,0-0.157,0.156-0.313,0.47l0,0c0-0.157,0-0.157-0.156-0.313c0,0-0.156,0-0.156,0.157
	c0-0.157,0-0.313-0.155-0.313c0,0-0.158,0-0.314,0.156c-0.156,0-0.313,0.157-0.313,0.47l0,0c-0.156-0.156-0.313-0.313-0.313-0.313
	v0.157l0,0l0,0c0-0.157,0-0.47-0.158-0.47c-0.155,0-0.155,0-0.155,0.313c0,0,0-0.157-0.156-0.157c0,0-0.156,0-0.156,0.157
	c0-0.157-0.156-0.157-0.156-0.157c-0.155,0-0.155,0.157-0.155,0.157c0-0.157-0.158-0.157-0.158-0.157
	c-0.156,0-0.156,0.157-0.313,0.47h-0.155l0,0c0-0.156,0-0.156-0.156-0.156h-0.156c0-0.157-0.158-0.313-0.158-0.313
	c-0.155,0-0.155,0.157-0.155,0.313c0-0.313-0.156-0.47-0.156-0.47c-0.156,0-0.156,0.313-0.156,0.626c0,0,0,0-0.156,0
	c0,0-0.155,0-0.155,0.157c0-0.313-0.158-0.626-0.158-0.626s-0.156,0-0.156,0.157c0,0,0-0.157-0.156-0.157
	c-0.155,0-0.155,0.157-0.155,0.47c0-0.156-0.156-0.313-0.156-0.313c-0.156,0-0.156,0.157-0.156,0.47c0,0,0,0,0,0.157
	c-0.158,0-0.471,0-0.627,0c0-0.47,0-0.783-0.156-0.783c-0.155,0-0.313,0.313-0.313,0.783l0,0l0,0c0-0.313-0.158-0.626-0.158-0.626
	c-0.156,0-0.156,0.313-0.156,0.626l0,0h-0.155c0-0.313-0.156-0.626-0.156-0.626c-0.156,0-0.156,0.157-0.156,0.47l-0.158-0.157l0,0
	c0-0.156-0.155-0.313-0.155-0.313c-0.156,0-0.156,0.157-0.313,0.313c0-0.156-0.156-0.313-0.156-0.313s-0.155,0-0.155,0.157l0,0
	c0,0-0.158,0.156-0.158,0.313l0,0c-0.156,0-0.156,0.157-0.156,0.313h-0.156c-0.155-0.156-0.155-0.313-0.313-0.313l-0.156,0.157
	c-0.158-0.157-0.158-0.157-0.313-0.157c0,0-0.156,0-0.156,0.157c0-0.157-0.156-0.313-0.156-0.313c-0.156,0-0.156,0.157-0.156,0.313
	c0,0.156,0,0.156,0,0.313c-0.155,0-0.155,0-0.313,0c0-0.313,0-0.626-0.156-0.626c0,0,0,0-0.156,0c0-0.156-0.155-0.313-0.155-0.156
	c0-0.157-0.156,0.313-0.156,0.783c-0.156,0-0.314,0-0.471,0c0,0,0-0.157-0.156-0.157c0-0.313-0.156-0.47-0.156-0.47
	c-0.156,0-0.156,0.157-0.156,0.47c0-0.156-0.155-0.156-0.155-0.156s-0.156,0.156-0.156,0.313h-0.158c0,0,0-0.157-0.156-0.157
	c0,0-0.155,0-0.155,0.157l0,0c-0.156-0.313-0.313-0.626-0.313-0.626c-0.156,0-0.156,0.313-0.156,0.626c-0.157,0-0.313,0-0.471,0
	c0-0.313-0.156-0.626-0.156-0.626l-0.155,0.157c0-0.157-0.156-0.313-0.156-0.313c-0.158,0-0.158,0.313-0.158,0.783l0,0
	c0-0.626-0.156-0.939-0.313-0.939c-0.157,0-0.156,0.47-0.156,0.939l0,0c0-0.313-0.156-0.626-0.313-0.626s-0.157,0.313-0.157,0.626
	l0,0c0-0.47-0.156-0.783-0.313-0.783l0,0c0-0.47,0-0.939-0.156-0.939c-0.155,0-0.313,0.47-0.313,1.252c0,0.157,0,0.157,0,0.313l0,0
	c0-0.156,0-0.313-0.158-0.313c0,0-0.156,0.157-0.156,0.313c-0.155-0.313-0.155-0.47-0.313-0.47l0,0c0-0.156-0.156-0.313-0.156-0.313
	c-0.156,0-0.156,0.313-0.156,0.783c0-0.626-0.157-1.096-0.313-0.939c-0.156,0-0.156,0.313-0.156,0.939c0,0.157,0,0.313,0,0.47
	c0,0-0.156,0-0.156,0.157c-0.155-0.313-0.155-0.626-0.313-0.626c-0.158,0-0.158,0.47-0.158,0.939l0,0
	c0-0.626-0.156-1.096-0.313-0.939c0,0-0.156,0.157-0.156,0.313c0,0,0-0.157-0.156-0.157s-0.156,0.626-0.156,1.252l0,0
	c0,0,0,0-0.157,0.157c0-0.157,0-0.313,0-0.47c0-0.313,0-0.626-0.156-0.626c0-0.156-0.156-0.313-0.156-0.313
	c-0.156,0-0.156,0.313-0.156,0.939c0,0.157,0,0.313,0,0.47c0,0.157,0,0.313,0,0.626c-0.155,0.157-0.155,0.157-0.313,0.313l0,0
	c0-0.157,0-0.157,0-0.313c0,0,0-0.156,0-0.313c0-0.47,0.156-0.783,0-0.939c0,0-0.314,0.157-0.314,0.47c0,0,0-0.156-0.155-0.156
	c0,0-0.156,0.156-0.156,0.313l0,0c0,0-0.156,0.156-0.314,0.313c0-0.157,0-0.313-0.155-0.313c-0.156,0-0.156,0.156-0.313,0.313
	c-0.156,0-0.469,0.313-0.627,0.939l0,0c0-0.157-0.156-0.313-0.156-0.313s-0.155,0.156-0.155,0.313v0.157c0-0.157,0-0.157,0-0.157
	c-0.156,0-0.313,0.313-0.313,0.626c0-0.157-0.156-0.47-0.156-0.47c-0.157,0-0.313,0.313-0.313,0.783c0,0.157,0,0.157,0,0.313
	c0,0.157-0.156,0.157-0.156,0.313c0-0.157,0-0.313,0-0.47c0-0.47,0-0.939-0.156-0.939c0,0-0.155,0.156-0.155,0.313
	c-0.156,0-0.314,0.313-0.314,0.783c0-0.156,0-0.313,0-0.313c-0.156,0-0.156,0.157-0.313,0.626l0,0l0,0c0-0.313,0-0.626,0-0.626
	s-0.156,0-0.156,0.157c0,0,0-0.157-0.156-0.157c0,0-0.156,0.157-0.156,0.313c0-0.156-0.157-0.313-0.157-0.313
	c-0.156,0-0.156,0.157-0.313,0.47c0-0.157,0-0.157-0.156-0.157c-0.155,0-0.155,0.157-0.313,0.47l0,0
	c-0.158,0-0.314,0.313-0.314,0.626v0.156c0,0,0,0,0,0.157l0,0c0.156-0.47,0.156-0.939,0-0.939c-0.155,0-0.313,0.313-0.469,0.939
	c0,0.157,0,0.313,0,0.313l0,0c0,0,0,0,0-0.156c0-0.47-0.156-0.783-0.156-0.783s-0.157,0-0.157,0.157c0,0,0-0.157-0.156-0.157
	s-0.313,0.313-0.313,0.783v0.156h-0.155c0-0.47,0-0.783-0.156-0.939c-0.158,0-0.314,0.47-0.314,1.096c0,0,0,0-0.155,0
	c0-0.157,0-0.313-0.156-0.313s-0.313,0.156-0.313,0.47l0,0c0-0.157-0.157-0.313-0.157-0.313s-0.156,0-0.156,0.157
	c0-0.157,0-0.157-0.156-0.157c0,0-0.156,0.157-0.313,0.313v-0.157c0,0-0.314,0.157-0.472,0.47v-0.157
	c-0.155,0-0.313,0.157-0.469,0.626c0,0,0-0.157-0.156-0.157c-0.157,0-0.157,0.157-0.313,0.313l0,0c0.156-0.47,0.156-0.939,0-1.096
	c-0.156,0-0.313,0.313-0.469,0.783c-0.156,0-0.314,0.157-0.472,0.626v0.156c0-0.156,0-0.313-0.155-0.47
	c-0.156,0-0.313,0.157-0.313,0.47c0,0.157,0,0.313,0,0.313h-0.156h-0.157c0-0.157,0-0.157,0-0.313
	c0.313-0.47,0.471-0.939,0.313-1.096c0-0.157-0.313,0.313-0.627,0.783l0,0c-0.156,0-0.156,0.157-0.156,0.626
	c-0.155,0-0.155,0-0.313,0c0,0,0-0.157,0-0.313c0-0.313,0-0.47-0.158-0.47c-0.156,0-0.313,0.157-0.313,0.47v0.157h-0.156
	c0-0.47,0-0.783,0-0.783c-0.156,0-0.313,0.313-0.313,0.626c0,0,0,0,0-0.156c0-0.313-0.157-0.626-0.313-0.626
	s-0.156,0.313-0.156,0.626v0.156l0,0c0-0.156,0-0.313-0.156-0.313l0,0c-0.155-0.313-0.313-0.626-0.313-0.626
	c-0.158,0-0.158,0.47,0,0.783v0.156c-0.158,0-0.471,0-0.627,0c0-0.47,0-0.939-0.156-0.939s-0.156,0.313-0.313,0.783l-0.156-0.157
	c0,0,0,0-0.156,0v-0.157c0-0.313-0.156-0.47-0.313-0.47c-0.157,0-0.156,0.313-0.156,0.626c0,0.157,0,0.157,0,0.313
	c-0.158,0-0.314,0-0.471,0c-0.156-0.313-0.313-0.626-0.313-0.626c0-0.157,0-0.313-0.156-0.313c-0.157,0-0.313,0.313-0.313,0.783
	c0-0.157-0.156-0.157-0.156-0.157c-0.156,0-0.156,0.157-0.156,0.157l0,0c-0.155,0-0.155,0-0.313,0c0.156-0.626,0-1.253,0-1.253
	c-0.158,0-0.314,0.47-0.471,1.253h-0.156v-0.157c0-0.47,0-0.939-0.156-0.939c0-0.157,0-0.157-0.156-0.157
	c-0.155,0-0.313,0.47-0.313,0.939c0,0.157,0,0.157,0,0.313h-0.156c0-0.313,0-0.626-0.156-0.626l0,0v-0.157
	c-0.155,0-0.313,0.313-0.469,0.783h-0.158c0-0.313,0-0.626-0.155-0.626l0,0c0-0.157-0.156-0.313-0.156-0.313s-0.156,0-0.156,0.156
	c0-0.156,0-0.156-0.156-0.313c0,0-0.155,0.157-0.155,0.313c0-0.156,0-0.313,0-0.313h-0.158c0,0,0,0-0.156,0
	c0,0-0.156,0.157-0.156,0.313c0,0.157-0.155,0.313-0.155,0.47c0,0,0,0,0,0.157l0,0c0-0.313-0.156-0.626-0.156-0.626l-0.156,0.157
	c-0.158-0.157-0.158-0.313-0.313-0.313c-0.156,0-0.156,0.313,0,0.626l0,0c0,0-0.156,0-0.156,0.157c0-0.47,0-0.783,0-0.783
	s-0.156,0.157-0.156,0.313c0-0.157,0-0.313-0.156-0.313c0,0-0.155,0.157-0.155,0.313c0-0.157,0-0.313-0.158-0.313
	c-0.156,0-0.313,0.47-0.313,1.096l0,0c0-0.47-0.155-0.939-0.313-0.939s-0.156,0.47-0.156,0.939h-0.158
	c0.158-0.47,0.158-0.783,0-0.939c-0.155,0-0.313,0.313-0.469,0.783l0,0c0,0-0.156,0-0.156,0.156c-0.155,0-0.155,0-0.313,0
	c0-0.156,0-0.156-0.156-0.156c0,0-0.156,0-0.156,0.156h-0.155c0-0.47,0-0.783,0-0.939c-0.156,0-0.313,0.313-0.313,0.939
	c0,0,0,0-0.158,0c0-0.156,0-0.47-0.155-0.47c-0.156,0-0.156,0.157-0.313,0.47l0,0c0-0.313,0-0.626-0.156-0.626
	c0,0-0.155,0-0.155,0.156l0,0c-0.158,0-0.158,0.157-0.158,0.313c0,0.156,0,0.156,0.158,0.156l0,0h-0.314
	c0.156-0.626,0.314-1.252,0.156-1.252c-0.156,0-0.313,0.157-0.469,0.626l0,0c0,0-0.156,0.156-0.156,0.313c0-0.157,0-0.313,0-0.313
	s-0.156,0.156-0.314,0.313l0,0c0,0-0.155,0.157-0.313,0.313c0-0.313-0.156-0.47-0.156-0.47s-0.156,0.157-0.156,0.313
	c0-0.313,0-0.626-0.155-0.626c-0.158,0-0.314,0.47-0.314,0.939l0,0c0,0,0,0-0.156,0c0-0.157,0-0.47,0-0.47l0,0
	c0-0.313,0-0.626-0.155-0.626c-0.156,0-0.313,0.156-0.313,0.469c0-0.156,0-0.313-0.158-0.313c-0.155,0-0.313,0.313-0.313,0.626
	c0-0.313,0-0.626-0.156-0.626c0,0-0.156,0.157-0.156,0.313c0-0.313,0-0.626-0.155-0.626c0,0-0.158,0.157-0.158,0.313l0,0l0,0
	c0-0.156,0-0.156,0-0.156c-0.156,0-0.313,0.156-0.469,0.626c0-0.157,0-0.313-0.156-0.47c0,0-0.156,0-0.156,0.157v-0.157
	c0,0-0.158,0-0.158,0.157c0-0.313,0-0.47-0.155-0.47c0,0,0,0-0.156,0c0-0.47,0-0.783,0-0.783c-0.156,0-0.313,0.47-0.469,0.939
	c0,0,0,0-0.158,0c0-0.47,0-0.783-0.156-0.783c0,0-0.156,0-0.156,0.157c0-0.157,0-0.157-0.155-0.157l0,0c0-0.156,0-0.156-0.156-0.156
	c0,0-0.156,0.156-0.314,0.47c-0.155,0-0.155,0.313-0.155,0.626l0,0c0-0.47,0-0.939-0.156-0.939s-0.156,0.313-0.313,0.783
	c0,0,0,0,0,0.157h-0.155c0-0.313,0-0.47-0.158-0.47c0,0-0.156,0.157-0.156,0.313h-0.156l0,0l0,0l0,0c0-0.469,0-0.939-0.155-0.939
	c0,0-0.156,0.156-0.156,0.313c0-0.313,0-0.626-0.156-0.626c-0.158,0-0.158,0.313-0.313,0.939c0,0,0,0.157-0.156,0.157
	c0-0.313,0-0.47-0.156-0.47c0,0-0.156,0.157-0.156,0.313l0,0c-0.155,0-0.313,0.47-0.313,1.252l0,0c0,0-0.156,0.157-0.156,0.313
	c0-0.157,0-0.157-0.156-0.157c-0.155,0-0.155,0.313-0.155,0.626c-0.156,0.156-0.313,0.313-0.472,0.47l0,0
	c0-0.626,0-1.096-0.155-1.253c-0.156,0-0.313,0.47-0.313,1.096c0,0.157,0,0.313,0,0.626l0,0c0,0,0,0,0-0.157
	c0-0.783,0-1.566-0.156-1.566c-0.155,0-0.155,0.313-0.313,0.783c0-0.157,0-0.157-0.156-0.157s-0.156,0.313-0.313,0.783
	c0-0.626,0-0.939-0.156-0.939s-0.156,0.313-0.314,0.939v-0.156c-0.155,0-0.313,0.626-0.313,1.565c0-0.313,0-0.626-0.156-0.626
	s-0.156,0.313-0.313,0.626c0,0-0.158,0.157-0.158,0.313l0,0c0,0,0,0-0.156,0.157c0-0.313,0-0.47-0.156-0.47
	c-0.155,0-0.313,0.47-0.469,1.252c0,0.157,0,0.313,0,0.626c-0.158,0-0.158,0.156-0.313,0.156c0-0.313,0-0.47,0.155-0.783
	c0.158-0.783,0.314-1.409,0.158-1.565c-0.158,0-0.471,0.626-0.627,1.565c0,0.157,0,0.157,0,0.313c0-0.156,0-0.313-0.156-0.313
	c-0.155,0-0.313,0.313-0.313,0.783l0,0c0,0-0.156,0-0.156,0.157c0-0.157,0-0.157-0.156-0.157c-0.155,0-0.155,0.313-0.313,0.783
	c0-0.157-0.156-0.313-0.156-0.313c-0.158,0-0.158,0.313-0.313,0.783c0-0.313,0-0.626-0.156-0.626c0,0-0.156,0.157-0.156,0.313l0,0
	c-0.156,0-0.156,0.313-0.313,0.626c0,0,0,0-0.158-0.157h-0.156l0,0c-0.156,0-0.156,0.157-0.313,0.626c0,0,0,0-0.156,0.157
	c0-0.47-0.156-0.939-0.156-0.939c-0.158,0-0.313,0.47-0.313,1.252c0,0,0,0-0.156,0c0-0.47-0.156-0.783-0.156-0.783
	s-0.156,0.313-0.156,0.626c0-0.157,0-0.157-0.155-0.157c-0.158,0-0.314,0.313-0.314,0.783c0,0,0,0,0,0.156l-0.156-0.156
	c-0.155,0-0.313,0.156-0.313,0.156v0.157c-0.156,0.157-0.314,0.157-0.471,0.313v-0.156l0,0c0.155,0,0.313-0.313,0.313-0.47
	c0-0.313,0-0.47-0.158-0.626c-0.155,0-0.313,0.157-0.313,0.47v0.157l0,0c-0.156,0-0.156,0.156-0.313,0.47c0,0,0,0-0.155,0
	c0-0.313,0-0.626-0.158-0.783c0,0-0.156,0-0.156,0.157l0,0c0,0,0,0-0.156,0c0-0.313,0-0.47-0.155-0.47
	c-0.156,0-0.156,0.313-0.313,0.626c0-0.313-0.158-0.47-0.158-0.47c-0.155,0-0.313,0.47-0.313,1.096c0,0.313,0,0.626,0.156,0.939
	c-0.156,0-0.156,0.157-0.313,0.157c-0.156-0.939,0-1.566-0.156-1.722c0,0,0,0-0.155,0.156c0-0.156,0-0.156-0.158-0.156
	c-0.156,0-0.156,0.626-0.156,1.409c0,0.156,0,0.47,0,0.626l0,0c0-0.157,0-0.313,0-0.626c0-0.783,0-1.409-0.156-1.409
	c0,0,0,0.156-0.155,0.156c-0.156,0-0.156,0.313-0.156,0.783c0-0.157-0.156-0.313-0.156-0.313s-0.158,0-0.158,0.157
	c0-0.157,0-0.157-0.155-0.157c-0.156,0-0.156,0.157-0.313,0.47c0-0.156-0.156-0.313-0.156-0.313c-0.155,0-0.155,0.157-0.155,0.47
	c0-0.47-0.158-0.626-0.158-0.626s-0.156,0.313-0.156,0.626l0,0c-0.156,0-0.313,0.313-0.313,0.783c0,0,0,0.157-0.156,0.157
	c0-0.157,0-0.157,0-0.157c-0.156,0-0.156,0.157-0.314,0.47c0,0.157-0.155,0.313-0.155,0.626c0,0-0.156,0.156-0.156,0.313
	c0-0.313,0-0.47-0.156-0.47s-0.156,0.313-0.313,0.783c0-0.156,0-0.313-0.158-0.313c0,0-0.156,0.157-0.156,0.313
	c0-0.156,0-0.313,0-0.47c0-0.47,0-0.783-0.156-0.783c0,0-0.155,0.157-0.155,0.313l0,0c0,0-0.156,0.157-0.156,0.313
	c0-0.313,0-0.47-0.156-0.47c-0.158,0-0.313,0.47-0.471,1.252l0,0c0,0,0,0.157-0.156,0.157c0,0,0,0-0.156-0.157
	c-0.155,0-0.155,0.157-0.155,0.313l0,0c0,0-0.158,0-0.158,0.157l0,0c0,0-0.156,0-0.156,0.157c0-0.313,0-0.47-0.156-0.47
	c-0.155,0-0.313,0.47-0.313,0.939c0,0-0.156,0.156-0.156,0.313l0,0l0,0c0-0.313,0-0.47-0.158-0.47c0,0-0.155,0.157-0.155,0.313l0,0
	c-0.156,0-0.156,0.313-0.313,0.626l0,0c-0.156,0-0.156,0.156-0.156,0.313c0-0.157-0.155-0.157-0.155-0.157s-0.158,0-0.158,0.157
	c0,0-0.156,0.157-0.156,0.313c0-0.156,0-0.156-0.156-0.156c0,0,0,0-0.155,0c0-0.157,0-0.157-0.156-0.157
	c0,0-0.156,0.157-0.314,0.313c0,0,0-0.156-0.155-0.156c-0.156,0-0.313,0.47-0.313,0.939c0,0.313,0,0.469,0,0.626c0,0,0,0-0.156,0
	v-0.157c0-0.47,0-0.939-0.155-0.939c-0.158,0-0.158,0.313-0.314,0.626l0,0c0,0,0,0-0.156,0c0-0.157-0.155-0.313-0.155-0.313
	c-0.156,0-0.156,0.47-0.156,0.783s0,0.47,0,0.626l-0.156,0.156l0,0c0-0.47,0-0.783-0.158-0.783c0,0-0.155,0.157-0.155,0.313
	c0-0.156,0-0.313-0.156-0.313s-0.313,0.313-0.313,0.626l0,0c-0.155,0-0.155,0.313-0.155,0.626c0,0.157,0,0.157,0,0.313l-0.158,0.156
	c0-0.156,0-0.313,0-0.626c0.158-0.783,0.158-1.409,0-1.409c0,0-0.156,0-0.156,0.313c0-0.313,0-0.313,0-0.313
	c-0.156,0-0.313,0.626-0.469,1.722c0,0.157,0,0.157,0,0.313l0,0c0-0.47,0-0.783-0.156-0.783c0,0-0.158,0.157-0.158,0.313
	c0-0.156,0-0.156-0.155-0.156c-0.156,0-0.313,0.47-0.313,1.096v0.157l0,0c0,0,0-0.157-0.156-0.157c0-0.156,0-0.313-0.155-0.47l0,0
	v-0.156c-0.158,0-0.314,0.313-0.472,0.939c0-0.156,0-0.313-0.155-0.313l-0.156,0.157v-0.157c0,0-0.156,0-0.156,0.157
	c0-0.157,0-0.157-0.158-0.157c-0.155,0-0.313,0.313-0.469,0.939c-0.156,0-0.313,0.313-0.313,0.783l0,0
	c0-0.47-0.158-0.783-0.158-0.783c-0.156,0-0.313,0.47-0.313,1.097v0.156l0,0c0-0.156,0-0.313-0.155-0.313
	c0,0-0.156,0.157-0.313,0.313c0-0.156,0-0.156-0.158-0.156c-0.155,0-0.313,0.313-0.313,0.782l0,0c0-0.313,0-0.47,0-0.626
	c-0.156,0-0.313,0.313-0.469,0.782c0,0,0,0.157-0.156,0.157c0-0.157,0-0.313-0.158-0.313c-0.156,0-0.313,0.626-0.469,1.409v0.156
	c0,0,0,0-0.156,0.156c0,0,0,0,0-0.156c0-0.47,0-0.939-0.156-0.939l0,0c0-0.156,0-0.313-0.157-0.313
	c-0.156,0-0.313,0.313-0.313,0.626l0,0c0,0-0.156,0.156-0.313,0.47l0,0c-0.156,0-0.156,0.156-0.314,0.471l0,0
	c0-0.313,0-0.471,0-0.626c-0.156,0-0.313,0.313-0.469,0.782l0,0c-0.156,0-0.313,0.313-0.313,0.625l0,0
	c-0.157,0-0.157,0.313-0.313,0.627c0-0.155,0-0.155-0.156-0.155s-0.156,0.155-0.313,0.469l0,0c0,0-0.156,0.157-0.314,0.313l0,0l0,0
	c0-0.157,0-0.313-0.156-0.313c-0.155,0-0.313,0.313-0.313,0.783c0-0.156,0-0.156-0.156-0.156s-0.313,0.313-0.313,0.783v0.155l0,0
	c0,0-0.156,0-0.156,0.156c0,0,0-0.156-0.156-0.156c0,0-0.156,0-0.156,0.156l0,0c-0.155,0-0.313,0.471-0.471,1.097l0,0l0,0
	c-0.156,0-0.313,0.313-0.313,0.782c0,0.156,0,0.156,0,0.313c0,0,0-0.155-0.156-0.155s-0.156,0.313-0.313,0.627
	c0-0.472,0-0.783-0.157-0.783c-0.156,0-0.156,0.313-0.313,0.625l0,0c-0.156,0-0.313,0.313-0.313,0.627c0-0.156,0-0.313-0.156-0.313
	c0,0-0.158,0-0.158,0.156c0-0.313-0.156-0.47-0.313-0.47c0,0-0.156,0.156-0.156,0.47c0-0.313,0-0.47-0.156-0.47
	c0,0-0.156,0.156-0.156,0.313c0-0.156-0.157-0.313-0.157-0.313l0,0c0-0.156-0.156-0.156-0.156-0.156s-0.156,0.156-0.156,0.47
	c0-0.313,0-0.47-0.156-0.47c0,0,0,0-0.155,0c0-0.157-0.156-0.313-0.156-0.313c-0.158,0-0.158,0.313-0.314,0.627
	c0-0.158,0-0.158-0.155-0.158c0,0,0,0-0.156,0c0,0,0,0,0-0.155c0-0.313,0-0.626,0-0.783c-0.156,0-0.313,0.47-0.471,1.097v-0.156
	c0-0.627,0-1.096-0.156-1.096c0,0-0.156,0.155-0.156,0.469c0-0.469-0.156-0.782-0.156-0.782c-0.155,0-0.155,0.313-0.155,0.782
	c0-0.155,0-0.155-0.156-0.155c-0.158,0-0.158,0.155-0.314,0.626c0-0.471-0.155-0.939-0.155-0.939s-0.156,0.156-0.156,0.313
	c0,0,0,0-0.156,0l0,0l0,0l0,0c0-0.157,0-0.313-0.156-0.313c0,0-0.157,0.156-0.157,0.313c0,0,0-0.157-0.156-0.157
	c0,0-0.156,0.157-0.156,0.313v-0.155c0-0.472,0-0.783-0.156-0.783c-0.155,0-0.155,0.313-0.313,0.783
	c0,0.155-0.158,0.313-0.158,0.469c0-0.155-0.156-0.313-0.313-0.313c0,0-0.156,0-0.156,0.156c0-0.156,0-0.156-0.156-0.156l0,0
	c0-0.313-0.156-0.469-0.156-0.469c-0.157,0-0.157,0.155-0.313,0.469c0,0,0,0-0.156,0c0,0-0.156,0-0.156,0.156c0,0,0,0-0.155,0
	c0,0-0.156,0-0.156,0.156c0-0.156-0.158-0.313-0.158-0.313s-0.156,0.156-0.156,0.313c0,0,0-0.156-0.155-0.156l0,0
	c0-0.313,0-0.47-0.156-0.47s-0.313,0.47-0.313,1.097c0-0.627,0-1.097-0.157-1.097c-0.156,0-0.156,0.313-0.313,0.626
	c0,0,0-0.156-0.156-0.156c-0.155,0-0.155,0.156-0.313,0.471c0-0.313-0.158-0.471-0.158-0.471c-0.156,0-0.156,0.156-0.156,0.471
	c0,0,0,0-0.155,0l-0.156,0.156c0,0,0,0-0.156,0c0,0-0.156,0-0.156,0.156c0-0.313,0-0.471-0.157-0.471
	c-0.156,0-0.156,0.156-0.313,0.471c0-0.156,0-0.156-0.156-0.156c0,0-0.155,0-0.155,0.156c0-0.156,0-0.156-0.156-0.156
	c-0.158,0-0.314,0.469-0.314,0.939v0.156h-0.155c0-0.471,0-0.783,0-0.783c-0.156,0-0.313,0.47-0.47,1.096l0,0l0,0c0,0,0,0,0-0.156
	c0-0.47,0.156-0.938,0-1.096c-0.157,0-0.313,0.313-0.313,0.626l0,0c0-0.157,0-0.157-0.156-0.157l0,0c0-0.156,0-0.313-0.156-0.313
	c0,0-0.155,0.156-0.313,0.627c0-0.157,0-0.157-0.158-0.157c0,0-0.156,0.157-0.313,0.47c0-0.156,0-0.313-0.156-0.313
	c0,0-0.156,0.156-0.156,0.313c0,0,0-0.156-0.156-0.156c-0.157,0-0.313,0.47-0.313,0.939l0,0c0,0-0.156,0.156-0.156,0.313
	c0-0.155-0.156-0.155-0.156-0.155c-0.155,0-0.155,0.313-0.155,0.938l0,0c0-0.47,0-0.783-0.156-0.783c0,0-0.158,0.156-0.158,0.471
	c0-0.156,0-0.313-0.156-0.313c-0.155,0-0.155,0.471-0.313,0.938c0,0.157-0.156,0.157-0.156,0.313c0-0.313,0-0.471-0.156-0.627
	c-0.157,0-0.313,0.313-0.313,0.939c0,0.156,0,0.156,0,0.313l0,0l0,0c-0.156,0-0.156,0.158-0.313,0.313c0,0,0-0.155-0.155-0.155
	c0,0-0.156,0-0.156,0.155c0-0.47,0-0.782-0.158-0.782c-0.156,0-0.313,0.469-0.313,1.252l0,0l0,0c-0.156,0-0.313,0.313-0.313,0.783
	c0,0.156,0,0.156,0,0.156s0,0-0.156-0.156c-0.157,0-0.157,0.156-0.313,0.469l0,0c0-0.313,0-0.625-0.156-0.625
	s-0.313,0.156-0.313,0.625c0-0.156,0-0.156-0.156-0.156l-0.158,0.156c0-0.313,0-0.469-0.156-0.469c0,0-0.155,0.156-0.313,0.469
	c-1.096,0.157-1.096,0.939-1.096,1.879c-0.939-1.879-2.818-0.938-3.603-0.938v0.938c-0.938-0.938,0.939-1.879-0.938-1.879
	c0,0.939,0,0.939,0,1.879c0-0.938,0-0.938-0.939-0.938c0.939,1.879-1.879,0-1.879,1.879c0-0.938,0-0.938,0-1.879
	c0.938,0.938-0.938,1.879-0.938,2.817c0-2.817-2.818,2.818-2.818-0.938c-0.939,2.817-3.603,0.938-5.479,2.817
	c0-0.938,0-0.938,0-1.879c-1.879,0-2.817,0.939-4.541,2.818c-0.938,0.939-1.879,0.939-2.817,0.939
	c0.938,0.938-0.939,1.879,0.938,1.879c-1.879-0.939-2.817,0.939-4.541,0.939c0-0.939,0.939-0.939,1.879-0.939l-0.938-0.939
	c-5.48,3.602-11.898,1.879-17.535,3.602c0-0.938,0-0.938,0-1.879c-0.939,1.879-3.602,0-4.541,1.879l-0.939-0.938
	c0.939,0,1.88,0,2.818,0c-1.879,0.938-3.602-0.938-4.541,0.938c0-0.938,0-0.938,0-1.879c-1.877,3.602-5.479,6.42-7.357,10.178
	c-0.938-0.939-1.879-1.879-2.817-2.818c0.938,2.818-1.879-0.938-1.879,0.939c0-0.939,0-0.939,0-1.879c-2.818,0-6.42-2.818-9.238,0
	c0-0.939,0-1.879-0.938-2.818c0,0.939,0,0.939,0,1.879c0-0.938,0-0.938,0-1.879c0.938,0,2.817,0,3.602,0
	c-1.879,0,0,0.939-0.939,1.879c-2.817-1.879-7.356,0-10.176-1.879h0.939c-3.603-0.939-7.359-0.939-10.961,0.939
	c-1.879,0-4.539,0.938-6.418-0.939h0.938c-1.879-0.939-3.602-0.939-5.479-1.879c-4.541,1.879-8.299,0.939-12.838,0.939
	c-7.359-1.879-13.779-1.879-21.138-1.879c0,0.938,0,0.938,0,1.879c-1.879-2.817-6.42-1.879-9.237-3.602
	c0.938,0.939-1.88,0.939-0.939,1.879c-1.879-0.939-3.602,1.879-6.42,0c-6.418,2.818-15.656,2.818-23.014,0
	c-2.818,0.939-6.42,1.879-9.237,2.35c-3.288,0.626-6.42,1.252-9.238,3.131c-5.479,0-10.959,1.879-16.596,0.938
	c0,0.939,0,0.939,0,1.879l-0.939-0.938c-0.938,1.879-2.817,0.938-4.541,0.938c0,0.939,0,1.879-0.938,1.879
	c-2.818-0.938-4.541,0.939-6.42,1.879v-0.938c-2.818,1.879-6.419,0-9.237,3.601c-4.54,0-10.177,1.879-14.717-0.938l-0.939,0.938
	c0-0.938-0.938-0.938-1.879-0.938c-0.939,0-0.938,0.938-0.938,1.879c0.938,0,0.938,0,0.938-0.939c-2.818,0-5.479,1.879-8.299,0.939
	v-0.939c-0.938,0.939,0.939,1.879-0.938,1.879c0-0.938,0-0.938,0-1.879c-1.88,0.939-4.541,0.939-5.95,1.098
	c-2.035,0.155-4.07-0.157-5.949-1.098c0,0.939-0.939,0.939-1.879,0.939l0.938,0.938c-10.177-1.879-20.196-7.357-30.374-2.817
	c-2.817-2.818-7.357-6.419-4.54-10.959c-0.938-0.939-1.879-2.818-3.602-2.818c0,0.939,0,0.939,0,1.879
	c-0.939-0.938-0.939-0.938-1.879-1.879c0,0.939-0.939,0.939-1.879,0.939c0-0.939,0-0.939,0-1.879
	c-2.818,0.938-4.54-1.879-7.358-0.939c-0.938-1.879-2.817-1.879-4.54-1.879c0,0.939,0,0.939,0,1.879
	c0-1.879-2.817-2.818-1.879-4.541l-0.939,0.939c0-0.939,0-0.939,0-1.879c-0.938,0-1.879,0-2.817,0.938
	c0.938-1.879,0-3.601-1.879-4.54c0,0,0,0.939,0.155,0.782c0.783-2.661-2.817-3.601-2.817-6.418c0,0.938,0,0.938,0,1.878
	c0-0.938,0-1.878,0-1.878c-2.817-2.818-4.54-5.479-8.298-7.359c-0.939,0-1.879,0-2.818,0c-0.938-0.939-1.878-1.879-3.443-1.879
	c0-0.313,0-0.47-0.156-0.47c0,0,0,0-0.156,0c0,0,0-0.156-0.157-0.156c0,0,0,0-0.155,0c0,0,0,0-0.156,0.156
	c0-0.156,0-0.313-0.157-0.313c-0.156,0-0.156,0.157-0.313,0.47l0,0l0,0c0-0.626,0-1.096-0.156-1.096c0,0-0.156,0.156-0.313,0.626
	c0-0.313,0-0.626-0.157-0.626l0,0c0.157-0.47,0.157-0.939,0-0.939c0,0-0.155,0-0.155,0.156c0,0,0-0.156-0.156-0.156
	c0-0.157,0-0.313-0.156-0.313c0,0,0,0-0.157,0.157l0,0c-0.155,0-0.155,0-0.155,0.157c0,0,0-0.157-0.157-0.157h-0.156
	c0,0,0-0.157,0-0.313c0-0.313,0-0.47-0.156-0.47c0,0,0,0-0.155,0l-0.157-0.157h-0.156l0,0c0-0.313,0-0.47-0.156-0.47l0,0
	c0-0.156-0.156-0.313-0.156-0.47c-0.156,0-0.313,0.157-0.313,0.47c0,0.313,0,0.47,0.156,0.47l0,0c-0.156,0-0.156-0.156-0.313-0.156
	c0-0.157,0-0.157,0-0.313c0-0.313,0-0.626-0.155-0.626c0,0,0,0-0.156,0l0,0c0,0-0.157,0-0.157,0.156l0,0c0,0,0,0-0.156,0
	c0,0,0-0.156-0.155-0.156c0-0.157-0.157-0.157-0.157-0.157s-0.156,0-0.156,0.157c0-0.157,0-0.313-0.156-0.313
	s-0.313,0.157-0.313,0.47v0.157c0,0,0,0-0.156,0v-0.157c0-0.313,0-0.626-0.156-0.626c0,0-0.156,0-0.156,0.156l0,0
	c-0.156,0-0.156,0.157-0.313,0.313l-0.155-0.157c0-0.157,0-0.313-0.156-0.313c0,0-0.156,0-0.156,0.156
	c0-0.313-0.157-0.47-0.313-0.47c0,0-0.157,0-0.157,0.157l0,0l0,0c0,0,0,0-0.156,0c0,0,0,0-0.156,0c0,0-0.155,0-0.155,0.157l0,0
	v-0.157c0-0.313,0-0.47-0.157-0.47c-0.156,0-0.313,0.157-0.313,0.47v0.157c0,0,0,0.156-0.156,0.313l0,0l0,0l0,0l-0.155-0.157
	c-0.156,0-0.156,0-0.156,0s-0.157,0-0.157,0.157c0,0-0.156,0,0-0.157l0,0c0-0.156-0.156-0.313-0.156-0.313
	c-0.155,0-0.155,0.157-0.155,0.313c0,0,0,0-0.157,0c0-0.156,0-0.156-0.156-0.156c0,0,0,0-0.156,0c0-0.157-0.156-0.313-0.156-0.313
	c-0.156,0-0.156,0.157-0.156,0.313c0,0,0-0.157-0.156-0.157s-0.156,0-0.313,0.157c0-0.157-0.156-0.157-0.156-0.157
	c-0.157,0-0.157,0.157-0.157,0.313c0,0,0,0-0.155-0.156c0,0,0,0-0.156,0c0-0.157-0.157-0.313-0.313-0.313
	c-0.155,0-0.155,0.157-0.155,0.313l-0.156-0.157h-0.157l0,0h-0.156h-0.157l0,0c0,0,0,0-0.155,0c0,0,0,0-0.156,0h-0.156
	c0,0,0-0.157-0.157-0.157c0,0,0,0-0.155,0c0,0,0-0.156-0.156-0.156c-0.157,0-0.157,0.156-0.313,0.313l0,0
	c0-0.313,0-0.626-0.155-0.626l0,0c-0.157-0.156-0.47-0.47-0.627,0.157c0,0.157-0.156,0.157-0.156,0.313l-0.156-0.156
	c0-0.157,0-0.313-0.157-0.313h-0.155c0,0,0,0-0.156,0c0,0,0,0-0.157,0l0,0c0,0-0.156,0-0.156,0.157l0,0c0-0.157,0-0.157,0-0.157
	s0,0-0.155,0l0,0c-0.157,0-0.47,0-0.313,0.157c0,0,0-0.157-0.156-0.157h-0.156c0-0.156,0-0.156-0.156-0.313
	c0-0.157-0.156,0-0.313,0.157l0,0c0-0.157,0-0.157,0-0.313v-0.156l0,0l0,0l0,0c0,0-0.157,0-0.472-0.157v0.157l0,0l0,0l0,0l0,0
	c0.157-0.313,0-0.626-0.155-0.626c0,0-0.156,0-0.156,0.157l0,0c-0.156,0-0.156,0.157-0.313,0.47c0-0.157-0.155-0.157-0.155-0.157
	s-0.157,0-0.157,0.157l0,0c0-0.313,0-0.626,0-0.626l0,0c0,0,0-0.156-0.156-0.156s-0.156,0-0.156,0.156l0,0l0,0
	c0-0.156,0-0.156-0.155-0.313l-0.157-0.157h-0.156c0-0.156-0.156-0.313-0.156-0.313s-0.157,0-0.157,0.157c0,0,0-0.157-0.155-0.157
	c0,0,0,0-0.156,0c0-0.313,0-0.626-0.157-0.626c-0.156,0-0.156,0.157-0.313,0.626l0,0c0-0.157-0.157-0.313-0.313-0.313l0,0V261
	c0.156-0.313,0-0.47-0.155-0.626c0.155-0.156-0.471,0-0.313,0.47c0,0,0,0,0,0.157c0,0,0,0-0.156,0l0,0c-0.157,0-0.157,0-0.313,0
	c0,0,0-0.157-0.156-0.157l0,0l0,0c0-0.156-0.156-0.156-0.156-0.156l0,0c0-0.157-0.157-0.313-0.157-0.313s-0.155,0-0.155,0.157
	c0-0.313-0.157-0.47-0.157-0.313c0,0-0.156,0-0.156,0.157c0-0.313-0.156-0.47-0.156-0.47s-0.155,0.156-0.155,0.47
	c-0.313,0.156-0.313,0.313-0.313,0.469c0,0,0,0-0.156,0l0,0c0,0,0,0-0.156,0.157c0,0,0,0-0.156,0l0,0c0,0-0.156,0-0.47,0
	c0-0.157-0.156-0.157-0.156-0.157l0,0c0-0.156-0.157-0.313-0.157-0.313c-0.156,0-0.156,0.313-0.313,0.626c0,0,0,0,0,0.156H758.6
	c0,0,0,0,0-0.156c0-0.157,0-0.47-0.156-0.47c-0.155,0-0.313,0.156-0.313,0.313v0.157h-0.156c0,0,0-0.157,0-0.313l0,0
	c0-0.156-0.156-0.156,0,0c-0.156,0-0.156,0.157-0.313,0.157h-0.155c0-0.157,0-0.313-0.156-0.313c-0.157,0-0.157,0-0.313,0.157
	c0-0.157,0-0.157-0.155-0.313c0-0.156-0.313,0-0.313,0.47c0,0,0,0,0,0.157l0,0l0,0c0-0.313,0-0.47-0.156-0.47
	c0,0-0.156,0-0.156,0.157c0,0,0-0.157-0.156-0.157v-0.157c0-0.156-0.156-0.313-0.156-0.313c-0.156,0-0.156,0.157-0.156,0.47
	c0-0.157-0.156-0.157-0.156-0.313l0,0c0-0.157,0-0.157-0.156-0.157c0,0-0.157,0-0.157,0.157c0-0.783,0-1.253-0.155-1.253
	c0,0-0.156,0-0.156,0.157c0-0.157,0-0.157-0.156-0.157c-0.157,0-0.157,0.47-0.157,1.253c0,0.156,0,0.156,0,0.156
	c0-0.156,0-0.313-0.155-0.313c-0.156,0-0.313,0.157-0.313,0.313c0-0.313,0-0.47-0.156-0.47c0,0,0,0-0.155,0
	c0-0.156-0.157-0.313-0.157-0.313c-0.156,0-0.156,0.157-0.313,0.47c0,0,0-0.157-0.156-0.157s-0.156,0.157-0.156,0.313
	c-0.156,0-0.156,0.156-0.313,0.47v0.156l0,0v-0.156c0-0.157,0-0.313,0-0.313c0-0.313-0.155-0.47-0.155-0.47
	s-0.156,0.157-0.156,0.313c0,0,0-0.157-0.157-0.157c0,0-0.156,0-0.156,0.157c0-0.313,0-0.47-0.155-0.47c0,0-0.156,0-0.156,0.156
	c-0.157,0-0.157,0.157-0.157,0.313c0,0,0,0-0.156,0l-0.157,0.156c0-0.313-0.155-0.47-0.155-0.47c0-0.156-0.156-0.156-0.156-0.156
	c-0.156,0-0.156,0.313-0.156,0.626c0-0.156-0.157-0.156-0.157-0.156s-0.155,0-0.155,0.156c-0.156-0.313-0.156-0.47-0.313-0.47
	c0,0-0.156,0.157-0.156,0.313c0-0.157-0.155-0.157-0.155-0.157l-0.157,0.157c0-0.313-0.156-0.626-0.313-0.626l-0.157,0.157
	c-0.156,0-0.313-0.157-0.313,0l0,0c0-0.157,0-0.157,0-0.157v-0.157h-0.156c0-0.47-0.156-0.783-0.156-0.783s-0.156,0.157-0.156,0.47
	l0,0l0,0c0.156-0.313-0.157-0.157-0.313,0.157l0,0c0,0,0-0.157-0.156-0.157l0,0c0-0.157,0-0.313,0-0.47
	c0-0.626-0.157-1.252-0.157-1.252s-0.156,0-0.156,0.156l0,0c-0.155,0-0.313,0.626-0.313,1.566c0,0.313,0,0.47,0,0.783
	c0-0.156-0.156-0.47-0.156-0.783c-0.313-0.157-0.47,0-0.47,0.157c0,0,0,0-0.156,0.156l-0.157-0.156c0,0.156,0,0.156,0,0.313v0.157
	c0,0,0,0-0.155,0l0,0c0-0.157,0-0.313-0.156-0.313c0,0-0.156,0.157-0.156,0.313l0,0c0,0,0,0-0.157,0
	c0-0.157-0.155-0.313-0.155-0.313s-0.156,0.157-0.156,0.47l-0.157-0.156c0,0,0,0-0.156,0.156l0,0c0-0.313-0.155-0.47-0.313-0.47
	c-0.156,0-0.156,0.157-0.156,0.47v-0.156l0,0c0-0.783-0.156-1.253-0.156-1.253c-0.157,0-0.157,0.626-0.313,1.409
	c-0.156,0,0,0,0,0.157l0,0l0,0l0,0c-0.156-0.313-0.156-0.47-0.313-0.47c0,0,0,0-0.156,0.157l0,0l-0.155,0.156c0,0,0,0-0.157,0
	c-0.313-0.313-0.313,0-0.313,0.313l0,0c0,0.156,0,0.156,0,0.156l0,0c0-0.156-0.157-0.313-0.313-0.313l0,0h-0.156h-0.157l0,0l0,0
	v-0.157c0.157-0.626,0-0.626-0.155-0.313l0,0c0-0.313,0-0.47-0.156-0.47c0,0,0,0.157-0.156,0.313c0-0.156-0.157-0.156-0.157-0.156
	s0,0-0.155,0.156c0-0.156,0-0.156-0.157-0.156l0,0c0-0.626,0-1.096-0.156-1.096s-0.313,0.47-0.313,0.939c0,0.157,0,0.313,0,0.47
	c0,0-0.157,0-0.157,0.157c0-0.313-0.156-0.47-0.313-0.47l-0.155,0.156c0-0.156-0.156-0.156-0.156-0.156s0,0-0.156,0.156l0,0l0,0
	c0-0.156-0.157-0.156-0.157-0.156l-0.155,0.156c0-0.156-0.156-0.156-0.156-0.156s-0.157,0-0.157,0.156
	c0-0.156-0.156-0.313-0.156-0.313c0-0.47,0-0.783-0.155-0.939c-0.157,0-0.157,0.313-0.313,0.783c0,0,0,0,0,0.157l0,0
	c0,0-0.156,0-0.156-0.157c0-0.156-0.156-0.156-0.156-0.156s-0.156,0-0.156,0.156c0-0.313-0.156-0.47-0.313-0.47l0,0l0,0
	c-0.156,0-0.156,0.157-0.156,0.313h-0.156l0,0c0-0.313-0.157-0.47-0.157-0.47l0,0c-0.155,0-0.155,0-0.313,0.313
	c-0.157,0-0.157,0-0.157-0.157l0,0c0,0,0-0.156-0.156-0.156l0,0l-0.156-0.157c0,0-0.156,0-0.156,0.157
	c0-0.313-0.156-0.626-0.313-0.626c0,0-0.155,0.157-0.155,0.313l0,0c-0.157,0-0.313,0.313-0.313,0.783c0-0.157,0-0.313-0.157-0.313
	c-0.156,0-0.313,0.313-0.313,0.626h-0.156v-0.157c0-0.47,0-0.939-0.157-0.939c0,0,0,0-0.155,0c0,0,0-0.156-0.156-0.156
	c-0.157,0-0.313,0.313-0.313,0.783c0,0.157,0,0.157,0,0.157c-0.155,0-0.155,0-0.313,0v-0.157c0.157-0.47,0.157-0.783,0-0.783h-0.156
	c0,0,0-0.157-0.156,0c-0.157,0-0.157,0.156-0.157,0.47l-0.155-0.157l0,0c0-0.313-0.156-0.626-0.156-0.626s-0.157,0.157-0.157,0.313
	c-0.156,0.156-0.156,0.47-0.156,0.783c0,0,0,0,0,0.157l0,0v-0.157c0-0.47,0-0.783-0.155-0.783c0,0-0.157,0-0.157,0.156
	c0-0.156,0-0.313-0.156-0.47c0,0-0.156,0.157-0.156,0.313c0,0-0.156,0-0.156,0.156c0-0.156,0-0.313-0.156-0.313
	c0,0-0.156,0-0.156,0.157l0,0c-0.156,0-0.156,0.313-0.313,0.626c0-0.47,0-0.939-0.156-0.939s-0.156,0.313-0.313,0.939
	c0-0.313-0.156-0.626-0.156-0.626s-0.157,0-0.157,0.156c0-0.156,0-0.313-0.156-0.313c-0.155,0-0.155,0.157-0.313,0.626l0,0h-0.157
	l0,0c0,0,0,0-0.156,0c0-0.157,0-0.313-0.156-0.313c0,0-0.156,0-0.156,0.157c0-0.157,0-0.313-0.156-0.157
	c-0.156,0-0.156,0.157-0.313,0.47c0,0,0,0-0.156,0.157c0-0.47,0-0.783-0.156-0.783l0,0c0-0.157,0-0.157-0.157-0.157
	c0,0-0.155,0-0.155,0.157c0-0.157-0.156-0.47-0.156-0.47c-0.157,0-0.157,0.157-0.313,0.47l0,0c0-0.157,0-0.157-0.155-0.157
	c-0.157,0-0.157,0.157-0.157,0.313c0-0.156,0-0.313-0.156-0.313s-0.313,0.157-0.313,0.47c0,0-0.155,0-0.155,0.157
	c0,0,0-0.157-0.156-0.157l0,0h-0.157c0,0-0.156,0-0.156,0.157l-0.155-0.157h-0.156l0,0c0,0,0,0-0.157,0c0,0,0-0.157-0.156-0.157
	h-0.156l-0.156-0.156c0,0-0.156,0-0.156,0.156l0,0c0,0,0,0-0.156,0l0,0c0-0.156-0.156-0.313-0.156-0.313s-0.156,0-0.156,0.157
	c0,0-0.157,0-0.157-0.157c0,0-0.155,0-0.155,0.157c-0.313-0.157-0.627-0.157-0.939-0.313c-0.782-0.157-1.565-0.157-2.35-0.157
	l-0.155-0.157c0,0-0.156,0-0.156,0.157c0,0,0,0-0.157,0c-0.156,0-0.313-0.157-0.313-0.157c0-0.156,0-0.313-0.156-0.313
	c-0.157,0-0.157,0.157-0.313,0.313h-0.157c0,0,0-0.156-0.156-0.156h-0.156c0,0,0,0,0-0.157c0-0.157,0-0.47-0.155-0.47
	c-0.157,0-0.157,0.157-0.313,0.313l0,0l0,0c0-0.156,0-0.47-0.157-0.47c-0.156,0-0.156,0.157-0.313,0.313l0,0c0,0,0,0-0.156,0l0,0
	h-0.157c0-0.157-0.155-0.157-0.155-0.157s-0.156,0-0.156,0.157l0,0c0-0.157-0.157-0.313-0.157-0.313l-0.156,0.157l-0.155-0.157l0,0
	c0-0.156-0.157-0.156-0.157-0.156c-0.156,0-0.156,0.156-0.156,0.313l-0.156,0.157c-0.47-0.313-1.097-0.313-1.564,0l0,0
	c0,0-0.157,0-0.157,0.156c-0.156,0.157-0.313,0.313-0.313,0.47h-0.156c0,0-0.156,0-0.156,0.157c0-0.157,0-0.313-0.156-0.313
	s-0.156,0.156-0.313,0.626c0-0.157-0.157-0.157-0.157-0.157c0-0.156-0.156-0.313-0.156-0.313c-0.155,0-0.155,0.157-0.313,0.47
	c0,0,0,0-0.157,0l0,0l0,0c0,0,0,0-0.156,0c0-0.157,0-0.313-0.156-0.313c0,0-0.156,0-0.156,0.156l0,0c0,0-0.156,0-0.156,0.157
	c0-0.157-0.156-0.157-0.156-0.157c-0.156,0-0.156,0.313-0.156,0.47v-0.156l0,0c0,0,0,0-0.156,0c0-0.157,0-0.157-0.156-0.313
	c0,0-0.157,0-0.157,0.157c0-0.157-0.155-0.313-0.155-0.157c-0.156,0-0.156,0.313-0.156,0.47l0,0c0-0.156,0-0.313,0-0.313
	s-0.157,0-0.313,0.157c0-0.313-0.155-0.47-0.155-0.47s-0.157,0-0.157,0.157l0,0c-0.156,0-0.156,0.156-0.313,0.626c0,0,0,0-0.156,0
	l0,0c0.156-0.47,0.156-0.783,0-0.783c0,0-0.156,0-0.156,0.157c0,0,0-0.157-0.156-0.157c-0.157,0-0.157,0.157-0.157,0.313
	c-0.155-0.313-0.313-0.626-0.469-0.47v0.157c0-0.157,0-0.313-0.157-0.313c0,0-0.156,0.156-0.313,0.47l0,0c0,0,0-0.157,0-0.313
	c0-0.156,0-0.47-0.156-0.47l-0.156-0.156l0,0c-0.156-0.157-0.156-0.157-0.313-0.157c0,0,0,0.157,0,0.313l0,0l0,0
	c0-0.156,0-0.156-0.156-0.156v-0.157c0-0.313-0.157-0.626-0.313-0.626c0,0,0,0-0.156,0.157c0-0.157-0.156-0.313-0.156-0.313
	s-0.157,0-0.157,0.156c0-0.156-0.155-0.313-0.155-0.313c-0.156,0-0.156,0.157-0.156,0.47c0-0.157,0-0.157,0-0.157
	c0-0.47,0-0.783-0.157-0.783c-0.156,0-0.156,0.313-0.313,0.783c0-0.156-0.156-0.313-0.156-0.313c-0.156,0-0.156,0.47-0.156,0.939
	l0,0l0,0l0,0c0,0,0,0-0.156,0c-0.313,0-0.627,0-0.783,0.157c0,0,0,0-0.155,0c0,0-0.157,0-0.157,0.156l0,0
	c0-0.156-0.156-0.156-0.156-0.156c-0.156,0-0.156,0.156-0.313,0.47l0,0c0-0.157-0.157-0.313-0.157-0.313
	c-0.156,0-0.156,0.157-0.156,0.313l0,0l0,0c0-0.313-0.157-0.47-0.157-0.47l0,0c0-0.157,0-0.157-0.155-0.157c0,0-0.156,0-0.156,0.157
	c0,0,0-0.157-0.156-0.157c0,0-0.157,0-0.157,0.157c0-0.157-0.155-0.313-0.155-0.313s0,0-0.157,0.157
	c0-0.157-0.156-0.157-0.156-0.157l0,0c0-0.313,0-0.47,0-0.47s-0.156,0-0.156,0.157c0-0.157,0-0.313,0-0.313
	c-0.155,0-0.313,0.313-0.47,0.783c0,0,0,0-0.156,0c0,0-0.156,0-0.156,0.157c0-0.157-0.156-0.157-0.156-0.157l0,0
	c0-0.313-0.156-0.47-0.313-0.47l0,0c-0.155-0.157-0.155-0.157-0.155,0c0,0.157,0,0.157-0.156,0.313l-0.157-0.156
	c0-0.157,0-0.313-0.156-0.313l0,0c0-0.313,0-0.469-0.155-0.469c0,0-0.157,0-0.157,0.156c0-0.156-0.156-0.313-0.156-0.313
	s-0.156,0-0.156,0.157c0,0,0,0-0.156,0c0,0-0.156,0-0.156,0.156c0-0.156-0.156-0.156-0.156-0.156l0,0v-0.157
	c0-0.157-0.156-0.313-0.156-0.313s-0.156,0-0.156,0.156l-0.156-0.156c0,0,0,0,0-0.157v-0.157l0,0c0-0.313-0.157-0.47-0.313-0.47
	c-0.155,0-0.155,0.157-0.155,0.313l0,0c0-0.313,0-0.47-0.156-0.47c0,0,0,0-0.157,0c0-0.47,0-0.783-0.156-0.783
	s-0.156,0.313-0.313,0.783l0,0l0,0c0-0.157,0-0.157-0.156-0.157c0-0.47,0-0.783-0.156-0.783s-0.313,0.47-0.313,1.096
	c0-0.156-0.156-0.313-0.156-0.313s-0.157,0-0.157,0.157c0,0,0,0-0.155,0c0,0-0.156,0-0.156,0.156l0,0c0-0.313,0-0.47-0.157-0.47
	c0,0-0.156,0-0.156,0.157c0-0.157-0.155-0.313-0.313-0.313c0,0-0.156,0.156-0.156,0.313l0,0c0-0.157-0.156-0.157-0.156-0.157l0,0
	c0-0.156-0.156-0.313-0.156-0.313s0,0-0.156,0c0,0,0,0-0.156,0c0,0-0.157,0-0.157,0.157l0,0l0,0c0-0.157,0-0.313-0.155-0.313
	c-0.156,0-0.313,0.313-0.313,0.47l0,0l0,0c0-0.156-0.156-0.47-0.156-0.47c0-0.156-0.155-0.313-0.155-0.313s-0.157,0-0.157,0.157l0,0
	c-0.156,0-0.313,0.156-0.313,0.47l0,0c0-0.157-0.155-0.47-0.313-0.47l-0.156,0.156c0-0.156-0.157-0.313-0.157-0.156
	c-0.155,0-0.313,0.156-0.313,0.313l0,0c0,0,0,0-0.156,0h-0.157c0,0,0,0,0-0.157c0-0.156-0.47,0-1.096,0.157l0,0
	c-0.156,0-0.156,0-0.313,0.157c0-0.157-0.156-0.313-0.156-0.313c-0.156,0-0.156,0.157-0.156,0.313l0,0
	c-0.157,0-0.313,0.156-0.313,0.313l0,0c0,0,0,0-0.156,0l0,0c0.156-0.313,0.313-0.626,0.156-0.626c0,0-0.156,0-0.313,0.157l0,0
	c-0.156,0-0.156,0.157-0.313,0.313l0,0l-0.156,0.157c0-0.313,0-0.47-0.156-0.47c0,0-0.156,0.157-0.313,0.313l0,0
	c-0.156,0-0.156,0.157-0.313,0.47c0-0.156,0-0.313-0.157-0.313l0,0c0-0.313,0-0.47-0.156-0.47c-0.155,0-0.313,0.47-0.313,1.096
	c0-0.313,0-0.47-0.156-0.47s-0.313,0.47-0.313,0.939l0,0l0,0c0-0.157,0-0.313,0-0.313c-0.156,0-0.313,0.313-0.471,0.626
	l-0.155,0.157c-0.313,0.313-0.47,0.626-0.47,0.939c0,0.156-0.156,0.313-0.156,0.47c0-0.157,0-0.313-0.157-0.313
	c-0.156,0-0.313,0.313-0.313,0.783c0-0.313,0-0.626-0.155-0.626c-0.157,0-0.157,0.157-0.313,0.47l0,0l-0.156,0.157l0,0
	c0,0-0.156,0-0.156,0.156c0,0,0-0.156-0.156-0.156l0,0c0,0,0-0.157-0.156-0.157c0,0-0.156,0-0.156,0.157c0,0,0,0-0.156,0l0,0
	c0-0.157,0-0.157,0-0.157c-0.156,0-0.156,0-0.313,0.313c0-0.157,0-0.313-0.155-0.313c0,0-0.156,0-0.156,0.157c0,0,0,0-0.157,0
	c-0.156,0-0.313,0.313-0.313,0.783l0,0l0,0v-0.157c0-0.157-0.156-0.313-0.156-0.313c0-0.313,0-0.47,0-0.47s-0.156,0.157-0.313,0.47
	c0,0,0,0-0.157,0c-0.155,0-0.155,0.156-0.313,0.47c0-0.157,0-0.157-0.157-0.157h-0.155h-0.156l0,0c0-0.313,0-0.47-0.157-0.47
	c-0.156,0-0.313,0.313-0.313,0.626l0,0c0,0,0,0.156-0.156,0.313l0,0c0,0,0-0.157-0.156-0.157c0-0.156-0.156-0.156-0.156,0
	c0-0.156,0-0.156-0.156-0.313c-0.156,0-0.313,0.157-0.313,0.313c0,0,0-0.156-0.157-0.156c0,0,0,0-0.156,0
	c0-0.157-0.155-0.313-0.155-0.313s-0.156,0.157-0.156,0.313c0-0.157-0.157-0.157-0.157-0.313c0,0-0.156,0-0.156,0.157l-0.156-0.157
	l-0.156,0.157c-0.313-0.157-0.626-0.47-1.096-0.626c0,0,0,0-0.156,0c-0.157,0-0.313,0-0.47-0.156c0-0.313,0-0.157-0.157,0
	c-0.156,0-0.156,0-0.313,0c0-0.157,0-0.157-0.157,0c0,0,0,0-0.156,0l0,0c-0.156-0.157,0.47-0.157-0.47-0.313v0.156
	c-0.313,0-0.626,0-0.939,0c-0.313,0-0.626,0-0.783,0.157h-0.155c0-0.157,0-0.157-0.156,0l0,0l0,0c0-0.157,0-0.157,0-0.313
	c0,0,0-0.157,0-0.313c-0.627-0.156-0.47,0-0.47,0.157l0,0h-0.157c0-0.157,0-0.47,0-0.47s-0.156,0-0.313,0.313
	c0-0.156,0-0.313-0.155-0.313c-0.157,0-0.157,0.157-0.157,0.313c0,0-0.156,0-0.156,0.157c0,0-0.157,0-0.157-0.157
	c0-0.156,0-0.156,0-0.313c0-0.157,0-0.157-0.155-0.157c0,0-0.156,0.157-0.156,0.313c-0.156,0-0.313,0-0.313-0.157
	c0-0.313,0-0.47-0.155-0.47c0,0-0.156,0-0.156,0.157c0-0.157,0-0.313-0.157-0.313c-0.156,0-0.156,0.157-0.313,0.47c0,0,0,0-0.157,0
	l0,0l0,0l0,0l0,0c0-0.313,0-0.626-0.156-0.626c0,0-0.156,0-0.313,0.313l0,0c0,0.157-0.156,0.157-0.156,0.313c0,0,0,0-0.156,0l0,0
	c0-0.313,0-0.47-0.157-0.47h-0.155c0-0.156-0.156-0.156-0.156-0.156s-0.157,0-0.157,0.156l-0.156-0.156c0,0-0.155,0.156-0.155,0.313
	c0-0.157-0.157-0.313-0.157-0.313s0,0-0.156,0c0,0,0-0.157-0.156-0.157s-0.313,0.313-0.313,0.626c0-0.157,0-0.313,0-0.313
	c0-0.313,0-0.626-0.156-0.626l-0.157,0.156c0-0.313,0-0.47-0.155-0.47l0,0c0,0,0-0.156-0.156-0.156c-0.157,0-0.313,0.47-0.313,0.939
	c0,0.156,0,0.156,0,0.313c0-0.157,0-0.157-0.155-0.157c0,0-0.156,0-0.156,0.313c0-0.157,0-0.313-0.157-0.313
	c-0.156,0-0.313,0.313-0.313,0.783v0.156l0,0c-0.156,0-0.156,0.157-0.313,0.47c0.156-0.626,0-1.252,0-1.252
	c-0.156,0-0.156,0.313-0.313,0.626l0,0c0,0,0,0-0.156,0c0,0,0-0.157-0.157-0.157c0,0-0.156,0-0.156,0.157
	c0-0.157,0-0.313-0.155-0.313c0,0,0,0-0.156,0c0-0.156,0-0.313-0.157-0.313c-0.156,0-0.156,0.157-0.313,0.626
	c0-0.157,0-0.157-0.157-0.157c-0.156,0-0.313,0.313-0.313,0.783c-0.156,0-0.156,0.313-0.156,0.47c0-0.157,0-0.157-0.156-0.157
	c0,0-0.156,0-0.156,0.157c-0.47,0-0.939,0-1.409,0c0-0.313-0.157-0.47-0.157-0.47c-0.155,0-0.155,0.157-0.313,0.47
	c-0.157,0-0.313,0-0.47,0l0,0c0-0.313-0.156-0.626-0.156-0.626l0,0v-0.157l0,0c0-0.157,0-0.313-0.157-0.157c0,0,0,0-0.156,0h-0.156
	c-0.156-0.313-0.156-0.157-0.156,0.157l0,0l0,0l0,0c0,0-0.156,0-0.313,0c-0.157,0,0.313-0.157-0.313-0.157h-0.157
	c-0.156-0.157,0.157-0.47-0.156-0.626l0,0c0,0,0,0-0.155,0h-0.156c0,0,0,0,0,0.156c-0.157,0-0.157,0.157,0,0.157
	c0-0.157-0.157-0.157-0.157-0.157c-0.156,0-0.156,0.313-0.156,0.783l0,0c0,0,0,0-0.155,0l0,0l0,0l0,0v-0.157
	c0-0.47,0-0.783-0.157-0.783c-0.156,0-0.156,0.156-0.156,0.313l0,0l0,0l0,0c0-0.47,0-0.783-0.156-0.939
	c-0.156,0-0.313,0.313-0.313,0.783l0,0c0-0.156,0-0.156-0.156-0.156c0,0,0,0-0.156,0l0,0c0-0.313-0.156-0.626-0.156-0.626
	c-0.156,0-0.156,0.313-0.313,0.626c0-0.157-0.155-0.313-0.155-0.313s0,0-0.156,0c0-0.313,0-0.47-0.157-0.47
	c-0.156,0-0.156,0.157-0.313,0.47c0-0.156-0.156-0.313-0.156-0.47c0,0-0.156,0-0.156,0.157c0-0.313-0.156-0.626-0.156-0.626
	s-0.156,0.157-0.156,0.313l0,0c-0.156,0-0.156,0.156-0.156,0.313c0-0.313,0-0.47-0.156-0.47c0-0.313-0.157-0.47-0.157-0.47
	l-0.155,0.157c0,0,0-0.157-0.156-0.157c0,0,0,0-0.157,0c0-0.313-0.156-0.626-0.156-0.626c-0.155,0-0.313,0.47-0.313,1.096v0.157
	h-0.157c0,0,0,0-0.156,0l0,0v-0.157c0.156-0.157,0.156-0.313,0-0.313c0,0,0.156-0.157-0.156-0.157c0-0.157,0-0.157-0.156-0.157l0,0
	c0-0.156,0-0.313-0.156-0.313c0-0.313,0-0.626,0-0.626c-0.156,0-0.156,0.157-0.313,0.47h-0.156c0-0.47,0-0.783-0.157-0.783
	c-0.156,0-0.156,0.157-0.313,0.626c0-0.157,0-0.313-0.155-0.313c-0.157,0-0.157,0.157-0.313,0.313c0-0.157,0-0.313-0.156-0.313l0,0
	c0-0.156,0-0.156-0.156-0.156c0,0-0.156,0-0.156,0.156c0-0.156,0-0.156-0.156-0.156c0,0-0.156,0.156-0.313,0.313
	c0,0,0-0.157-0.156-0.157c0,0-0.157,0-0.157,0.157l0,0c-0.155,0-0.313,0-0.47,0h-0.156c0-0.157-0.156-0.313-0.156-0.313s0,0-0.156,0
	c0,0,0,0-0.156,0c0,0-0.156,0-0.156,0.156c0-0.156-0.156-0.313-0.156-0.313s-0.156,0-0.156,0.157l0,0l0,0c0,0,0,0-0.156,0
	c0,0,0,0,0,0.156c0,0.157-0.157,0.313-0.157,0.47l0,0h-0.155l0,0c0.155-0.47,0.155-0.783,0-0.939c0,0,0,0-0.156,0
	c0-0.157,0-0.313,0-0.313c-0.156,0-0.313,0.313-0.471,0.783h-0.156c0.156-0.469,0.156-0.939-0.156-0.783
	c-0.156,0-0.156,0-0.156,0.157l0,0c0-0.157,0-0.313,0-0.313l0,0c0,0,0,0-0.156,0h-0.156c-0.156-0.157-0.156-0.157-0.156,0
	c0,0,0,0,0-0.157l0,0c0-0.313-0.157-0.47-0.313-0.47c0,0,0,0-0.156,0.157c0-0.313-0.156-0.47-0.156-0.47s-0.157,0.156-0.157,0.313
	l0,0c0,0,0,0-0.155,0.157c0-0.313,0-0.47-0.156-0.47c0,0-0.157,0-0.157,0.156l0,0c0-0.156-0.156-0.156-0.156-0.156l0,0
	c0-0.313-0.155-0.626-0.313-0.626c0,0-0.156,0.157-0.156,0.313c0-0.157-0.156-0.313-0.156-0.313c-0.157,0-0.157,0.157-0.157,0.47
	c0,0,0,0,0,0.157V540h626.27V240.174C1272.826,240.174,1272.67,240.174,1272.514,240.017z"/>
</svg>
