<?xml version="1.0" encoding="utf-8"?>
<!-- Generator: Adobe Illustrator 16.0.0, SVG Export Plug-In . SVG Version: 6.00 Build 0)  -->
<!DOCTYPE svg PUBLIC "-//W3C//DTD SVG 1.1//EN" "http://www.w3.org/Graphics/SVG/1.1/DTD/svg11.dtd">
<svg version="1.1" id="Layer_1" xmlns="http://www.w3.org/2000/svg" xmlns:xlink="http://www.w3.org/1999/xlink" x="0px" y="0px"
	 width="1920px" height="540px" viewBox="0 0 1920 540" enable-background="new 0 0 1920 540" xml:space="preserve">
<path fill="#142D51" d="M1235.711,138.563c-1.565-0.939-3.287-1.723-4.697-2.818c-1.252-0.626,0-1.096-3.286-1.879l-2.351,1.409
	c-3.287,1.565-7.201,0-10.332-2.505c-3.289-2.349-6.264-5.637-10.49-7.829c-2.034-1.096-4.854-1.722-7.358-0.783
	c-0.939,0.156-1.564,0.783-2.349,1.252c-0.313-0.626-0.938-1.252-0.782-1.566c-0.939-2.192-2.191-4.227-3.131-6.419
	c-0.472-1.096-0.939-2.192-1.255-3.288l-0.469-1.722l-0.156-0.47c-0.938-0.157,2.191,0.157-2.192-0.313v0.156l-0.154,0.157
	l-0.471,0.783c-1.096,2.036-2.818,3.915-4.07,6.263c-0.471,0.626-0.627,1.253-0.938,1.879l-0.156-0.156
	c-1.408-2.192-2.818-4.384-4.385-6.576l-2.189-3.131l-0.313-0.47l-0.156-0.156c-4.383,0-1.252,0.156-2.348,0.156l-0.472,0.783
	c-0.313,0.47-0.627,0.939-1.098,1.409c-3.287,3.915-7.982,6.732-11.428,11.586c-3.289,5.01-3.914,10.96-6.105,15.813
	c-2.035,4.854-6.731,8.611-10.961,12.212c-4.539,3.444-9.551,6.889-15.029,8.298c-1.252,0.313-2.662,0.47-3.602,0.157
	c-4.697,1.409-2.506,2.818-4.229,4.227c-1.408,2.818-2.504,5.793-3.602,8.611l-1.408,4.227l-1.098-0.626
	c-2.66-1.566-5.479-2.975-7.982-4.697c-5.324-3.288-10.49-7.045-15.502-11.116c-10.02-7.985-19.414-17.379-26.93-28.338l-0.313-0.47
	l-0.156-0.157c2.035,0.313-2.815-0.47-2.348-0.313l-0.313,0.157l-0.938,0.939l-1.879,1.723l-3.603,3.601
	c-2.35,2.348-4.854,4.854-7.356,7.045c-5.013,4.541-10.49,8.141-17.226,9.394c-3.287,0.783-6.889,1.409-10.334,2.662
	c-1.721,0.47-3.442,1.409-5.01,2.192l-1.723,1.096l0,0c-0.469-0.783-0.781-1.409-0.939-1.878c0.314,0,0.158,0,0,0l0,0l-0.156-0.939
	c0.627,0.156-5.479-1.722-2.975-0.939l-0.156,0.156l-0.156,0.313l-0.313,0.626c-0.939,1.566-1.879,3.131-2.662,4.697
	c-1.563,3.288-2.818,6.732-3.914,10.177l-0.783,2.662l-0.155,0.47c-1.408-0.313-2.66-0.626-3.914-1.252
	c-3.134-1.252-5.949-2.975-8.455-5.323c-8.453-1.409-13.463-1.722-19.57-5.793c-1.408-0.783-2.817-1.722-4.069-2.818
	c-0.628-0.47-1.097-1.096-1.724-1.566c-2.974-1.878-2.19-0.626-3.442-1.096c-3.134-0.157-5.95-1.879-8.77-3.601
	c-1.41-0.939-2.662-2.035-4.071-2.975l-0.313-0.157c1.879-0.157-2.661,0-2.191,0.157l-0.155,0.156l-0.472,0.47l-0.938,0.939
	l-1.878,1.722c-2.351,2.349-4.854,4.697-7.359,6.576c-5.01,4.07-11.116,7.045-17.222,8.141c-6.265,0.939-12.995,0.157-19.729,2.349
	c-1.723,0.313-3.132,1.566-4.695,2.349l-1.881,1.722c-2.19-2.349-5.01-4.071-7.983-5.167c-6.419-2.192-12.839-2.035-18.787-2.818
	c-11.743-1.252-22.076-9.551-33.819-11.743c-5.636-1.879-11.742-2.349-16.281-4.854c-4.541-2.035-10.179-7.358-16.438-4.697
	c-14.719,18.162-36.168,20.197-54.016,25.208c-35.541,11.899-64.037,21.919-84.393,26.93c-3.443,0.939-6.419,1.722-9.394,2.348V540
	h626.269V150.931c-0.471-0.157-0.938-0.313-1.41-0.626C1262.326,145.921,1249.176,144.042,1235.711,138.563z"/>
</svg>
