<?xml version="1.0" encoding="utf-8"?>
<!-- Generator: Adobe Illustrator 16.0.0, SVG Export Plug-In . SVG Version: 6.00 Build 0)  -->
<!DOCTYPE svg PUBLIC "-//W3C//DTD SVG 1.1//EN" "http://www.w3.org/Graphics/SVG/1.1/DTD/svg11.dtd">
<svg version="1.1" id="Layer_1" xmlns="http://www.w3.org/2000/svg" xmlns:xlink="http://www.w3.org/1999/xlink" x="0px" y="0px"
	 width="1920px" height="540px" viewBox="0 0 1920 540" enable-background="new 0 0 1920 540" xml:space="preserve">
<path fill="#7CA7E5" d="M1269.853,305.775c0-1.252-0.313-2.191-0.783-2.191c-0.313,0-0.626,0.47-0.782,1.252
	c-0.157,0-0.313,0-0.47,0.157l0,0c0-0.157,0-0.157,0-0.313l0,0c0.156,0,0.313-0.313,0.47-0.782c0.156-0.471,0-0.939-0.157-1.097
	c-0.156,0-0.47,0.313-0.626,0.783c0,0.156,0,0.313,0,0.313h-0.155c-0.157,0-0.313,0.313-0.313,0.627c-0.157,0-0.47,0.155-0.47,0.47
	c-0.156-0.157-0.313-0.313-0.471-0.313c0,0,0,0-0.155,0c0,0,0,0-0.157,0c-0.156,0-0.47,0.313-0.47,0.626
	c0,0.157,0,0.313,0.157,0.471l0,0h-0.157c0,0,0-0.156-0.156-0.156c0-0.47-0.313-0.939-0.47-0.939c-0.157,0-0.313,0.471-0.156,1.097
	c0.156,0.157,0.156,0.313,0.313,0.47c0,0.157-0.155,0.313-0.155,0.47h-0.156c0-0.155-0.156-0.47-0.156-0.626
	c0.156-0.626,0-1.096-0.157-1.253c-0.155-0.156-0.47,0.47-0.625,1.253l-0.156-0.156c-0.157-0.156-0.471,0.313-0.471,0.782v0.157l0,0
	c0-0.157,0-0.313-0.156-0.313c0-0.156-0.156-0.471-0.313-0.626c-0.157-0.157-0.471,0.313-0.313,0.938
	c0,0.156,0.155,0.156,0.313,0.313c-0.157,0-0.313,0-0.313,0.156v-0.156c0-0.156-0.157-0.471-0.47-0.471
	c-0.156-0.155-0.471,0.313-0.313,0.783l0,0c-0.313,0.156-0.47,0.156-0.782,0.156c0-0.313-0.313-0.47-0.47-0.47s-0.157,0-0.157,0.156
	c0-0.156-0.156-0.156-0.156-0.156c-0.155,0-0.313,0.313-0.47,0.782c-0.155,0-0.155,0-0.313-0.155l-0.156-0.157
	c-0.156-0.156-0.313-0.313-0.783-0.47c-0.626-0.156-0.313,0-0.469-0.627c-0.471-0.155-0.783-0.313-0.938-0.155
	c0-0.471-0.627-0.939-0.939-0.783l0,0c0,0,0,0-0.157,0.156l0,0c-0.155,0.156-0.47,0.627,0.157,0.627v0.155
	c-0.313,0-0.471-0.155-0.783-0.155c0,0,0.156,0,0.156-0.471c0-0.47,0-0.938-0.313-0.938c-0.157,0-0.313,0.156-0.471,0.626
	c-0.156,0-0.156,0-0.313,0.156c0-0.626-0.156-1.097-0.313-1.097c-0.155,0-0.47,0.626-0.47,1.409c0,0.156,0,0.156,0,0.313h-0.156
	c0-0.157,0-0.471,0-0.627c-0.156-0.782-0.313-1.252-0.626-1.252c-0.157,0-0.313,0.626-0.157,1.408c0,0.156,0,0.313,0.157,0.471
	c-0.313,0-0.626,0.155-0.938,0.155c-0.157,0-0.313-0.155-0.626,0l0,0c-0.157,0-0.157,0-0.313,0c0,0,0,0.156-0.156,0.156
	c0-0.156,0-0.313-0.156-0.313c-0.156-0.157-0.626,0.47-0.626,1.096c0,0,0,0,0,0.156v-0.156c-0.157-0.626-0.313-1.096-0.626-1.096
	c-0.157,0-0.313,0.626-0.157,1.409l0,0c-0.156,0-0.313,0-0.626-0.157c0-0.156,0-0.313,0-0.313c0-0.157-0.156-0.313-0.47-0.313
	c0.155-0.626,0-0.939,0-0.939c-0.156,0-0.47,0.626-0.783,1.409l0,0c0-0.626-0.156-1.253-0.313-1.253
	c-0.156,0.157-0.627,0.627-0.313,1.097c-0.156,0-0.313,0-0.626,0c0-0.47-0.157-0.938-0.313-0.938c-0.155,0-0.313,0.313-0.47,0.938
	c-0.313,0-0.47,0-0.782,0c-0.156-0.157-0.156-0.313-0.313-0.313c-0.157,0-0.313,0.155-0.313,0.313c-0.156,0-0.156,0-0.313,0
	c-0.157-0.47-0.313-0.783-0.471-0.783c-0.156,0-0.313,0.313-0.313,0.783h-0.156c0,0,0,0-0.156,0
	c-0.156-0.157-0.313-0.157-0.471-0.157c0,0,0,0,0,0.157c-0.313,0-0.782,0-1.096,0.156c-0.156-0.156-0.156-0.156-0.313-0.156
	s-0.156,0.156-0.156,0.313h-0.157c0-0.156,0.157-0.313,0.157-0.471c0-0.47-0.157-0.781-0.313-0.781
	c-0.156,0-0.471,0.313-0.471,0.781c0,0.157,0,0.471,0,0.627c-0.626,0.156-1.252,0.156-1.879,0.313
	c-0.156-0.313-0.313-0.626-0.313-0.626c-0.157,0-0.157,0.313-0.313,0.782c0,0,0,0-0.156,0c0-0.156-0.156-0.313-0.156-0.313h-0.156
	c0-0.157-0.156-0.157-0.156-0.313c-0.157,0-0.47,0.313-0.47,0.783l0,0c0-0.471-0.157-0.783-0.313-0.783
	c-0.155,0-0.313,0.155-0.313,0.47c0-0.156-0.156-0.156-0.156-0.156s-0.156,0-0.156,0.156c0-0.156,0-0.313-0.156-0.313
	c-0.156-0.156-0.471,0.471-0.782,1.097c0,0.156,0,0.313,0,0.313s0,0-0.156,0c0-0.155,0-0.155,0-0.313
	c0-0.626-0.313-1.253-0.471-1.253c-0.156,0-0.313,0.626-0.313,1.409c0,0.155,0,0.313,0,0.47c0,0-0.155,0-0.155,0.156
	c0-0.156,0-0.313,0-0.471c0.155-0.626,0-1.252-0.157-1.252c-0.156,0-0.47,0.313-0.626,0.939c-0.156,0-0.313,0.313-0.313,0.626
	c0,0.156,0,0.313,0.157,0.47h-0.157c0,0,0,0,0-0.156c0-0.47-0.155-0.938-0.313-0.938l0,0c0-0.157-0.156-0.157-0.156-0.157
	c-0.156,0-0.313,0.313-0.313,0.627l0,0h-0.157c0-0.157-0.156-0.157-0.156-0.157c-0.157,0-0.47,0.313-0.47,0.783l0,0
	c0-0.156-0.156-0.313-0.156-0.47c-0.157,0-0.157,0-0.313,0.156c0-0.313-0.157-0.471-0.157-0.626c-0.156,0-0.313,0.155-0.469,0.313
	c-0.157,0-0.471,0.313-0.471,0.939c0,0,0,0,0,0.155c-0.156-0.313-0.47-0.626-0.627-0.47c0,0-0.155,0.156-0.155,0.313l0,0l0,0
	c0-0.313-0.156-0.627-0.313-0.783c-0.156,0-0.313,0.156-0.313,0.47c0-0.156-0.157-0.156-0.157-0.156c-0.156,0-0.156,0-0.313,0.313
	c0-0.156-0.156-0.313-0.313-0.313s-0.313,0.156-0.313,0.313c0-0.156-0.155-0.313-0.313-0.313s-0.313,0.313-0.47,0.782
	c-0.157,0-0.157,0-0.313,0l0.156-0.156c0-0.155-0.156-0.313-0.313-0.313c-0.156,0-0.156,0-0.313,0c0-0.313-0.156-0.47-0.313-0.47
	c-0.155,0-0.313,0.156-0.313,0.47c0-0.47-0.157-0.782-0.313-0.782c-0.155,0-0.313,0.47-0.313,1.096l-0.156-0.155
	c-0.156,0-0.156,0.155-0.313,0.155c0-0.47-0.156-0.938-0.313-0.938c0,0-0.157,0-0.157,0.156c0-0.156-0.155-0.156-0.155-0.156
	c-0.156,0-0.313,0.313-0.313,0.626c-0.156-0.313-0.156-0.47-0.313-0.47c-0.157,0-0.313,0.313-0.313,0.782c0,0,0,0.156-0.156,0.156
	c-0.313,0-0.782,0-1.097,0.157c0-0.627,0-1.253-0.156-1.253s-0.47,0.47-0.626,1.409l0,0c0,0,0,0-0.157,0
	c0-0.471-0.155-0.939-0.313-0.939s-0.47,0.47-0.47,1.096l0,0c-0.157,0-0.313,0-0.313,0c0-0.626-0.156-0.938-0.313-0.938
	c-0.157,0-0.313,0.313-0.313,0.783c0-0.156-0.157-0.156-0.157-0.156s0,0-0.155,0c0-0.313-0.156-0.47-0.313-0.47
	c-0.156,0-0.313,0.313-0.471,0.626c0-0.313-0.156-0.626-0.313-0.626c-0.157,0-0.156,0.155-0.313,0.313l-0.156-0.156
	c-0.157,0-0.157,0.156-0.313,0.471l0,0c-0.156,0-0.313,0.155-0.313,0.626c-0.156,0-0.156,0-0.313,0
	c-0.157-0.313-0.313-0.471-0.471-0.471c-0.156,0-0.155,0.157-0.155,0.313c-0.157-0.156-0.313-0.313-0.472-0.313
	c-0.155,0-0.155,0.157-0.155,0.157c0-0.313-0.156-0.627-0.47-0.627c-0.156,0-0.471,0.313-0.471,0.627c0,0.156,0,0.313,0.157,0.469
	c-0.157,0-0.313,0-0.47,0c0-0.626,0-1.096-0.157-1.096c0,0-0.156,0-0.156,0.157c-0.155-0.313-0.155-0.47-0.155-0.313
	c0.155-0.155-0.313,0.626-0.313,1.409c-0.313,0-0.47,0-0.783,0c0-0.157-0.155-0.157-0.155-0.313c0-0.471-0.156-0.782-0.313-0.782
	s-0.313,0.313-0.471,0.939c-0.156-0.157-0.313-0.313-0.313-0.313c-0.156,0-0.156,0.313-0.156,0.626c-0.156,0-0.156,0-0.313,0
	c0-0.156-0.157-0.156-0.157-0.156c-0.155,0-0.155,0-0.313,0.156l0,0c-0.156-0.626-0.47-1.096-0.627-1.096
	c-0.156,0-0.313,0.47-0.156,1.096c-0.313,0-0.47,0-0.783,0c0-0.626-0.155-1.096-0.313-1.096s-0.156,0.155-0.156,0.313
	c-0.157-0.313-0.157-0.47-0.313-0.47s-0.313,0.626-0.313,1.252c0,0,0,0-0.156,0c-0.156-0.939-0.313-1.722-0.47-1.565
	c-0.157,0-0.313,0.626-0.313,1.565l0,0c-0.155-0.626-0.313-1.096-0.47-1.096c-0.155,0-0.313,0.47-0.313,1.096l0,0
	c-0.157-0.782-0.313-1.252-0.47-1.252l0,0c0-0.939-0.157-1.566-0.313-1.566s-0.47,0.939-0.47,2.192c0,0.156,0,0.313,0.156,0.47
	c0,0,0,0-0.156,0c0-0.313-0.156-0.626-0.313-0.626c0,0-0.155,0.156-0.313,0.47c-0.157-0.47-0.313-0.782-0.47-0.627
	c0,0-0.156,0-0.156,0.157c0-0.313-0.157-0.47-0.313-0.47c-0.157,0-0.313,0.626-0.47,1.409c-0.156-0.939-0.313-1.724-0.627-1.724
	c-0.156,0-0.313,0.626-0.156,1.565c0,0.313,0,0.626,0,0.938c-0.156,0-0.313,0.156-0.313,0.156c-0.157-0.626-0.313-1.096-0.471-1.096
	c-0.156,0-0.313,0.626-0.156,1.564c0,0,0,0-0.156,0c-0.156-0.938-0.313-1.722-0.47-1.722s-0.157,0.156-0.157,0.626
	c0-0.156-0.156-0.156-0.156-0.156c-0.156,0-0.47,0.939-0.47,2.191c0,0,0,0,0,0.157l-0.156,0.156c0-0.313,0-0.626-0.155-0.939
	c0-0.626-0.157-1.096-0.157-1.253c-0.156-0.313-0.156-0.469-0.313-0.469c-0.156,0-0.313,0.626-0.313,1.564
	c0,0.313,0,0.626-0.156,0.782c0,0.313,0,0.627,0.156,0.939c-0.156,0.156-0.313,0.313-0.471,0.47c0,0,0,0,0-0.156s0-0.313,0-0.47
	s0-0.313,0-0.47c0.156-0.783,0.156-1.409,0-1.565c-0.155,0-0.47,0.313-0.625,0.782c0-0.156-0.157-0.156-0.157-0.313
	c-0.156,0-0.313,0.156-0.313,0.626l0,0c-0.156,0-0.313,0.156-0.47,0.626c0-0.313-0.157-0.626-0.157-0.626
	c-0.156,0-0.313,0.156-0.469,0.626c-0.157,0-0.783,0.627-0.939,1.566v0.156c0-0.313-0.156-0.626-0.313-0.626
	c-0.157,0-0.157,0.155-0.313,0.626c0,0.155-0.156,0.155-0.156,0.313c0-0.157,0-0.313-0.156-0.313c-0.157,0-0.471,0.47-0.627,1.096
	c0-0.313-0.156-0.626-0.313-0.782c-0.157,0-0.472,0.626-0.472,1.408c0,0.157,0,0.313,0.157,0.47
	c-0.157,0.157-0.313,0.313-0.313,0.471c0-0.156,0-0.471,0-0.782c0-0.783,0-1.565-0.156-1.724c-0.156,0-0.313,0.157-0.313,0.626
	c-0.155,0-0.47,0.471-0.626,1.254c0-0.313,0-0.471-0.156-0.471s-0.313,0.313-0.627,0.939l0,0h-0.155
	c0.155-0.626,0.155-1.097,0-1.253c0,0-0.156,0-0.156,0.156c0-0.156-0.157-0.156-0.157-0.156c-0.156,0-0.156,0.156-0.313,0.627
	c0-0.313-0.157-0.627-0.313-0.627c-0.155,0-0.313,0.313-0.47,0.938c0-0.155-0.156-0.313-0.156-0.313
	c-0.156,0-0.313,0.313-0.47,0.782c0,0,0,0-0.156,0c-0.157,0-0.471,0.47-0.471,1.253v0.155l-0.156,0.157c0,0,0,0-0.155,0
	c0.155-0.783,0.155-1.565,0-1.565c-0.156,0-0.627,0.627-0.783,1.565c0,0.156,0,0.47,0,0.626l0,0v-0.156
	c0-0.627-0.156-1.253-0.471-1.253c0,0-0.155,0-0.155,0.156c0-0.156-0.157-0.156-0.157-0.156c-0.156,0-0.469,0.626-0.469,1.409
	c0,0.156,0,0.156,0,0.313c0,0-0.157,0-0.313,0c0-0.783,0-1.409-0.157-1.409c-0.155-0.157-0.469,0.626-0.625,1.722h-0.156
	c0-0.313,0-0.47-0.156-0.47c-0.157-0.156-0.47,0.313-0.627,0.938l0,0c0-0.313-0.156-0.47-0.313-0.626c0,0-0.157,0-0.157,0.156
	c0-0.156-0.156-0.313-0.156-0.313c-0.156,0-0.313,0.155-0.47,0.626c0-0.156,0-0.156-0.156-0.156
	c-0.157-0.157-0.47,0.156-0.626,0.782c0-0.156,0-0.156-0.157-0.156c-0.156-0.156-0.47,0.313-0.781,0.938
	c0-0.155-0.157-0.155-0.157-0.155c-0.156,0-0.313,0.155-0.47,0.626c0,0,0,0,0-0.157c0.313-0.939,0.313-1.722,0.155-1.878
	c-0.155-0.157-0.469,0.47-0.782,1.252c-0.156,0-0.625,0.313-0.782,1.096c0,0,0,0.157-0.156,0.157c0-0.313-0.157-0.627-0.313-0.783
	c-0.155,0-0.47,0.313-0.47,0.783c0,0.313,0,0.47,0,0.626c-0.155,0-0.155,0-0.313,0s-0.157,0-0.313,0c0-0.156,0-0.313,0-0.626
	c0.471-0.783,0.626-1.723,0.471-1.879c-0.157-0.156-0.627,0.47-1.097,1.409l0,0c-0.157,0-0.47,0.313-0.47,0.938
	c-0.157,0-0.313,0-0.47,0c0-0.156,0.155-0.313,0.155-0.47c0-0.47-0.155-0.783-0.313-0.783c-0.156,0-0.469,0.313-0.469,0.783
	c0,0.156,0,0.313,0,0.313c-0.157,0-0.313,0-0.313,0c0.156-0.627,0.156-1.253-0.157-1.408c-0.155,0-0.469,0.469-0.625,1.096v-0.157
	c0-0.626-0.313-1.096-0.471-1.096c-0.156,0-0.313,0.47-0.313,1.253v0.156l0,0c0-0.313-0.157-0.626-0.313-0.626c0,0,0,0-0.157,0
	c-0.155-0.626-0.469-1.097-0.625-0.939c-0.156,0.156-0.313,0.626,0,1.252c0,0.157,0,0.157,0,0.157c-0.313,0-0.627,0-1.097-0.157
	c0-0.782,0-1.564-0.313-1.564c-0.156,0-0.313,0.47-0.47,1.253c0-0.157-0.156-0.157-0.313-0.157h-0.157c0-0.156,0-0.156,0-0.313
	c-0.156-0.47-0.313-0.938-0.626-0.938c-0.155,0-0.313,0.47-0.155,0.938c0,0.156,0,0.313,0.155,0.471c-0.313,0-0.47,0-0.782,0
	c-0.156-0.626-0.471-1.097-0.627-0.939c0-0.313-0.155-0.47-0.155-0.626c-0.156-0.157-0.47,0.47-0.627,1.252
	c0-0.155-0.156-0.313-0.313-0.313c-0.156,0-0.47,0.156-0.47,0.313l0,0c-0.157,0-0.313,0-0.47,0c0.156-1.096,0.156-2.035-0.156-2.035
	c-0.157,0-0.47,0.783-0.783,2.035c-0.156,0-0.156,0-0.313,0v-0.155c0-0.783,0-1.565-0.313-1.565c0-0.157-0.157-0.313-0.157-0.47
	c-0.155,0-0.47,0.781-0.47,1.722c0,0.157,0,0.313,0.157,0.47c-0.157,0-0.157,0-0.313,0c0-0.626,0-1.096-0.313-1.096l0,0
	c0-0.156,0-0.156-0.156-0.156c-0.155-0.157-0.47,0.471-0.626,1.252c-0.156,0-0.313,0-0.313,0c0-0.626,0-1.096-0.313-1.252h-0.155
	c0-0.313-0.156-0.47-0.313-0.47l-0.156,0.156c0-0.156-0.155-0.313-0.155-0.471c-0.157,0-0.157,0.156-0.313,0.471
	c0-0.313,0-0.471-0.156-0.471c0,0-0.157,0-0.313,0.156l-0.156-0.156c-0.157,0-0.157,0.313-0.313,0.626
	c-0.155,0.157-0.155,0.471-0.313,0.783v0.156c0,0,0,0-0.156,0c0-0.626-0.156-1.096-0.313-1.096s-0.156,0.155-0.313,0.313
	c-0.157-0.313-0.313-0.627-0.47-0.47c-0.157,0-0.157,0.47-0.157,1.096c0,0,0,0-0.155-0.156c-0.156,0-0.156,0-0.313,0.156
	c0.157-0.783,0-1.253-0.156-1.253c-0.155,0-0.313,0.157-0.313,0.47c0-0.313,0-0.626-0.156-0.626s-0.313,0.156-0.313,0.471
	c0-0.313-0.155-0.626-0.155-0.626c-0.156,0-0.47,0.781-0.626,1.722l0,0c0-0.939-0.313-1.565-0.471-1.565
	c-0.156,0-0.313,0.626-0.313,1.565h-0.156c0.156-0.782,0.313-1.409,0-1.565c-0.156-0.155-0.47,0.471-0.783,1.409c0,0,0,0-0.155,0
	c-0.157,0-0.157,0.156-0.157,0.156c-0.156,0-0.313,0-0.469,0c0-0.156-0.157-0.313-0.157-0.313c-0.156,0-0.156,0.156-0.313,0.313
	c-0.155,0-0.155,0-0.313,0c0.156-0.782,0-1.409-0.156-1.565c-0.156,0-0.471,0.626-0.627,1.565h-0.156c0-0.313,0-0.626-0.155-0.782
	c-0.157,0-0.313,0.313-0.627,0.782l0,0c0-0.626,0-1.096-0.156-1.096c0,0-0.156,0-0.313,0.313c0,0,0,0-0.155,0
	c-0.156,0-0.47,0.156-0.47,0.47c0,0.156,0,0.313,0.155,0.313l0,0c-0.155,0-0.313,0-0.626,0c0.313-0.939,0.471-2.035,0.313-2.035
	s-0.47,0.313-0.627,0.939l0,0c-0.156,0-0.156,0.155-0.313,0.47c0-0.313,0-0.626-0.156-0.626s-0.313,0.156-0.471,0.626l0,0
	c-0.156,0-0.313,0.156-0.469,0.626c0-0.47-0.157-0.782-0.313-0.782c-0.157,0-0.157,0.156-0.313,0.47
	c0-0.627-0.156-1.097-0.313-1.097c-0.156,0-0.471,0.627-0.471,1.566c0,0,0,0,0,0.155h-0.156c0-0.313,0-0.626-0.155-0.938l0,0
	c0.155-0.626,0-1.096-0.156-1.253c-0.157,0-0.471,0.313-0.471,0.938c0-0.313-0.156-0.47-0.156-0.47c-0.156,0-0.47,0.47-0.626,1.097
	c0-0.627,0-1.097-0.156-1.097s-0.313,0.157-0.313,0.627c0-0.627,0-1.097-0.156-1.097c-0.157,0-0.157,0.157-0.313,0.47l0,0
	c0,0,0,0-0.156,0c0-0.156,0-0.156-0.157-0.313c-0.156,0-0.47,0.313-0.782,1.096c0-0.47-0.156-0.626-0.156-0.626
	c-0.156,0-0.156,0.156-0.313,0.313c0,0,0-0.155-0.157-0.155c-0.156,0-0.156,0.155-0.313,0.313c0-0.47-0.157-0.938-0.313-0.938
	c0,0-0.155,0-0.155,0.155c0.155-0.782,0.155-1.408,0-1.408c-0.157,0-0.471,0.626-0.783,1.723c0,0-0.156,0-0.156,0.156
	c0-0.626,0-1.253-0.157-1.253c0,0-0.155,0-0.155,0.156c0-0.156,0-0.313-0.156-0.313l0,0c0-0.156-0.157-0.313-0.157-0.313
	c-0.156,0-0.313,0.313-0.47,0.783c-0.156,0.156-0.313,0.47-0.313,1.096c0,0,0,0-0.157,0c0-0.938,0-1.564-0.155-1.564
	c-0.156,0-0.313,0.47-0.47,1.409v0.155c-0.156,0-0.156,0-0.313,0c0-0.47-0.156-0.781-0.156-0.781c-0.155,0-0.313,0.313-0.313,0.626
	c-0.157,0-0.313,0-0.313,0l0,0l0,0l0,0c0.156-0.939,0-1.565-0.156-1.565s-0.313,0.156-0.313,0.626c0-0.626,0-0.938-0.157-0.938
	c-0.156,0-0.313,0.626-0.626,1.564c0,0-0.155,0.157-0.155,0.313c0-0.471-0.156-0.783-0.156-0.783c-0.157,0-0.157,0.157-0.313,0.47
	c0,0,0-0.156-0.157-0.156c-0.155,0-0.469,0.783-0.625,2.035c0,0,0-0.155-0.156-0.155c-0.157,0-0.313,0.313-0.313,0.626
	c0-0.156-0.155-0.313-0.155-0.313c-0.156,0-0.313,0.471-0.313,1.097c-0.313,0.313-0.47,0.471-0.782,0.782l0,0
	c0.156-1.096,0-2.035-0.156-2.035s-0.471,0.783-0.627,1.879c0,0.313,0,0.626,0,0.939l-0.155,0.156v-0.156
	c0.155-1.409,0-2.662-0.157-2.662c-0.156,0-0.313,0.471-0.47,1.253c0-0.156-0.156-0.313-0.156-0.313c-0.156,0-0.313,0.47-0.47,1.408
	c0-0.938-0.156-1.722-0.313-1.722c-0.155,0-0.313,0.626-0.47,1.409c0-0.157,0-0.157-0.156-0.157s-0.47,1.097-0.626,2.662
	c0-0.626,0-1.096-0.157-1.096c-0.155,0-0.313,0.47-0.47,1.252c-0.155,0.157-0.313,0.313-0.313,0.627c0,0,0-0.157-0.156-0.157
	c0,0-0.157,0-0.157,0.157c0-0.47,0-0.783-0.156-0.783s-0.47,0.783-0.625,2.035c0,0.313,0,0.626,0,0.938
	c-0.157,0.156-0.313,0.156-0.472,0.313c0-0.47,0.157-0.939,0.157-1.409c0.156-1.409,0.47-2.505,0.313-2.662
	c-0.156-0.155-0.938,0.939-1.097,2.506c0,0.156,0,0.313,0,0.47c0-0.313-0.156-0.47-0.156-0.47c-0.155-0.156-0.47,0.47-0.626,1.252
	l-0.156-0.155c0,0-0.156,0.155-0.156,0.313c0-0.155-0.156-0.155-0.156-0.313c-0.157,0-0.313,0.626-0.47,1.409
	c0-0.313-0.157-0.471-0.313-0.471c-0.155,0-0.313,0.626-0.47,1.409c0-0.627-0.156-1.097-0.313-1.097s-0.156,0.157-0.313,0.47l0,0
	c-0.157,0-0.313,0.47-0.47,1.097l-0.156-0.156c-0.157,0-0.157,0-0.313,0.156c0,0,0-0.156-0.157-0.156
	c-0.156,0-0.313,0.313-0.469,0.938l-0.157,0.157c0-0.939-0.156-1.566-0.313-1.566c-0.155,0-0.469,0.939-0.469,2.036
	c0,0-0.157,0-0.157,0.156c0-0.783-0.155-1.409-0.313-1.409c-0.156,0-0.313,0.47-0.313,1.096c0-0.155-0.155-0.313-0.155-0.313
	c-0.157,0-0.472,0.47-0.472,1.252v0.157c0-0.157-0.155-0.157-0.313-0.157s-0.47,0.157-0.47,0.313c0,0.156,0,0.156,0,0.313
	c-0.313,0.157-0.471,0.313-0.783,0.47v-0.155c0,0,0,0,0.157,0c0.155,0,0.47-0.471,0.47-0.939s-0.157-0.939-0.313-0.939
	c-0.155,0-0.47,0.313-0.47,0.939c0,0.156,0,0.156,0,0.313l0,0c-0.156,0-0.313,0.313-0.47,0.781c0,0-0.156,0-0.156,0.157
	c0.156-0.627,0-1.097-0.157-1.253c-0.155,0-0.155,0.156-0.313,0.313v-0.156c0,0-0.157,0-0.157,0.156c0-0.47-0.156-0.782-0.313-0.938
	c-0.157,0-0.313,0.47-0.471,1.096c0-0.47-0.156-0.938-0.313-0.938s-0.47,0.783-0.47,2.035c0,0.627,0,1.097,0.156,1.565
	c-0.156,0.156-0.313,0.156-0.471,0.313c-0.156-1.565,0-2.818-0.156-2.818c0,0-0.155,0-0.155,0.157c0-0.157-0.156-0.313-0.156-0.313
	c-0.157,0-0.313,1.097-0.313,2.505c0,0.313,0,0.628,0,0.939l0,0c0-0.313,0-0.626,0-0.939c0.156-1.252-0.156-2.505-0.313-2.349
	c0,0-0.156,0.157-0.156,0.313c-0.156,0.155-0.313,0.626-0.313,1.253c0-0.313-0.156-0.471-0.313-0.471c0,0-0.156,0.156-0.156,0.313
	c0-0.156-0.155-0.156-0.155-0.156c-0.156,0-0.313,0.313-0.471,0.939c0-0.313-0.156-0.626-0.313-0.626s-0.313,0.313-0.313,0.781
	c0-0.626-0.156-1.096-0.313-1.096c-0.157,0-0.313,0.47-0.313,1.096c0,0,0-0.155-0.155-0.155c-0.156,0-0.471,0.626-0.627,1.408
	c0,0-0.156,0.156-0.156,0.313c0-0.157,0-0.313-0.156-0.313s-0.313,0.313-0.627,0.939c-0.156,0.156-0.313,0.626-0.313,0.939
	c-0.156,0-0.156,0.155-0.313,0.47c0-0.47-0.156-0.783-0.313-0.783s-0.313,0.47-0.47,1.253c0-0.313-0.156-0.47-0.313-0.627
	c-0.156,0-0.156,0.157-0.313,0.47c0-0.313,0-0.47-0.155-0.781c0-0.783,0-1.409-0.156-1.409c-0.157,0-0.157,0.313-0.313,0.626l0,0
	c-0.155,0-0.155,0.313-0.313,0.626c0-0.469,0-0.626-0.156-0.782c-0.156,0-0.626,0.939-0.783,2.191l0,0c0,0-0.155,0.156-0.155,0.313
	c0-0.156-0.156-0.156-0.156-0.156c-0.157,0-0.313,0.313-0.313,0.626c0,0,0-0.155-0.155-0.155c-0.157,0-0.157,0.155-0.313,0.313l0,0
	c-0.156,0-0.156,0.157-0.313,0.313c0-0.471-0.156-0.783-0.313-0.783s-0.47,0.783-0.47,1.565c-0.157,0.156-0.157,0.313-0.157,0.626
	l0,0l0,0c0-0.47-0.156-0.782-0.313-0.938c-0.157,0-0.313,0.156-0.313,0.626l-0.156-0.156c-0.156,0-0.313,0.47-0.47,1.097
	c0,0,0,0-0.157,0c-0.155,0-0.313,0.155-0.313,0.626c0-0.156-0.157-0.313-0.157-0.313c-0.156,0-0.156,0.156-0.313,0.313
	c-0.157,0-0.313,0.156-0.313,0.47c0-0.156-0.156-0.313-0.156-0.313s-0.156,0-0.156,0.156c0-0.156-0.156-0.313-0.156-0.313
	c-0.156,0-0.313,0.313-0.47,0.627c0-0.157-0.156-0.157-0.156-0.157c-0.157,0-0.47,0.783-0.627,1.565c0,0.471,0,0.782,0,1.097
	c0,0-0.156,0-0.156,0.156c0-0.156,0-0.156,0-0.313c0-0.783,0-1.409-0.313-1.566c-0.157,0-0.313,0.471-0.472,1.098c0,0,0,0-0.155,0
	h-0.156c-0.156-0.471-0.156-0.627-0.313-0.627c-0.155,0-0.313,0.627-0.313,1.409c0,0.47,0,0.782,0,1.097
	c-0.156,0-0.156,0.156-0.313,0.156l0,0c0-0.783,0-1.253-0.313-1.409c-0.156,0-0.313,0.156-0.313,0.47c0-0.313-0.155-0.47-0.313-0.47
	s-0.47,0.47-0.47,1.096h-0.157c-0.156,0-0.313,0.47-0.313,0.939c0,0.156,0,0.313,0.156,0.47c-0.156,0-0.156,0.157-0.313,0.157
	c0-0.313,0-0.627,0-0.939c0.155-1.253,0.155-2.349,0-2.349c-0.157,0-0.157,0.155-0.313,0.47c0-0.47,0-0.627-0.157-0.627
	c-0.155,0-0.626,1.253-0.938,2.976c0,0.156,0,0.313,0,0.471c0,0,0,0-0.156,0c0-0.783,0-1.409-0.156-1.409
	c-0.155,0-0.155,0.156-0.313,0.626c0-0.156-0.156-0.313-0.156-0.313c-0.157,0-0.47,0.783-0.626,1.879c0,0.156,0,0.313,0,0.313l0,0
	c0-0.157,0-0.313-0.157-0.313c0-0.313,0-0.626-0.155-0.626l0,0c0-0.155,0-0.155-0.156-0.155c-0.157,0-0.47,0.626-0.783,1.564
	c0-0.313-0.156-0.47-0.156-0.47c-0.156,0-0.156,0.156-0.313,0.313c0-0.156,0-0.156-0.156-0.156c-0.157,0-0.157,0.156-0.313,0.313
	c0-0.157,0-0.313-0.156-0.313c-0.157,0-0.47,0.626-0.627,1.564c-0.156,0-0.47,0.627-0.626,1.409l0,0
	c0-0.782-0.156-1.409-0.313-1.409c-0.155,0-0.47,0.783-0.47,1.724v0.155l0,0c0-0.313,0-0.47-0.156-0.626
	c-0.155,0-0.313,0.156-0.47,0.471c0-0.156,0-0.313-0.156-0.313s-0.47,0.627-0.626,1.409l0,0c0-0.47,0-0.939-0.156-0.939
	s-0.471,0.471-0.782,1.409c0,0-0.157,0.156-0.157,0.313c0-0.313,0-0.471-0.156-0.471s-0.626,0.939-0.782,2.35
	c0,0.156,0,0.156,0,0.313l-0.156,0.157v-0.157c0-0.781,0-1.408-0.156-1.564c0,0,0,0-0.157,0c0-0.313,0-0.47-0.155-0.47
	c-0.156,0-0.471,0.47-0.626,1.096l0,0c-0.157,0-0.313,0.313-0.471,0.627l0,0c-0.156,0-0.313,0.313-0.47,0.626l0,0
	c0-0.47,0-0.939-0.157-0.939c-0.155,0-0.469,0.471-0.626,1.409l0,0c-0.155,0-0.47,0.47-0.47,0.939c0,0,0,0-0.156-0.156
	c-0.155,0-0.47,0.47-0.47,1.096c0-0.156-0.157-0.313-0.157-0.313c-0.155,0-0.313,0.313-0.469,0.783c0,0,0-0.157-0.157-0.157
	c-0.155,0-0.313,0.157-0.47,0.47c0,0,0-0.156-0.156-0.156c0,0,0,0-0.155,0c0-0.313,0-0.626-0.157-0.626
	c-0.156,0-0.47,0.626-0.626,1.409c0-0.157-0.156-0.313-0.156-0.313c-0.157,0-0.47,0.47-0.47,1.253c0,0.155,0,0.155,0,0.313
	c0,0,0,0-0.157,0c-0.156,0-0.156,0.157-0.313,0.313c0-0.156-0.157-0.156-0.157-0.156c-0.156,0-0.156,0.156-0.313,0.313
	c0,0,0-0.155-0.156-0.155s-0.471,0.782-0.626,1.879c0,0,0,0,0,0.155l0,0c-0.156,0-0.471,0.627-0.471,1.409c0,0.156,0,0.313,0,0.471
	c0-0.156-0.155-0.156-0.155-0.156c-0.156,0-0.313,0.47-0.471,1.096c0-0.783,0-1.409-0.156-1.409s-0.313,0.471-0.47,1.097v-0.156
	c-0.156,0-0.47,0.47-0.627,1.096c0-0.313-0.155-0.626-0.313-0.626s-0.157,0.156-0.313,0.313c-0.156-0.471-0.313-0.939-0.47-0.939
	s-0.156,0.313-0.313,0.782c0-0.47-0.156-0.939-0.313-0.939s-0.313,0.313-0.313,0.627c0-0.313-0.156-0.627-0.313-0.627l0,0
	c0-0.155-0.156-0.313-0.156-0.313c-0.155,0-0.155,0.313-0.313,0.626c0-0.47-0.156-0.783-0.313-0.783c0,0-0.156,0-0.156,0.157
	c0-0.313-0.156-0.627-0.313-0.627s-0.313,0.47-0.47,0.938c0-0.155-0.157-0.313-0.157-0.313s-0.156,0-0.156,0.156v-0.156
	c0.156-0.627,0.156-1.253,0-1.253c-0.155-0.156-0.626,0.626-0.938,1.723c0-0.157,0-0.157,0-0.313c0-0.939,0-1.879-0.313-1.879
	c-0.155,0-0.313,0.313-0.47,0.782c0-0.782-0.156-1.408-0.313-1.408c-0.157,0-0.313,0.47-0.313,1.252
	c0-0.156-0.156-0.313-0.156-0.313c-0.156,0-0.313,0.313-0.47,0.939c0-0.939-0.157-1.565-0.313-1.565
	c-0.156,0-0.156,0.313-0.313,0.626l-0.157-0.156c0,0,0,0-0.155,0c0,0,0-0.156-0.157-0.156c0,0,0,0-0.156,0
	c0-0.313-0.156-0.471-0.156-0.471c-0.156,0-0.156,0.156-0.313,0.471c0-0.156-0.156-0.156-0.156-0.156
	c-0.157,0-0.157,0.156-0.313,0.47c0-0.157,0-0.157-0.156-0.157c0-0.781-0.157-1.407-0.313-1.407c-0.155,0-0.313,0.47-0.47,1.252
	c-0.156,0.156-0.156,0.47-0.313,0.782c-0.157-0.313-0.313-0.47-0.472-0.47c-0.155,0-0.155,0.156-0.155,0.156
	c0-0.156-0.156-0.313-0.156-0.313l0,0c0-0.471-0.156-0.938-0.313-0.938c-0.155,0-0.313,0.313-0.47,0.782l-0.156-0.156
	c-0.155,0-0.155,0.156-0.313,0.313l-0.156-0.155c-0.157,0-0.157,0.155-0.313,0.313c0-0.313-0.156-0.627-0.313-0.627
	s-0.157,0.157-0.313,0.47c0-0.155-0.157-0.155-0.157-0.155s0,0-0.156,0c0-0.471-0.156-0.939-0.156-0.939
	c-0.155,0-0.47,0.783-0.627,1.723c0-0.938,0-1.879-0.313-1.879c-0.156,0-0.313,0.471-0.47,1.252c0-0.155-0.156-0.155-0.156-0.155
	c-0.157,0-0.313,0.313-0.47,0.938c0-0.47-0.157-0.783-0.313-0.783s-0.313,0.313-0.313,0.783l-0.156-0.156
	c-0.156,0-0.156,0.156-0.313,0.471l-0.155-0.157c-0.156,0-0.156,0.157-0.313,0.313c0-0.47,0-0.782-0.156-0.782
	c-0.155,0-0.313,0.313-0.47,0.782c0-0.155-0.156-0.313-0.156-0.313c-0.156,0-0.156,0.157-0.313,0.313
	c0-0.155-0.156-0.313-0.156-0.313c-0.157,0-0.47,0.627-0.627,1.566c0,0.155,0,0.155,0,0.313c-0.156,0-0.156,0-0.313,0.157
	c0.155-0.783,0-1.409-0.157-1.409c-0.156,0-0.47,0.782-0.782,1.722l0,0l0,0v-0.155c0-0.939,0.156-1.724,0-1.724
	s-0.47,0.47-0.627,1.097c0,0,0,0,0,0.156c0-0.156-0.156-0.313-0.156-0.313l0,0c0-0.313,0-0.626-0.155-0.626
	c-0.156,0-0.313,0.313-0.471,0.938c0-0.156,0-0.313-0.156-0.313s-0.313,0.313-0.47,0.627c0-0.313,0-0.47-0.156-0.47
	s-0.156,0.155-0.313,0.47c0-0.157,0-0.157-0.157-0.157c-0.155,0-0.47,0.627-0.626,1.723l0,0c-0.155,0-0.313,0.156-0.313,0.471
	c0-0.156-0.156-0.313-0.156-0.313c-0.156,0-0.313,0.627-0.313,1.565l0,0c0-0.782,0-1.408-0.313-1.408c0,0-0.157,0.313-0.313,0.626
	c0-0.313-0.156-0.626-0.156-0.626c-0.157,0-0.47,0.626-0.47,1.722c-0.157,0.157-0.157,0.313-0.157,0.626
	c0-0.47-0.156-0.938-0.313-0.938c-0.156,0-0.47,0.627-0.47,1.409c0,0.156,0,0.313,0,0.47c0,0,0,0-0.157,0.157c0,0,0,0-0.155-0.157
	c-0.156,0-0.313,0.157-0.471,0.47c0-0.156-0.155-0.156-0.155-0.156c-0.157,0-0.157,0.156-0.313,0.313c0-0.783,0-1.409-0.313-1.409
	c-0.157,0-0.472,0.939-0.627,2.191l0,0l0,0c-0.156,0-0.471,0.627-0.626,1.408c0,0.157,0,0.313,0,0.313l-0.156-0.157
	c-0.157,0-0.313,0.313-0.47,0.783l0,0c0-0.47,0-0.939-0.157-0.939c-0.156,0-0.47,0.471-0.47,0.939c0-0.156-0.156-0.313-0.156-0.47
	c-0.156,0-0.156,0.156-0.313,0.313c0-0.47-0.155-0.938-0.155-0.938c-0.156,0-0.313,0.313-0.471,0.938
	c-0.155,0.156-0.155,0.313-0.313,0.47l0,0c-0.156,0-0.313,0.156-0.313,0.313c0-0.156-0.156-0.156-0.156-0.156
	c-0.156,0-0.313,0.313-0.471,0.626c0-0.313-0.155-0.47-0.313-0.47c0,0,0,0-0.157,0c0,0,0-0.156-0.156-0.156
	c-0.155,0-0.47,0.471-0.626,1.253c0,0.313-0.156,0.626,0,0.939c0,0,0,0-0.156,0l0,0c0-0.627-0.156-1.253-0.313-1.253
	s-0.47,0.47-0.47,1.253c0,0.156,0,0.156,0,0.313c0,0,0,0-0.157,0c0,0,0,0,0-0.155c0-0.626-0.156-1.097-0.313-1.097
	c0,0-0.156,0-0.156,0.156l0,0c-0.157,0-0.313,0.313-0.313,0.626c0-0.313-0.156-0.47-0.313-0.47l0,0c0-0.471-0.156-0.939-0.313-0.939
	c-0.156,0-0.313,0.47-0.47,1.098c0,0,0,0-0.157-0.157c-0.155,0-0.313,0.157-0.313,0.313c0-0.313-0.157-0.626-0.313-0.626
	c0,0-0.155,0-0.155,0.156c-0.157,0.156-0.313,0.47-0.471,1.096c-0.156-0.155-0.156-0.313-0.313-0.313h-0.156
	c0-0.313-0.157-0.47-0.313-0.47c-0.156,0-0.313,0.313-0.471,0.781c0-0.155-0.155-0.313-0.313-0.313c0-0.783-0.156-1.409-0.313-1.409
	c-0.156,0-0.313,0.47-0.47,1.252l0,0c0,0,0,0-0.157,0c0.157-1.096,0.157-1.879,0-2.035c0,0-0.155,0-0.155,0.156
	c0-0.156,0-0.156-0.156-0.156s-0.47,0.939-0.627,2.192c0,0.156,0,0.47,0,0.626c0-0.156-0.156-0.156-0.156-0.156
	c-0.156,0-0.313,0.156-0.313,0.47c0-0.156,0-0.156,0-0.156c0-1.097,0-2.035-0.313-2.035c-0.157,0-0.313,0.47-0.47,1.096
	c-0.156,0.157-0.156,0.627-0.313,0.939c0-0.313-0.155-0.626-0.313-0.626c0,0-0.157,0-0.157,0.155l0,0
	c-0.156,0-0.47,0.313-0.47,0.627l-0.156-0.156c-0.156,0-0.313,0.156-0.47,0.47l0,0c0-0.313-0.156-0.47-0.313-0.47
	c0,0-0.155,0-0.155,0.156c0-0.313-0.156-0.627-0.313-0.627c-0.156,0-0.47,0.783-0.47,1.724l0,0l0,0c0-0.156,0-0.156,0-0.313
	c0-1.252,0-2.349-0.313-2.349c-0.156,0-0.47,1.097-0.47,2.349v0.157c-0.156,0-0.156,0-0.313,0.156c0-0.156-0.156-0.156-0.156-0.156
	h-0.157l0,0c-0.156,0-0.313,0.156-0.469,0.626c0,0,0,0-0.157,0c-0.156,0-0.313,0.156-0.313,0.47c0-0.313-0.156-0.47-0.313-0.47
	c0,0-0.156,0-0.156,0.156c0-0.313-0.156-0.471-0.313-0.471c-0.157,0-0.157,0.156-0.313,0.313c0-0.626,0-1.096-0.155-1.096
	c-0.156,0-0.626,0.626-0.626,1.722c0-0.156,0-0.156-0.157-0.313c0-0.313-0.156-0.47-0.156-0.47c-0.156,0-0.313,0.157-0.313,0.313
	h-0.156c-0.156,0.313-0.313,0.782-0.626,1.096c0-0.156,0-0.47-0.157-0.626c0,0,0-0.156,0.157-0.156c-0.157,0-0.157,0-0.313,0
	c-0.155,0-0.155,0-0.313-0.157v0.157h-0.156c-0.156,0-0.313-0.157-0.47-0.157v0.157c-0.156,0-0.156,0-0.313,0c0,0,0,0,0,0.156
	c0-0.156,0-0.313,0-0.313v-0.313v-0.157c-0.313,0,0.783-0.156-0.781,0l0,0v0.157v0.626c0,0,0,0,0,0.156l0,0
	c-0.157,0-0.157-0.156-0.471-0.156c0,0.156,0,0.313,0,0.313c0,0.156,0,0.313,0,0.471c0,0.313,0,0.47,0,0.626l0,0l0,0
	c0-0.313,0-0.626-0.155-0.626c-0.157,0-0.157,0-0.157,0.155c0-0.47-0.156-0.782-0.313-0.782c0,0-0.155,0.156-0.313,0.313
	c0-0.156-0.156-0.313-0.156-0.313c-0.157,0-0.313,0.47-0.471,1.097c0-0.157-0.156-0.313-0.156-0.313c-0.156,0-0.156,0-0.313,0.156
	c0-0.47-0.156-0.782-0.313-0.782s-0.313,0.313-0.47,0.782l0,0c0,0-0.156,0-0.156,0.157c0-0.627,0-0.938-0.157-0.938
	c-0.156,0-0.47,0.781-0.626,1.879l0,0v-0.157c0-0.939-0.155-1.565-0.313-1.565c0,0,0,0-0.156,0c0-0.156-0.156-0.156-0.156-0.156
	s-0.157,0-0.157,0.156c0-0.47-0.155-0.783-0.313-0.783s-0.313,0.628-0.47,1.566c0,0,0,0-0.157,0c0-0.313-0.156-0.47-0.156-0.47
	c-0.156,0-0.47,0.626-0.47,1.409l-0.156,0.155l0,0c-0.157,0-0.313,0.156-0.47,0.313c0-0.47-0.156-0.783-0.313-0.783
	s-0.156,0.156-0.313,0.313c0-0.157-0.156-0.157-0.156-0.157s-0.155,0-0.155,0.157c0-0.783,0-1.566-0.156-1.566
	c-0.157,0-0.313,0.157-0.313,0.47c0-0.156-0.157-0.156-0.157-0.156c-0.155,0-0.155,0.156-0.313,0.313l0,0
	c-0.156,0-0.47,0.47-0.47,1.096l0,0c0-0.47-0.157-0.938-0.313-0.938c0,0-0.156,0-0.156,0.156l0,0c-0.155,0-0.155,0-0.155,0.156
	c0-0.47-0.157-0.938-0.313-0.938s-0.313,0.47-0.47,1.096l0,0c0,0,0,0,0-0.156c0.156-1.253,0.156-2.191,0-2.349
	c-0.156,0-0.47,0.626-0.626,1.565c0-0.156-0.157-0.156-0.313-0.156l0,0c0.155-0.313,0-0.627-0.156-0.627
	c-0.157,0-0.471,0.157-0.627,0.47c0-0.47-0.156-0.782-0.471-0.782c-0.155,0-0.313,0.47-0.313,1.097c0,0.155,0,0.313,0,0.313h-0.157
	c0-0.157,0-0.157,0-0.313c0-0.471,0-0.783-0.313-0.783c-0.156,0-0.313,0.157-0.47,0.47l0,0c0-0.156-0.157-0.313-0.313-0.313
	s-0.313,0.155-0.47,0.47l-0.156-0.157c-0.157,0-0.313,0.157-0.313,0.157s0,0,0-0.157c0-0.782-0.156-1.409-0.313-1.409
	s-0.313,0.313-0.471,0.783c0,0.156-0.156,0.156-0.156,0.313c0-0.313-0.156-0.47-0.313-0.47c-0.156,0-0.313,0.313-0.47,0.626l0,0
	c0-0.156-0.157-0.156-0.157-0.156c-0.155,0-0.155,0-0.313,0.313c0-0.156-0.157-0.156-0.157-0.313c-0.155,0-0.155,0.156-0.313,0.156
	c0-0.47-0.157-0.783-0.313-0.783s-0.47,0.628-0.626,1.409v0.157l0,0c-0.157,0-0.157,0-0.313,0.156c0-0.156-0.156-0.156-0.156-0.156
	c-0.157,0-0.157,0.156-0.313,0.313c0-0.156-0.155-0.313-0.155-0.313s0,0-0.157,0c0-0.157-0.156-0.157-0.156-0.157s0,0-0.156,0
	c0-0.155-0.156-0.155-0.156-0.155c-0.156,0-0.471,0.626-0.471,1.408c0-0.47-0.313-0.782-0.313-0.782
	c-0.156,0.156-0.313,0.47-0.47,1.253c0-0.313-0.157-0.471-0.313-0.471c0-0.47-0.156-0.938-0.156-0.938s-0.155,0.156-0.155,0.313
	c0-0.47-0.157-0.627-0.157-0.627c-0.156,0-0.156,0.157-0.313,0.471c0-0.471-0.156-0.626-0.156-0.626
	c-0.156,0-0.471,0.938-0.626,2.191l-0.157-0.157c-0.156,0-0.313,0.157-0.313,0.471c0-0.626,0-1.097-0.156-1.097
	c0,0-0.157,0-0.157,0.156c0-0.313-0.156-0.47-0.156-0.47c-0.157,0-0.47,0.938-0.626,2.191c0-0.156,0-0.156,0-0.313
	c0.156-1.409,0.156-2.661-0.156-2.661c-0.156,0-0.313,0.313-0.471,0.939c0-0.157-0.156-0.313-0.156-0.313
	c-0.155,0-0.313,0.313-0.47,0.939l0,0c-0.155,0-0.155,0.155-0.313,0.47c0,0-0.156,0.156-0.156,0.313c0,0,0,0-0.156,0l0,0
	c0-0.313-0.157-0.47-0.313-0.47c-0.156,0-0.313,0.313-0.313,0.626c-0.156,0-0.313,0.313-0.313,0.626h-0.157c0,0,0,0-0.156,0
	c0-0.156-0.155-0.156-0.155-0.156c-0.157,0-0.313,0.156-0.313,0.626l0,0c0-0.626-0.156-1.096-0.313-1.096
	c-0.156,0-0.313,0.313-0.313,0.782c0-0.47-0.157-0.782-0.313-0.782c-0.156,0-0.313,0.313-0.471,0.939
	c0-0.157-0.156-0.313-0.313-0.313c0,0-0.156,0-0.156,0.156c0,0,0-0.156-0.156-0.156s-0.313,0.156-0.47,0.626
	c-0.157,0-0.157,0.313-0.313,0.627c0,0,0,0-0.155,0c-0.156,0-0.156,0-0.313,0.313c0,0-0.156,0.156-0.156,0.313h-0.155l0,0
	c0-0.313-0.157-0.626-0.313-0.626s-0.156,0-0.313,0.156c0-0.156-0.156-0.156-0.156-0.156h-0.156c0-0.157-0.156-0.47-0.313-0.47
	h-0.156c0,0,0-0.157-0.157-0.157c0-0.782-0.155-1.408-0.313-1.408s-0.157,0.156-0.313,0.313c0-0.156-0.156-0.156-0.156-0.156l0,0
	c0-0.783-0.156-1.253-0.313-1.253s-0.313,0.626-0.47,1.565l0,0c-0.156,0-0.156,0.156-0.313,0.47c0-0.313-0.156-0.47-0.156-0.47
	c-0.156,0-0.313,0.313-0.471,0.627c0-0.627-0.156-1.098-0.313-1.098c-0.157,0-0.313,0.313-0.472,0.783
	c0-0.313-0.155-0.626-0.313-0.626s-0.313,0.47-0.47,1.252l0,0l0,0c0,0,0,0-0.157,0c0-0.313-0.156-0.47-0.156-0.47
	c0-0.156-0.156-0.156-0.156-0.156c-0.155,0-0.313,0.47-0.47,0.939c0-0.156-0.157-0.156-0.157-0.156s-0.155,0-0.155,0.156
	c0-0.783,0-1.409-0.156-1.409s-0.313,0.313-0.47,0.783c0,0,0-0.157-0.157-0.157c0,0,0,0-0.156,0c0-0.47,0-0.939-0.156-0.939
	c-0.155,0-0.313,0.313-0.47,0.627l-0.156-0.156c0-0.471-0.156-0.782-0.313-0.939c-0.156,0-0.313,0.313-0.47,0.939l0,0
	c0,0,0,0-0.156,0c0-0.313-0.157-0.471-0.157-0.626c0-0.939,0-1.723-0.313-1.723c-0.157,0-0.313,0.471-0.471,1.252
	c-0.156-0.47-0.313-0.781-0.47-0.781s-0.313,0.626-0.157,1.407l-0.155-0.155c-0.156,0-0.156,0.155-0.313,0.313
	c0-0.157-0.156-0.313-0.156-0.313h-0.155c0-0.156-0.157-0.313-0.313-0.313l0,0c0-0.313-0.156-0.469-0.313-0.469
	s-0.156,0-0.313,0.156v-0.156c0-0.627,0-1.098-0.313-1.098c-0.156,0-0.471,0.313-0.471,0.939h-0.155c0,0,0,0-0.156,0l0,0
	c0-0.47-0.157-0.782-0.313-0.782s-0.313,0.313-0.47,0.626l0,0c0,0,0,0-0.156,0l0,0c0-0.313-0.156-0.47-0.313-0.626
	c-0.157,0-0.313,0.156-0.47,0.471c-0.156,0-0.156,0.155-0.156,0.155l0,0c0,0,0,0-0.157,0c0,0-0.156-0.155-0.313-0.155
	c0,0,0,0-0.157,0c0-0.157-0.156-0.313-0.313-0.313c-0.156,0-0.156,0-0.313,0.156h-0.156l0,0c0-0.313-0.157-0.471-0.313-0.471l0,0
	c0-0.155-0.156-0.155-0.313-0.155c0,0,0,0-0.156,0c0-0.156-0.155-0.313-0.313-0.471c0-0.155-0.156-0.47-0.313-0.47
	c0,0-0.156,0-0.156,0.156l-0.156-0.156c-0.156,0-0.156,0.156-0.313,0.313c0-0.157-0.155-0.157-0.155-0.157
	c-0.156,0-0.313,0.157-0.313,0.47c0-0.156,0-0.47,0-0.782c-0.157,0-0.313,0-0.313,0l0,0v-0.156h-0.157
	c-0.156-0.156-0.313-0.156-0.626-0.156c0,0,0,0.156-0.156,0.156c-0.313-0.156-0.313,0-0.313,0c0-0.156-0.156-0.156-0.156-0.156
	c-0.156,0-0.47,0.313-0.627,0.783c0,0.155,0,0.313,0,0.47h-0.156c0-0.313-0.156-0.47-0.313-0.47c-0.157,0-0.157,0-0.313,0.155
	c0-0.313-0.156-0.782-0.313-0.782c-0.155,0-0.313,0.156-0.47,0.47l-0.155-0.156c-0.156,0-0.156,0-0.156,0.156l0,0c0,0,0,0-0.157,0
	c0-0.47-0.156-0.626-0.313-0.626c0,0,0,0-0.156,0c0-0.156-0.156-0.313-0.313-0.47c-0.157,0-0.313,0.313-0.47,0.782l0,0
	c0-0.156-0.157-0.156-0.157-0.156c0-0.156-0.155-0.313-0.313-0.313c0,0-0.157,0-0.157,0.156l0,0c-0.156,0-0.156,0.156-0.313,0.313
	c0-0.156,0-0.156,0-0.313c0-1.096,0-2.035-0.313-2.035c-0.156,0-0.47,0.939-0.47,2.035l0,0c0,0.156,0,0.156-0.156,0.313h-0.156
	h-0.156l0,0c0,0,0,0-0.156,0c0-0.156-0.157-0.47-0.313-0.47h-0.155c0-0.157-0.156-0.313-0.313-0.313c-0.156,0-0.47,0.313-0.47,0.782
	v0.156l0,0c0-0.156-0.156-0.313-0.156-0.313c0-0.939-0.156-1.565-0.313-1.565s-0.471,0.783-0.471,1.879v0.156c0,0,0,0-0.156,0
	c0,0,0,0-0.155,0c0-0.156-0.157-0.156-0.313-0.156c0,0-0.156,0-0.156,0.156c0,0-0.156-0.156-0.313-0.156s-0.156,0-0.156,0
	c0-0.156-0.157-0.47-0.47-0.47l0,0c0-0.47-0.157-0.783-0.313-0.783c-0.156,0-0.156,0-0.313,0.157c0,0-0.156,0-0.156,0.156
	c0-1.097-0.155-2.035-0.47-2.035c-0.156,0-0.47,0.938-0.47,2.035c0,0.155,0,0.47,0,0.626l0,0v-0.156c0-0.783-0.313-1.253-0.47-1.253
	c-0.157,0-0.156,0.157-0.313,0.627c0,0,0-0.157-0.156-0.157c-0.155,0-0.155,0.157-0.313,0.313c0-0.156-0.156-0.156-0.313-0.156
	c-0.156,0-0.47,0.313-0.47,0.626v0.156h-0.157c0-0.313-0.156-0.626-0.313-0.782c0-0.157-0.156-0.313-0.313-0.47
	c0-0.313-0.155-0.628-0.313-0.628c-0.156,0-0.313,0-0.313,0.313c0-0.156-0.156-0.313-0.156-0.313c-0.156,0-0.313,0.157-0.47,0.471
	l0,0c0-0.156-0.157-0.313-0.313-0.313c-0.156,0-0.313,0.313-0.313,0.626l-0.156-0.155c0-0.471-0.155-0.939-0.313-0.939l0,0
	c0-0.939,0-1.409-0.156-1.566c-0.156,0-0.47,0.783-0.626,2.036c0-0.157-0.157-0.313-0.313-0.313c0-0.156-0.156-0.156-0.313-0.313
	c-0.156,0-0.156,0-0.156,0.157c0-0.47-0.155-0.783-0.155-0.783c-0.157,0-0.313,0.156-0.47,0.471c0-0.156-0.157-0.156-0.157-0.156
	c-0.156,0-0.47,0.313-0.47,0.938c0,0.156,0,0.156,0,0.156l0,0c0-0.47,0-0.938-0.156-0.938s-0.156,0-0.313,0.155h-0.157
	c-0.155,0-0.47,0.157-0.47,0.471c0,0.156,0,0.156,0,0.313c-0.155,0-0.155,0-0.313,0.156c0-0.156,0-0.156,0-0.313
	c0.155-0.782,0-1.408-0.313-1.565c-0.156,0-0.313,0.313-0.47,0.938c-0.156,0-0.313,0.313-0.47,0.627l0,0
	c-0.157,0-0.313,0.156-0.313,0.313c0-0.156-0.155-0.156-0.155-0.156s0,0-0.156,0c0-0.47-0.157-0.783-0.313-0.783
	c-0.155,0-0.47,0.471-0.47,1.098c0,0,0,0-0.156,0c0-0.157-0.156-0.313-0.156-0.313c-0.156,0-0.313,0.313-0.471,0.626
	c-0.156,0.157-0.313,0.47-0.313,0.939c0,0,0,0-0.157,0.156l0,0c-0.156,0-0.47,0.313-0.626,0.782l0,0h-0.156
	c0-0.313-0.156-0.47-0.313-0.47l0,0c0-0.156,0-0.156,0-0.313l0,0c0.156-0.938,0.156-1.879-0.156-1.879l-0.157,0.156
	c0-0.156,0-0.156-0.155-0.156c-0.156,0-0.471,0.782-0.627,1.723c0-0.156-0.156-0.156-0.156-0.156c-0.156,0-0.469,0.156-0.469,0.626
	c0,0.313,0,0.47,0.313,0.627l0,0c-0.156-0.157-0.313-0.157-0.47-0.313c0-0.156,0-0.313,0-0.471c0-0.626-0.156-1.096-0.47-1.096
	c-0.156,0-0.156,0.156-0.313,0.313c0-0.155-0.157-0.155-0.157-0.155V387.2c0.157-0.939,0-1.879-0.156-1.879s-0.47,0.782-0.625,1.879
	c0,0.156,0,0.47,0,0.626c-0.157,0-0.157-0.156-0.313-0.156c0-0.157,0-0.313,0-0.47c0.156-0.783,0-1.566-0.313-1.566
	c0,0-0.155,0-0.155,0.157c0-0.47-0.156-0.783-0.313-0.783c-0.156,0-0.47,0.626-0.47,1.409c0,0.156,0,0.313,0,0.47h-0.156
	c0-0.155,0-0.313,0-0.313c0.156-0.782,0.156-1.565-0.155-1.565c0,0-0.157,0-0.157,0.156c0-0.156-0.156-0.313-0.313-0.313
	c-0.156,0-0.313,0.155-0.313,0.626c0,0,0,0-0.156,0c-0.157,0-0.157,0-0.313,0.155c0.155-0.626,0-1.252-0.156-1.252
	c-0.157,0-0.313,0.156-0.471,0.626c-0.156,0.156-0.313,0.313-0.313,0.783l0,0c0-0.157,0-0.47,0-0.627
	c0.156-0.938,0-1.722-0.156-1.722s-0.313,0.313-0.47,0.938c0.156-0.938,0-1.879-0.157-1.879c-0.156,0-0.47,0.626-0.626,1.409l0,0
	c0-0.157,0-0.313,0-0.313c0-0.939-0.155-1.88-0.313-1.88s-0.157,0.157-0.313,0.313c0,0,0-0.156-0.156-0.156s-0.313,0.156-0.47,0.626
	c0,0,0,0-0.157,0c-0.155,0-0.313,0.156-0.47,0.471c0-0.313-0.155-0.471-0.313-0.471s-0.313,0.156-0.313,0.626l-0.156-0.155h-0.156
	c0-0.156-0.156-0.313-0.313-0.313s-0.313,0.157-0.47,0.47c-0.313-0.155-0.47-0.313-0.783-0.47c0-0.47-0.156-0.782-0.313-0.782
	s-0.313,0.156-0.313,0.471c-0.157,0-0.157-0.157-0.313-0.157c0.155-0.939,0.155-1.723-0.156-1.723c-0.157,0-0.157,0.156-0.313,0.313
	c0-0.156-0.155-0.156-0.155-0.313c-0.156,0-0.47,0.313-0.47,0.939c0-0.157-0.157-0.313-0.313-0.313c0,0,0,0,0-0.155
	c0-0.313-0.156-0.627-0.313-0.783h-0.156c0-0.313-0.156-0.47-0.313-0.47h-0.155c0-0.471,0-0.939-0.156-0.939
	s-0.313,0.313-0.471,0.626c0,0-0.156,0-0.156,0.157c0-0.313-0.156-0.627-0.313-0.627l0,0c0-0.313-0.155-0.47-0.313-0.47
	c-0.156,0-0.47,0.47-0.47,1.253l0,0c0-0.313,0-0.626,0-0.939c0.156-0.938,0-1.723-0.156-1.723s-0.313,0.157-0.313,0.627l0,0
	c0-0.313-0.155-0.47-0.313-0.47s-0.313,0.313-0.313,0.781c0-0.626-0.156-1.096-0.313-0.938c0,0-0.156,0.157-0.156,0.313
	c0-0.313-0.156-0.47-0.156-0.47s-0.156,0-0.156,0.156c0-0.471-0.156-0.782-0.156-0.939c0-0.313,0-0.626-0.156-0.626
	c-0.157,0-0.157,0.157-0.313,0.47c0-0.313-0.156-0.626-0.156-0.626c-0.157,0-0.313,0.313-0.471,0.626
	c0.156-0.626,0-1.252-0.156-1.252s-0.471,0.471-0.626,1.252c0-0.313-0.156-0.47-0.156-0.47c-0.156,0-0.313,0.313-0.47,0.783l0,0l0,0
	c0-0.157-0.157-0.157-0.157-0.157c0-0.156-0.156-0.313-0.313-0.313l0,0l0,0c0.156-0.783,0.156-1.409-0.155-1.409
	c-0.157,0-0.472,0.626-0.627,1.409v0.155c0,0,0,0,0,0.157l0,0l0,0c0-0.157,0-0.47,0-0.783c0.155-0.938,0-1.723-0.156-1.723
	s-0.47,0.627-0.627,1.723c0,0.156,0,0.156,0,0.313c-0.156,0-0.156-0.157-0.313-0.157c0-0.156,0.156-0.313,0.156-0.626
	c0.157-0.47,0-1.096-0.156-1.096c-0.155,0-0.313,0.156-0.313,0.313c0.157-0.781,0-1.408-0.156-1.408s-0.156,0.156-0.313,0.313
	c0-0.939-0.313-1.723-0.471-1.723c-0.155,0-0.313,0.782-0.313,1.879c0,0.627,0.156,1.097,0.313,1.409c0,0-0.155,0-0.155-0.156
	c-0.156,0-0.156-0.156-0.313-0.156c0.157-0.313,0.157-0.783,0-1.253c0.157-0.783,0-1.409-0.156-1.565
	c-0.155,0-0.47,0.471-0.626,1.253v-0.156c0.156-0.783,0-1.565-0.156-1.724c-0.156,0-0.313,0.313-0.471,0.783
	c0-0.626,0-0.938-0.155-1.096c-0.156,0-0.313,0.313-0.471,0.782c0-0.313-0.155-0.626-0.313-0.626s-0.313,0.313-0.471,0.626
	c0-0.313-0.156-0.471-0.156-0.471h-0.156c0-0.47,0-0.781-0.156-0.781s-0.313,0.155-0.471,0.626l0,0c0-0.313-0.156-0.626-0.313-0.626
	l0,0c0-0.783,0-1.253-0.156-1.253c0,0-0.157,0-0.157,0.155c0-0.469,0-0.938-0.156-0.938c-0.157,0-0.626,0.938-0.782,2.19
	c0,0-0.156,0-0.156-0.155c0.156-1.409,0.156-2.506,0-2.506c-0.157,0-0.313,0.471-0.471,1.253c0-0.313-0.155-0.626-0.313-0.626
	c-0.156,0-0.156,0.155-0.313,0.155c0-0.47-0.157-0.938-0.313-0.938s-0.313,0.157-0.313,0.47c0,0,0,0-0.155,0
	c0-0.156-0.156-0.313-0.156-0.313h-0.157c0-0.157-0.156-0.313-0.313-0.313c0,0-0.157,0-0.157,0.156c0-0.471,0-0.782-0.156-0.782l0,0
	c0-0.313-0.155-0.47-0.313-0.627c0,0-0.156,0-0.156,0.157l-0.156-0.157c-0.157,0-0.313,0.157-0.47,0.313
	c0-0.938,0-1.564-0.313-1.564c-0.156,0-0.313,0.47-0.471,0.938l0,0v-0.156c0-0.313-0.156-0.782-0.313-0.782s-0.156,0-0.313,0.156
	c0,0,0-0.156-0.155-0.156h-0.157c0,0,0,0-0.156,0v-0.157c0-0.313-0.157-0.47-0.47-0.626c0-0.313-0.156-0.47-0.313-0.626
	c-0.155,0-0.155,0-0.313,0.156c0-0.626,0-1.097-0.156-1.097h-0.156c-0.155-0.313-0.155-0.626-0.313-0.626
	c-0.156,0-0.313,0.313-0.313,0.782l-0.156-0.156c-0.155,0-0.313,0.156-0.47,0.471l0,0c0-1.097-0.155-1.879-0.313-1.879
	s-0.157,0.155-0.313,0.47c0-0.313-0.156-0.47-0.313-0.47s-0.471,0.626-0.471,1.253c0,0.155,0,0.313,0,0.313l-0.155,0.157l0,0
	l0.155-0.157c0-0.156-0.155-0.313-0.313-0.313s-0.157,0-0.313,0c0-0.157-0.156-0.313-0.313-0.313c0-0.156-0.156-0.313-0.313-0.47
	l0,0c0-0.313-0.156-0.626-0.313-0.626h-0.156c0-0.783,0-1.566-0.156-1.566s-0.313,0.313-0.47,0.939c0-0.47-0.157-0.782-0.157-0.782
	c-0.155,0-0.155,0.156-0.313,0.47c0-0.156-0.156-0.313-0.156-0.313c-0.156,0-0.47,0.783-0.47,1.879c0,0.156,0,0.156,0,0.313l0,0
	c0,0,0,0-0.156,0c0-0.627-0.157-1.097-0.313-1.097c-0.156,0-0.156,0-0.313,0.157c0,0-0.156,0-0.156,0.156
	c0-0.313,0-0.626-0.156-0.626c-0.157,0-0.313,0.313-0.471,0.626c0-0.156-0.155-0.156-0.155-0.313c-0.157,0-0.157,0-0.313,0.157l0,0
	c0-0.313,0-0.627-0.156-0.627s-0.156,0-0.313,0.157c0-0.157-0.156-0.157-0.156-0.157h-0.156l0,0c-0.156,0-0.313,0.157-0.471,0.47
	c0,0,0,0,0-0.156l0,0c0.157-0.626,0-1.096-0.156-1.096c-0.155,0-0.155,0-0.313,0.156l0,0c-0.156,0-0.156,0-0.313,0.156l-0.157-0.156
	c0-0.47-0.156-0.782-0.313-0.782c-0.156,0-0.156,0.156-0.313,0.313c0,0-0.156,0-0.156,0.155c0-0.155-0.157-0.155-0.157-0.155h-0.155
	c0-0.156-0.156-0.313-0.156-0.313s0,0-0.157,0c0-0.157-0.156-0.313-0.313-0.47h-0.156l0,0c0,0,0,0-0.156,0
	c0-0.157-0.156-0.313-0.313-0.313l0,0c0-0.47-0.156-0.626-0.313-0.626s-0.47,0.471-0.47,1.097l0,0c-0.156,0-0.156,0-0.313,0
	c0.157-0.626,0-1.097-0.155-1.097h-0.157l-0.156-0.157c-0.156,0-0.313,0.157-0.313,0.313c0-0.47-0.156-0.783-0.313-0.783
	c0,0-0.157,0-0.157,0.157c0,0,0-0.157-0.155-0.157c-0.156,0-0.471,0.47-0.471,1.097c0,0.156,0,0.313,0,0.313l0,0
	c0-0.156,0-0.313,0-0.47c0-0.626,0-1.252-0.313-1.252c0-0.157-0.156-0.313-0.156-0.313c-0.156,0-0.156,0-0.313,0.313
	c0-0.471,0-0.783-0.157-0.939c0,0-0.156,0-0.156,0.156c0-0.156-0.156-0.156-0.156-0.156s-0.157,0-0.157,0.156l-0.155,0.156
	c0-0.313-0.156-0.471-0.156-0.471c-0.157,0-0.313,0.313-0.47,0.939c0,0,0-0.156-0.157-0.156h-0.156c0.156-1.096,0-1.879-0.155-2.035
	c-0.157,0-0.313,0.313-0.471,0.939c0-0.627,0-0.939-0.156-0.939c0,0,0,0,0-0.157c0.156-0.938,0.313-1.564,0.156-1.722
	c0,0-0.156,0-0.313,0.156c0-0.156-0.156-0.156-0.156-0.156c0-0.313-0.157-0.47-0.157-0.47s-0.155,0-0.155,0.156l0,0
	c-0.156,0-0.313,0-0.313,0.156l-0.156-0.156h-0.155c0-0.156,0.155-0.313,0.155-0.471c0-0.47-0.155-0.781-0.313-0.781
	c0,0-0.156,0-0.156,0.155c0-0.155-0.156-0.155-0.313-0.155c-0.155,0-0.155,0-0.313,0.155c0,0,0,0,0-0.155
	c0.156-0.471,0-0.939-0.313-0.939l0,0c0-0.313-0.156-0.627-0.313-0.627c-0.156,0-0.469,0.313-0.469,0.783
	c0,0.47,0.155,0.783,0.313,0.938l0,0c-0.155-0.155-0.313-0.313-0.47-0.313c0-0.156,0.157-0.313,0.157-0.47
	c0-0.627,0-1.097-0.313-1.097c0,0-0.156,0-0.156,0.156l0,0c-0.156,0-0.313,0-0.313,0.157c0,0,0,0-0.156,0H869.8
	c0-0.157-0.155-0.157-0.155-0.157c0-0.156-0.157-0.313-0.313-0.313s-0.156,0-0.313,0.156c0-0.313-0.157-0.47-0.313-0.47
	c-0.157,0-0.47,0.313-0.47,0.783v0.155h-0.156v-0.155c0.156-0.471,0-0.939-0.156-1.098c-0.156,0-0.313,0-0.313,0.313l0,0
	c-0.157,0-0.313,0.156-0.47,0.47c-0.157-0.156-0.157-0.156-0.313-0.156c0-0.313,0-0.47-0.155-0.627c-0.157,0-0.157,0-0.313,0.157
	c-0.156-0.47-0.313-0.783-0.47-0.783c-0.157,0-0.156,0.156-0.313,0.313l0,0l0,0c0,0-0.155,0-0.155,0.156l-0.156-0.156
	c-0.157,0-0.157,0-0.313,0.156c0,0,0,0,0-0.156c0-0.157,0-0.157,0-0.313c0-0.47-0.155-0.782-0.313-0.782
	c-0.156,0-0.47,0.313-0.47,0.782c0,0.156,0,0.156,0,0.313c0,0.156-0.156,0.313-0.156,0.47c0,0,0,0,0,0.156c0,0,0,0-0.156,0l0,0
	c0-0.156-0.157-0.156-0.313-0.313c-0.156,0-0.313,0-0.313,0.157c-0.157,0-0.157,0.156-0.313,0.313c-0.156,0-0.156-0.156-0.156-0.313
	c0,0,0-0.157,0,0c0-0.313-0.156-0.47-0.313-0.47s-0.313,0.156-0.313,0.47h-0.156c0-0.157-0.157-0.313-0.157-0.313h-0.156
	c0-0.313-0.155-0.471-0.313-0.471s-0.313,0.156-0.313,0.471l-0.156-0.156c-0.157-0.157-0.313,0-0.471,0.313
	c-0.156-0.155-0.156-0.313-0.313-0.313s-0.313,0.156-0.313,0.47l-0.156-0.157h-0.156c-0.157-0.313-0.313-0.626-0.47-0.626
	s-0.313,0.156-0.313,0.471c-0.156-0.156-0.156-0.156-0.313-0.313c-0.156,0-0.156,0-0.156,0l0,0c-0.156,0-0.156,0-0.313,0.157
	c0,0-0.156,0-0.313,0l0,0h-0.157l-0.156-0.157c-0.155,0-0.155,0-0.313,0.157c0-0.157-0.156-0.157-0.156-0.313h-0.156
	c0-0.155-0.156-0.155-0.156-0.155c-0.156,0-0.313,0.155-0.471,0.47l0,0c0-0.47-0.155-0.939-0.313-1.096l0,0
	c-0.156-0.313-0.783-0.783-1.096,0.313c-0.157,0.157-0.157,0.313-0.157,0.47c-0.156-0.155-0.156-0.155-0.313-0.155
	c0-0.313-0.155-0.471-0.313-0.471h-0.156c0,0-0.157,0-0.157-0.155h-0.155l-0.156-0.157c-0.157,0-0.313,0-0.313,0.313l0,0
	c0-0.156,0-0.313,0-0.313c0.156-0.156,0-0.156-0.155-0.156c0,0,0,0-0.157,0c-0.156-0.156-0.626,0-0.626,0.313l-0.156-0.156
	c-0.157,0-0.157,0-0.313,0.156c0-0.156-0.156-0.313-0.313-0.47c-0.156-0.156-0.313,0-0.47,0.156l0,0c0-0.156,0-0.313,0.157-0.47
	v-0.47c0,0,0,0,0-0.156l0,0l0,0c-0.157,0-0.313-0.157-0.628-0.157v0.157l0,0v0.156c0,0,0,0-0.155,0.155l0,0
	c0.155-0.626,0-1.096-0.156-1.096c-0.157,0-0.313,0.156-0.47,0.313c0,0,0,0-0.157,0c-0.156,0-0.313,0.313-0.469,0.781
	c0-0.155-0.157-0.313-0.313-0.313s-0.313,0.156-0.313,0.313l0,0c0.156-0.47,0-0.938-0.156-0.938l0,0
	c0-0.156-0.156-0.156-0.156-0.156c-0.156,0-0.313,0.156-0.313,0.313c0,0,0,0,0-0.157c0,0,0,0,0-0.156s-0.157-0.313-0.313-0.47
	c-0.155-0.157-0.155-0.156-0.313-0.156s-0.157,0-0.157,0.156c0-0.313-0.156-0.471-0.313-0.471c-0.157,0-0.313,0.156-0.313,0.313
	c0-0.157-0.156-0.313-0.156-0.313h-0.157c0-0.626-0.155-0.938-0.313-0.938s-0.313,0.313-0.47,0.938l0,0
	c0-0.313-0.157-0.626-0.47-0.626l0,0c0-0.156,0-0.156,0-0.313c0.313-0.47,0-0.783-0.157-0.939c0.313-0.313-0.939-0.155-0.626,0.939
	v0.156h-0.156l0,0c-0.157,0-0.313-0.156-0.47-0.156c0-0.156,0-0.156-0.157-0.156l0,0h-0.156c0-0.157-0.156-0.313-0.313-0.313
	c0,0,0,0-0.156,0c-0.156-0.313-0.156-0.471-0.313-0.471c-0.157,0-0.157,0.156-0.157,0.313c0-0.47-0.156-0.627-0.313-0.627
	c0,0-0.156,0.157-0.156,0.313c-0.155-0.47-0.313-0.783-0.313-0.626c0,0-0.157,0.313-0.313,0.626
	c-0.627,0.156-0.627,0.471-0.627,0.783h-0.156v-0.157l-0.156,0.157c0,0-0.156,0-0.156-0.157c0,0,0,0,0,0.157
	c-0.156,0-0.313-0.157-0.783-0.157c-0.155-0.155-0.155-0.313-0.47-0.155l0,0c0-0.313-0.155-0.471-0.313-0.471
	c-0.156,0-0.47,0.471-0.47,1.097v0.156c-0.156,0-0.156,0-0.313,0v-0.156c0-0.313-0.156-0.626-0.313-0.782
	c-0.155,0-0.47,0.156-0.47,0.626c0,0.156,0,0.156,0,0.313c-0.155,0-0.155,0-0.313,0c0-0.156,0-0.313-0.157-0.47
	c0.157-0.157,0-0.157,0,0c-0.156-0.157-0.156-0.157,0,0c-0.156,0-0.313,0.156-0.47,0.156s-0.156,0-0.313-0.156
	c0-0.313-0.156-0.47-0.313-0.627c-0.156,0-0.313,0.157-0.471,0.313c0-0.155-0.155-0.313-0.155-0.626c0-0.313-0.47,0.156-0.627,0.782
	v0.157h-0.156v-0.157c0-0.47-0.156-0.782-0.313-0.782c-0.155,0-0.155,0-0.313,0.156c0-0.156,0-0.313-0.157-0.313
	c0-0.156,0-0.156-0.155-0.156c0-0.313-0.156-0.626-0.313-0.626c-0.156,0-0.313,0.47-0.313,0.938c0-0.156-0.156-0.313-0.313-0.47
	c0,0,0,0-0.156,0c0-0.157-0.156-0.313-0.156-0.313c-0.156,0-0.156,0-0.313,0.155c0.156-1.252,0-2.19-0.157-2.19
	c0,0-0.155,0.156-0.313,0.313c0-0.156-0.156-0.313-0.156-0.313c-0.157,0-0.471,0.938-0.313,2.035c0,0.155,0,0.313,0,0.313
	c0-0.313-0.156-0.47-0.313-0.47s-0.47,0.313-0.47,0.626c0-0.47-0.156-0.939-0.313-0.939h-0.156c0-0.313-0.156-0.626-0.313-0.626
	s-0.313,0.313-0.47,0.782c0-0.156-0.157-0.156-0.157-0.156c-0.156,0-0.313,0.313-0.313,0.471c-0.156,0.155-0.313,0.47-0.47,0.782
	v0.156l0,0c0-0.156,0-0.313,0-0.313c0.156-0.313,0.156-0.471,0-0.626c0-0.471-0.157-0.782-0.313-0.782
	c-0.156,0-0.156,0.156-0.313,0.47c0-0.157-0.156-0.157-0.156-0.157l-0.156,0.157c0-0.47,0-0.783-0.157-0.783
	c-0.156,0-0.156,0-0.313,0.313c-0.155,0-0.313,0.156-0.313,0.47h-0.156c-0.156,0-0.156,0.156-0.313,0.313
	c-0.156-0.471-0.156-0.782-0.313-0.782c-0.157-0.157-0.157-0.313-0.313-0.313c-0.156,0-0.313,0.471-0.313,1.097
	c0-0.156-0.156-0.313-0.313-0.313c0,0-0.157,0-0.157,0.156c-0.156-0.47-0.313-0.939-0.47-0.939s-0.156,0.313-0.156,0.626
	c-0.156-0.155-0.156-0.313-0.313-0.313s-0.156,0.156-0.156,0.313c-0.156-0.626-0.313-1.096-0.471-0.938
	c-0.155,0-0.155,0.157-0.155,0.313c-0.157-0.155-0.47-0.155-0.627,0h-0.156c0-0.155,0-0.313-0.156-0.313c0-0.156,0-0.156,0-0.313
	c-0.156,0-0.156,0-0.156,0.156c0-0.783-0.156-1.253-0.313-1.253c-0.157,0-0.313,0.313-0.313,0.939l0,0l0,0
	c0.156-0.471-0.313-0.156-0.47,0.313c0,0,0,0,0,0.156c0-0.156-0.156-0.156-0.156-0.156l0,0c0-0.313,0-0.626,0-0.938
	c0-1.097-0.156-2.035-0.313-2.035s-0.156,0.156-0.156,0.313l0,0c-0.156-0.156-0.626,1.098-0.47,2.662
	c0,0.47,0.156,0.939,0.156,1.252c0-0.313-0.156-0.782-0.313-1.252c-0.627-0.156-0.783-0.156-0.938,0.156l-0.157,0.157
	c0,0-0.156-0.157-0.313-0.157c0,0.157,0,0.313,0,0.47s-0.156,0.157-0.156,0.313h-0.156c0,0-0.156,0-0.156-0.157
	c0-0.469-0.157-0.626-0.157-0.626c-0.155,0-0.313,0.157-0.313,0.626l0,0h-0.156c-0.157-0.313-0.157-0.626-0.313-0.626
	s-0.156,0.313-0.156,0.783c-0.156-0.157-0.156-0.157-0.313-0.157l-0.155,0.157c0,0,0,0,0-0.157
	c-0.157-0.469-0.313-0.782-0.472-0.782c-0.155,0-0.155,0.313-0.313,0.782c0-0.156,0-0.156-0.156-0.156l0,0
	c0.156-1.252-0.157-2.035-0.313-2.035c-0.155,0-0.313,1.097-0.47,2.35c-0.155,0-0.155,0.155,0,0.313l0,0l0,0c0,0,0,0-0.155,0
	c-0.157-0.47-0.313-0.626-0.471-0.626c0,0-0.156,0-0.156,0.156c0,0,0-0.156-0.156-0.156s-0.156,0.156-0.313,0.313l-0.155-0.157
	c-0.471-0.469-0.627-0.156-0.471,0.47c0,0,0,0-0.156,0c0,0.157,0,0.313,0,0.313l0,0c0-0.156-0.156-0.471-0.627-0.471l0,0
	c-0.155,0-0.155,0-0.313,0s-0.156,0-0.313,0c0,0,0,0-0.156,0.156l0,0c0,0,0-0.156-0.157-0.156c0.157-1.096-0.156-0.938-0.313-0.626
	c0,0,0,0,0-0.155c0-0.471-0.155-0.628-0.155-0.628c0,0.157-0.157,0.313-0.157,0.471c-0.156-0.156-0.156-0.313-0.313-0.471
	c0,0-0.156,0-0.156,0.157c0-0.157-0.156-0.313-0.156-0.313l0,0c0.156-0.939,0-1.724-0.156-1.724s-0.47,0.783-0.627,1.724
	c0,0.313,0,0.47,0,0.626l-0.156,0.157c-0.155-0.471-0.313-0.783-0.47-0.783s-0.156,0.156-0.156,0.313
	c-0.156-0.156-0.313-0.313-0.313-0.313s-0.156,0.156-0.156,0.313c0,0,0,0-0.157,0c0,0,0,0-0.155,0c0-0.156-0.156-0.313-0.313-0.313
	c-0.156,0-0.156,0.156-0.313,0.313c0-0.156-0.156-0.313-0.313-0.313c-0.156,0-0.156,0.156-0.313,0.313
	c-0.156-0.313-0.313-0.47-0.313-0.47c0-0.783-0.156-1.409-0.313-1.566c-0.156,0-0.313,0.627-0.471,1.409v0.157c0,0,0,0-0.155-0.157
	l-0.156-0.156c-0.157-0.155-0.157-0.47-0.313-0.47c-0.155,0-0.155,0-0.155,0.156c-0.157-0.47-0.313-0.782-0.471-0.782
	c0,0-0.156,0-0.156,0.156l0,0c-0.156,0-0.313,0.156-0.313,0.47c-0.157,0-0.313,0-0.47,0.156c0,0,0,0-0.157,0
	c0-0.47-0.156-0.626-0.313-0.782c0,0,0,0-0.157-0.157c-0.156-0.155-0.313,0.157-0.47,0.471c-0.156-0.156-0.313-0.156-0.156-0.313
	c0-0.157,0-0.157-0.156,0c0-0.157-0.157-0.157-0.157-0.157s0,0-0.155,0c0-0.155-0.156-0.155-0.156-0.155
	c-0.156,0-0.156,0.155-0.156,0.155c0-0.626-0.157-0.938-0.471-0.938c-0.156,0-0.156,0.157-0.313,0.47l0,0
	c-0.155,0-0.47,0.627-0.47,1.409c0-0.313-0.157-0.626-0.313-0.626c-0.156,0-0.471,0.47-0.471,0.938c-0.156,0-0.156,0-0.313,0v-0.155
	c0-0.783-0.157-1.566-0.313-1.566c0,0-0.155,0-0.155,0.157c0-0.157-0.157-0.157-0.157-0.157c-0.156,0-0.47,0.627-0.47,1.409
	c0,0.157,0,0.313,0,0.47c-0.156,0-0.313,0-0.471,0c0-0.156,0-0.313,0-0.313c0.157-0.783,0.157-1.409,0-1.409
	c0,0-0.156,0-0.156,0.156c0-0.156-0.155-0.156-0.155-0.156c-0.157,0-0.313,0.313-0.313,0.626c0-0.156-0.156-0.156-0.156-0.156l0,0
	c0-0.627-0.156-0.938-0.313-0.938s-0.156,0.155-0.313,0.47c-0.156,0.313-0.313,0.626-0.313,1.252c0,0,0,0.157-0.156,0.157
	c0,0,0,0-0.157,0c0-0.157,0-0.157,0-0.313c0.157-0.783,0-1.253-0.155-1.409c-0.157,0-0.157,0.156-0.313,0.313
	c0-0.313-0.156-0.627-0.313-0.627c-0.157,0-0.313,0.157-0.313,0.47c-0.155,0-0.155,0.157-0.155,0.157c0-0.313-0.157-0.47-0.157-0.47
	c-0.156,0-0.156,0.155-0.313,0.313c0,0,0-0.156-0.156-0.156s-0.313,0.471-0.471,1.097c0-0.939-0.156-1.565-0.313-1.565
	c-0.157,0-0.313,0.626-0.471,1.565c0-0.626-0.156-1.097-0.313-1.097c0,0-0.156,0.156-0.156,0.313c0-0.313-0.156-0.47-0.156-0.47
	c-0.156,0-0.313,0.313-0.471,0.938c0,0,0,0-0.156-0.157h-0.155l0,0c0,0-0.156,0-0.156,0.157c0-0.313,0-0.47-0.157-0.47
	c-0.156,0-0.156,0-0.313,0.156c0-0.313-0.156-0.471-0.313-0.471s-0.313,0.313-0.47,0.783l-0.157,0.156
	c0-0.783-0.155-1.253-0.313-1.253c0,0,0,0-0.156,0c0-0.156-0.157-0.313-0.157-0.313c-0.156,0-0.156,0.156-0.313,0.313
	c0-0.47-0.157-0.626-0.313-0.782c-0.155,0-0.313,0.313-0.47,0.626c0,0,0,0-0.156,0c0-0.156-0.156-0.313-0.156-0.313
	c-0.156,0-0.313,0.156-0.471,0.47c0-0.313-0.156-0.47-0.313-0.47c-0.157,0-0.471,0.313-0.471,0.782l-0.156,0.156
	c0-0.156,0-0.156-0.156-0.156c0,0,0,0-0.156,0c0,0-0.156-0.155-0.313-0.155s-0.156,0-0.313,0.155c0,0-0.157-0.155-0.313-0.155
	c0,0-0.157,0-0.157,0.155l0,0h-0.156l-0.156-0.155c-0.155,0-0.155,0-0.313,0.155c0-0.155-0.156-0.155-0.313-0.313
	c-0.157,0-0.313,0.157-0.313,0.313c0,0,0,0-0.156,0h-0.157l0,0c0-0.313-0.155-0.47-0.47-0.47c-0.155,0-0.155,0-0.313,0.156
	c0,0-0.157-0.156-0.313-0.156s-0.156,0-0.313,0.156c-0.471-0.156-1.096-0.313-1.565-0.47c-1.409-0.313-2.817-0.313-3.914-0.156
	c0,0-0.155-0.156-0.313-0.156c-0.156,0-0.313,0.156-0.313,0.156h-0.156c-0.156,0-0.471-0.156-0.627-0.156
	c0-0.313-0.155-0.627-0.313-0.627s-0.313,0.157-0.471,0.47c-0.156,0-0.156,0-0.313,0c0-0.155-0.155-0.155-0.155-0.313
	c-0.157,0-0.157,0-0.313,0c0,0,0-0.157-0.157-0.157c0-0.313-0.156-0.626-0.313-0.782c-0.156,0-0.313,0.156-0.471,0.626
	c0,0,0,0-0.155,0l0,0c0-0.313,0-0.626-0.313-0.782c-0.156,0-0.313,0.156-0.47,0.47l0,0h-0.156l0,0c-0.157,0-0.157,0-0.313,0
	c0-0.156-0.156-0.313-0.313-0.313c-0.156,0-0.156,0.156-0.313,0.156c0,0,0,0-0.157,0c0-0.313-0.156-0.626-0.313-0.626
	c-0.156,0-0.313,0.156-0.313,0.313c-0.156-0.156-0.156-0.156-0.313-0.156h-0.156c0-0.156-0.156-0.313-0.313-0.313
	s-0.313,0.313-0.313,0.626c-0.157,0-0.157,0.156-0.313,0.313c-0.626-0.47-1.879-0.626-2.661,0c0,0,0,0-0.156,0
	c0,0-0.156,0-0.156,0.156c-0.313,0.156-0.47,0.471-0.626,0.626l-0.157-0.155c-0.156,0-0.156,0-0.156,0.155
	c0-0.313-0.155-0.626-0.313-0.626c-0.157-0.156-0.313,0.313-0.472,0.939c0-0.157-0.155-0.313-0.313-0.313
	c0-0.313-0.156-0.47-0.313-0.47s-0.313,0.313-0.471,0.783l-0.156-0.157c0,0,0,0-0.155,0l0,0c0,0-0.157,0-0.157,0.157
	c0-0.313-0.156-0.47-0.313-0.47c-0.157,0-0.157,0-0.313,0.155l0,0c-0.156,0-0.156,0.156-0.313,0.313
	c-0.155-0.157-0.155-0.313-0.313-0.313s-0.313,0.471-0.313,0.939c0-0.156,0-0.156-0.156-0.156l0,0h-0.157
	c0-0.157-0.156-0.47-0.156-0.47c-0.155,0-0.155,0.156-0.313,0.313c-0.156-0.313-0.156-0.47-0.313-0.313
	c-0.156,0-0.313,0.47-0.313,0.938l0,0c0-0.313,0-0.47-0.156-0.47c-0.157,0-0.313,0-0.47,0.156c0-0.47-0.156-0.783-0.313-0.783
	c-0.156,0-0.156,0.157-0.313,0.313l0,0c-0.156,0-0.313,0.47-0.469,0.938l-0.157-0.156l0,0c0.157-0.627,0.157-1.253,0-1.408
	c-0.156,0-0.313,0.155-0.313,0.313c0-0.156-0.156-0.156-0.156-0.156c-0.156,0-0.313,0.156-0.313,0.471
	c-0.313-0.626-0.627-1.097-0.783-0.939c0,0-0.155,0.156-0.155,0.313c0-0.157-0.157-0.471-0.157-0.471
	c-0.156-0.156-0.313,0.156-0.47,0.782l0,0c0-0.156,0-0.313,0-0.47c0-0.313,0-0.626-0.313-0.782
	c-0.157-0.156-0.157-0.156-0.313-0.156l0,0c-0.155-0.313-0.313-0.313-0.47-0.313s-0.155,0.313-0.155,0.47l0,0
	c0,0-0.156,0-0.156-0.156s0-0.313-0.157-0.313c0-0.157,0-0.157,0-0.313c0-0.626-0.313-1.096-0.47-1.096l-0.156,0.156
	c0-0.313-0.156-0.471-0.313-0.471s-0.156,0-0.156,0.157c-0.157-0.313-0.313-0.47-0.313-0.47c-0.155,0-0.313,0.313-0.313,0.626
	c0-0.156,0-0.313,0-0.313c0-0.782-0.157-1.253-0.313-1.409c-0.156,0-0.313,0.47-0.47,1.253c0-0.313-0.156-0.47-0.313-0.47
	c-0.155,0-0.47,0.782-0.47,1.723c0,0,0,0,0,0.156l0,0l0,0l0,0h-0.155c-0.471,0-0.939,0.155-1.409,0.155l-0.156-0.155
	c-0.157,0-0.157,0-0.157,0.155c0,0,0-0.155-0.156-0.155c0-0.156-0.155-0.313-0.313-0.313s-0.471,0.313-0.471,0.783h-0.156
	c0-0.313-0.156-0.47-0.313-0.47c-0.156,0-0.313,0.313-0.313,0.626c0,0,0,0-0.157,0h-0.156c0-0.471-0.155-0.782-0.313-0.782
	c0,0-0.157,0-0.157,0.156c0-0.156,0-0.313-0.156-0.313c0,0-0.155,0-0.313,0.157c0-0.157-0.156-0.157-0.156-0.157
	c-0.156,0-0.156,0.157-0.313,0.157c-0.156-0.313-0.156-0.47-0.313-0.47l-0.157,0.155c-0.155-0.155-0.155-0.313-0.313-0.155l0,0
	c0-0.471,0-0.783-0.157-0.783c-0.156,0-0.156,0.156-0.313,0.313c0-0.313,0-0.627,0-0.627c-0.157,0-0.471,0.471-0.783,1.253h-0.156
	c-0.157,0-0.157,0.156-0.313,0.313c0-0.157-0.156-0.313-0.313-0.313l0,0c0-0.47-0.313-0.782-0.471-0.782l0,0
	c-0.156-0.156-0.313-0.313-0.156,0c0,0.313,0,0.313-0.156,0.47c0-0.156-0.155-0.156-0.313-0.313c0-0.313,0-0.47-0.156-0.627h-0.157
	c0-0.47-0.156-0.938-0.313-0.938c-0.157,0-0.156,0.156-0.313,0.156c0-0.313-0.155-0.47-0.313-0.47s-0.157,0.156-0.313,0.156
	l-0.156-0.156c-0.156,0-0.156,0-0.313,0.156c0-0.156-0.156-0.313-0.313-0.313l0,0c0-0.155-0.156-0.155-0.156-0.313
	c0-0.313-0.156-0.47-0.313-0.47c0,0-0.155,0-0.155,0.155c-0.156-0.155-0.156-0.155-0.313-0.313v-0.157c0-0.156,0-0.156,0-0.313
	c0,0,0,0,0-0.157c0-0.47-0.313-0.939-0.47-0.939s-0.313,0.313-0.313,0.627c0,0,0,0-0.157,0c0-0.47,0-0.782-0.155-0.938
	c0,0-0.156,0-0.156,0.156c0-0.783,0-1.409-0.313-1.409c-0.155,0-0.313,0.47-0.47,1.253l0,0c0,0,0-0.157-0.155-0.157
	c0-0.156-0.156-0.313-0.156-0.313c0-0.783,0-1.253-0.157-1.409c-0.156,0-0.47,0.782-0.626,1.879
	c-0.156-0.313-0.156-0.627-0.313-0.627s-0.156,0.157-0.313,0.313l-0.157-0.155c-0.156,0-0.156,0.155-0.156,0.155s0,0,0-0.155
	c0-0.471,0-0.783-0.313-0.939c-0.156,0-0.156,0-0.313,0.156c-0.157-0.313-0.313-0.626-0.471-0.471
	c-0.156,0.156-0.156,0.313-0.313,0.471l0,0c0-0.156-0.156-0.313-0.313-0.313l0,0c0-0.313-0.155-0.47-0.313-0.47h-0.157h-0.156
	c-0.156,0-0.156,0-0.313,0.157l0,0l0,0c0-0.313,0-0.627-0.156-0.627s-0.47,0.47-0.626,0.938v0.157l0,0
	c0-0.47-0.157-0.627-0.313-0.627c0-0.313-0.155-0.626-0.313-0.626s-0.157,0-0.313,0.156l0,0c-0.157,0-0.471,0.313-0.471,0.782
	c0,0,0,0,0,0.156c0-0.313-0.313-0.626-0.47-0.626s-0.156,0.157-0.313,0.47c0-0.313-0.155-0.47-0.313-0.47s-0.47,0.157-0.47,0.47
	c0,0,0,0,0,0.156h-0.157c-0.156,0-0.313,0-0.313,0l0.155-0.156c0-0.155-0.938-0.155-1.879,0.313l0,0
	c-0.156,0-0.313,0.156-0.626,0.313c0-0.313-0.157-0.626-0.313-0.626c-0.156,0-0.313,0.313-0.471,0.626l0,0
	c-0.155,0-0.47,0.313-0.47,0.628l0,0c0,0-0.156,0-0.156,0.155l0,0c0.313-0.626,0.471-1.096,0.313-1.253
	c-0.156,0-0.313,0-0.469,0.313c0,0,0-0.156-0.157-0.156c-0.156,0-0.313,0.313-0.47,0.626c0,0,0,0,0,0.156
	c-0.156,0.157-0.156,0.157-0.313,0.313c0-0.47,0-0.783-0.157-0.783c-0.155,0-0.313,0.157-0.47,0.471l0,0
	c-0.156,0-0.313,0.313-0.47,0.783c0-0.313,0-0.471-0.156-0.626c0,0,0,0-0.156,0c0-0.471,0-0.783-0.156-0.783
	s-0.471,0.626-0.626,1.723c0-0.47-0.156-0.783-0.313-0.783c-0.156,0-0.469,0.783-0.469,1.724l0,0l0,0c0-0.313,0-0.471-0.157-0.471
	c-0.156,0-0.47,0.471-0.782,1.252c-0.156,0.157-0.156,0.157-0.313,0.313c-0.47,0.47-0.626,0.938-0.783,1.564
	c-0.156,0.156-0.156,0.471-0.313,0.783c0-0.313-0.157-0.47-0.157-0.47c-0.156,0-0.47,0.626-0.626,1.409c0-0.627,0-0.939-0.156-1.098
	c-0.157,0-0.313,0.313-0.47,0.783c0,0,0,0-0.157,0c-0.156,0-0.156,0.156-0.313,0.313l0,0c0,0-0.157,0-0.313,0.155
	c0-0.155-0.156-0.155-0.156-0.155h-0.157c0-0.157-0.155-0.157-0.155-0.157c-0.156,0-0.156,0.157-0.313,0.157h-0.156l0,0
	c0-0.157,0-0.313-0.155-0.313c-0.156,0-0.313,0.156-0.627,0.471c0-0.313,0-0.471-0.156-0.627c-0.156,0-0.156,0.156-0.313,0.313
	l-0.156-0.156c-0.156,0-0.471,0.626-0.471,1.409l0,0l0,0c0-0.156,0-0.156,0-0.313c0-0.313-0.155-0.471-0.155-0.626
	c0-0.471,0-0.783,0-0.783c-0.156-0.156-0.313,0.157-0.626,0.627l-0.157-0.157c-0.156,0-0.313,0.313-0.47,0.783
	c0-0.156,0-0.313-0.156-0.313c0,0-0.156,0-0.156,0.157l-0.156-0.157l0,0c0-0.47-0.156-0.781-0.313-0.781s-0.47,0.47-0.47,1.252
	c0,0,0,0,0,0.156s-0.157,0.313-0.157,0.471l0,0c0-0.157-0.156-0.157-0.156-0.157c0-0.156-0.155-0.156-0.313,0
	c0-0.156-0.156-0.47-0.156-0.47c-0.156,0-0.47,0.156-0.47,0.47c0-0.156-0.156-0.156-0.156-0.313h-0.156
	c0-0.313-0.156-0.627-0.313-0.627c-0.157,0-0.313,0.157-0.313,0.471c0-0.156-0.155-0.471-0.313-0.471s-0.157,0.157-0.313,0.313
	c-0.156-0.156-0.156-0.156-0.313-0.156s-0.156,0.156-0.313,0.313c-0.47-0.313-1.097-0.626-1.879-0.939c0,0,0-0.156-0.157,0
	c-0.155,0-0.47-0.156-0.626-0.156c0.156-0.626-0.155-0.313-0.155,0c-0.157,0-0.313,0-0.471-0.155c0.156-0.313-0.156-0.157-0.313,0
	h-0.156l0,0c-0.313-0.157,0.939-0.157-0.627-0.471v0.313c-0.469,0-1.096,0-1.564,0.157c-0.471,0-0.939,0-1.409,0.155
	c-0.156,0-0.156,0-0.313,0c0-0.155-0.156-0.155-0.156,0c0,0,0,0-0.156,0l0,0c0-0.155,0-0.313,0-0.47c0,0,0.156-0.156,0.156-0.47
	c-0.939-0.156-0.939,0.155-0.782,0.313l0,0h-0.157c0-0.47,0-0.783-0.156-0.783s-0.313,0.156-0.47,0.471
	c0-0.313-0.156-0.471-0.313-0.471c-0.155,0-0.313,0.156-0.47,0.471c0,0-0.155,0.155-0.155,0.313c-0.156,0-0.313-0.157-0.313-0.157
	c0-0.313,0-0.47-0.157-0.47c0-0.313-0.156-0.47-0.156-0.313c-0.156,0-0.313,0.313-0.313,0.626c-0.156,0-0.47-0.156-0.626-0.156
	c0-0.47,0-0.783-0.157-0.939c-0.156,0-0.313,0.156-0.313,0.313c0-0.313-0.156-0.626-0.156-0.626c-0.157,0-0.313,0.313-0.47,0.938
	h-0.157v-0.155c0,0-0.156,0-0.156,0.155c0,0,0,0-0.156,0c0,0,0,0,0-0.155c0.156-0.627,0-1.098-0.313-1.098
	c-0.156,0-0.313,0.157-0.47,0.471h-0.156c-0.157,0.156-0.157,0.313-0.313,0.627l-0.155-0.157l0,0c0-0.47,0-0.782-0.313-0.782
	c0,0-0.156,0-0.156,0.156c0-0.156-0.156-0.313-0.156-0.313c-0.156,0-0.156,0.157-0.156,0.157c0-0.157-0.156-0.157-0.156-0.157
	c-0.156,0-0.313,0.313-0.313,0.471c0-0.313-0.156-0.471-0.313-0.471c0,0-0.155,0-0.155,0.157c0-0.157,0-0.157-0.156-0.157
	c-0.157,0-0.471,0.471-0.626,1.098c0-0.313,0-0.471-0.157-0.471c0-0.47,0-0.938-0.156-0.938s-0.156,0.156-0.313,0.313
	c0-0.47-0.156-0.781-0.313-0.781h-0.157c0-0.157-0.155-0.157-0.155-0.157c-0.157,0-0.47,0.783-0.47,1.565
	c0,0.156-0.156,0.313-0.156,0.471c0-0.157,0-0.313-0.157-0.313c-0.156,0-0.313,0.156-0.313,0.47c0-0.313-0.156-0.47-0.156-0.626
	c-0.156,0-0.471,0.626-0.626,1.409c0,0,0,0.156-0.156,0.313c0,0,0-0.156-0.157-0.156c-0.156,0-0.313,0.313-0.47,0.626
	c0.157-1.096,0.157-2.035-0.156-2.035c-0.155,0-0.313,0.47-0.47,1.096v-0.155h-0.156c0-0.156-0.156-0.156-0.156-0.156
	c-0.156,0-0.156,0.156-0.313,0.313c0-0.313,0-0.471-0.157-0.627h-0.156c0-0.313,0-0.626-0.155-0.626
	c-0.156,0-0.313,0.313-0.627,0.939c0-0.157,0-0.313-0.156-0.313s-0.47,0.471-0.626,1.409c-0.157,0.156-0.313,0.471-0.313,0.783
	c0-0.157-0.155-0.313-0.155-0.313c-0.156,0-0.156,0.155-0.313,0.313c-0.782,0-1.565,0-2.349-0.157c0-0.47-0.156-0.781-0.313-0.781
	s-0.313,0.313-0.47,0.781c-0.313,0-0.626,0-0.783-0.155l0,0c0-0.626-0.156-1.097-0.47-1.097l0,0v-0.157l0,0
	c0.156-0.313,0-0.47-0.156-0.155h-0.155c-0.157,0-0.157,0-0.313,0c-0.313-0.471-0.313-0.156-0.313,0.313l0,0l0,0l0,0
	c-0.155-0.157-0.155-0.157-0.47,0c-0.313,0,0.47-0.313-0.47-0.313c-0.156,0-0.156,0-0.156,0c-0.156-0.313,0.156-0.783-0.156-1.097
	c0,0,0,0,0-0.156c-0.156,0-0.156,0-0.156,0c-0.156,0-0.156,0-0.313,0c0,0.156,0,0.156,0,0.156c-0.157,0.156-0.157,0.313-0.157,0.313
	c0-0.156-0.155-0.313-0.313-0.313s-0.47,0.471-0.47,1.252l0,0h-0.157c0,0,0,0,0-0.155l0,0l0,0c0-0.156,0-0.313,0-0.313
	c0-0.782,0-1.252-0.313-1.252c-0.157,0-0.313,0.313-0.313,0.626l0,0l0,0l0,0c0.156-0.783,0-1.409-0.313-1.409
	c-0.155,0-0.47,0.626-0.47,1.409l0,0c0-0.156-0.155-0.313-0.155-0.313s-0.156,0-0.156,0.156c0,0,0,0-0.157,0
	c0-0.627-0.156-1.097-0.313-1.097c-0.156,0-0.313,0.47-0.47,1.097c0-0.313-0.157-0.627-0.313-0.627c0,0-0.156,0-0.156,0.157
	c0-0.47-0.156-0.783-0.313-0.783c-0.155,0-0.313,0.313-0.47,0.626c0-0.313-0.155-0.626-0.313-0.626s-0.157,0.156-0.313,0.313
	c0-0.627-0.156-0.939-0.313-0.939s-0.156,0.156-0.313,0.471l-0.157-0.157c-0.155,0-0.313,0.313-0.313,0.627
	c0-0.47-0.157-0.939-0.157-0.939c0-0.47-0.155-0.938-0.313-0.938s-0.157,0.156-0.313,0.313c0-0.155,0-0.155-0.156-0.313h-0.156
	c0-0.626-0.156-1.096-0.313-1.096s-0.47,0.781-0.47,1.878v0.156c-0.157,0-0.157,0-0.313,0h-0.156l0,0c0-0.156,0-0.156,0-0.313
	c0.313-0.156,0.156-0.47,0-0.626c0.156-0.157,0.156-0.313-0.156-0.313c0-0.155-0.157-0.313-0.157-0.313l0,0
	c0-0.313-0.155-0.47-0.155-0.627c0.155-0.626,0.155-1.097,0-1.252c-0.157,0-0.313,0.313-0.471,0.782c-0.156,0-0.313,0-0.313,0
	c0-0.627-0.156-1.253-0.313-1.253c-0.155,0-0.313,0.313-0.469,0.939c0-0.313,0-0.47-0.157-0.47c-0.156,0-0.313,0.155-0.47,0.626
	c0-0.313-0.156-0.471-0.156-0.471s0,0-0.155,0c0-0.155-0.157-0.313-0.157-0.313c-0.156,0-0.156,0.157-0.313,0.157
	c0-0.157-0.156-0.313-0.156-0.313c-0.156,0-0.313,0.156-0.471,0.47c0-0.155-0.156-0.155-0.156-0.155
	c-0.155,0-0.155,0.155-0.155,0.155l0,0c-0.313,0-0.47,0-0.783,0.156c-0.156,0-0.156,0-0.313,0.157c0-0.313-0.155-0.627-0.313-0.627
	c0,0-0.156,0-0.156,0.157l-0.157-0.157c-0.155,0-0.155,0.157-0.313,0.313c-0.156-0.313-0.156-0.47-0.313-0.47
	c-0.156,0-0.155,0.156-0.313,0.313l0,0l0,0h-0.156v0.155c-0.157,0.156-0.157,0.471-0.157,0.783l0,0c-0.155,0-0.155,0-0.313,0l0,0
	c0.156-0.783,0.156-1.409,0-1.565h-0.156c0-0.313,0-0.471-0.157-0.471c-0.155-0.155-0.47,0.471-0.781,1.409
	c-0.157,0-0.157,0-0.313-0.156c0.156-0.782,0.313-1.564-0.313-1.408c-0.156-0.156-0.313,0-0.313,0.155c0,0,0,0-0.157,0.157
	c0-0.313,0-0.47,0-0.47l0,0l-0.155-0.157c0-0.156-0.156-0.156-0.313,0c-0.156-0.156-0.313-0.156-0.313,0l-0.157-0.156l0,0
	c-0.156-0.47-0.313-0.782-0.47-0.782c0,0-0.156,0-0.156,0.156c0-0.47-0.156-0.938-0.313-0.938c-0.155,0-0.155,0.156-0.313,0.47l0,0
	c0,0-0.157,0-0.157,0.156c0-0.47-0.156-0.782-0.313-0.782c0,0-0.156,0-0.156,0.156c0,0,0,0,0-0.156c0-0.157-0.157-0.313-0.313-0.313
	l0,0c0-0.627-0.313-1.097-0.47-1.097s-0.156,0.156-0.313,0.47c-0.156-0.313-0.156-0.627-0.313-0.627
	c-0.156,0-0.313,0.313-0.313,0.627c0,0,0,0.156-0.156,0.156V540h626.268V307.342c-0.313,0-0.626-0.157-0.938-0.157
	C1269.853,306.715,1269.853,306.245,1269.853,305.775z"/>
</svg>
