<?xml version="1.0" encoding="utf-8"?>
<!-- Generator: Adobe Illustrator 16.0.0, SVG Export Plug-In . SVG Version: 6.00 Build 0)  -->
<!DOCTYPE svg PUBLIC "-//W3C//DTD SVG 1.1//EN" "http://www.w3.org/Graphics/SVG/1.1/DTD/svg11.dtd">
<svg version="1.1" id="Layer_1" xmlns="http://www.w3.org/2000/svg" xmlns:xlink="http://www.w3.org/1999/xlink" x="0px" y="0px"
	 width="1920px" height="540px" viewBox="0 0 1920 540" enable-background="new 0 0 1920 540" xml:space="preserve">
<path fill="#A9C8FF" d="M1273.134,540V402.534c-0.156-0.156-0.313-0.156-0.469-0.313l0,0c0.156-0.627,0.313-0.938,0.469-1.253
	v-0.155c0,0.155,0,0.155,0,0v-0.628l-0.156-0.155c-0.782-0.471-1.564-1.097-2.661-1.565c-0.626-0.313-1.408-0.47-2.191-0.47
	c0-0.47,0.156-1.096,0.156-1.565c0-2.662-0.626-4.854-1.565-4.854c-0.47,0-0.781,0.47-1.096,1.409
	c-0.47-1.409-1.097-2.35-1.723-2.191c-0.782,0.156-1.097,1.879-0.939,4.07h-0.156c-0.155-2.35-0.782-4.07-1.564-4.07
	c-0.939,0-1.566,2.191-1.566,4.854c0,0.313,0,0.471,0.157,0.627c0,0.156,0,0.313-0.157,0.313c-0.156,0-0.469-0.157-0.781-0.313
	c0.313,0.156,0.313,0,0,0c-0.157-0.156-0.471-0.156-0.627-0.313c0-0.157,0-0.313,0-0.47c0.47-2.036,0.47-4.229-0.313-4.385
	c-0.626-0.156-1.723,0.938-2.349,2.661c-0.156-2.191-0.939-3.914-1.88-3.914c-0.625,0-1.096,0.939-1.252,2.506
	c-0.156-1.253-0.627-2.035-1.097-2.035c-0.313,0-0.626,0.313-0.938,0.782c-0.626-1.408-1.252-2.506-1.879-2.349
	c-0.782,0-1.097,1.565-0.782,3.602c-0.313,0.155-0.627,0.313-0.783,0.782c-0.156,0-0.156,0,0,0l0,0
	c-0.313-0.156-0.47-0.156-0.626-0.156c-0.157-2.661,0.313-4.696-0.47-5.011c-0.313-0.155-0.939,0.313-1.566,1.409
	c-0.156,0-0.156-0.156-0.313-0.156c-0.626,0-0.939,1.097-1.253,2.661c-0.313,0-0.471-0.155-0.313-0.155l0,0l0,0l0,0l-0.313,0.313
	v0.157c0,0-0.155,0-0.47,0l0,0c0.313-0.939,0.626-1.724,0.156-2.192c-0.156-0.156-0.782-0.156-1.252,0.157v-0.157
	c-0.313-0.313-1.409,0.157-2.192,1.253c-0.155-1.879-0.781-3.288-1.564-3.288s-1.409,1.409-1.565,3.132
	c-0.155-0.156-0.155-0.156-0.313-0.313c-0.156-0.157-0.313-0.157-0.313-0.157c0.157-0.938,0.313-1.564-0.155-1.878
	c-0.471-0.47-2.191,0.626-3.132,2.661c-0.627-1.096-1.565-1.565-2.035-1.409c-0.313,0.157-0.471,0.471-0.471,1.097
	c-0.313-0.471-0.626-0.626-0.938-0.626c-0.156,0-0.313,0.155-0.626,0.313c-0.626-1.096-1.565-1.565-2.035-1.565
	c-0.156-0.47-0.313-0.627-0.626-0.782c-0.47-0.156-1.409,0.626-1.879,1.879c-0.156,0-0.313,0.156-0.47,0.156
	c-0.157-1.723,0-2.818-0.313-3.288c-0.156-0.156-0.47-0.156-0.938,0.156c-0.313-1.565-0.939-2.661-1.409-2.661
	c-0.626,0-1.097,2.034-1.252,4.696c-0.939-0.155-1.724-0.155-0.626,0l0,0l0,0l0,0v0.156l-0.157,0.313l-0.156,0.47
	c0,0,0,0.156-0.157,0.156c-0.469-1.723-1.096-2.818-1.879-2.818c-0.469,0-0.781,0.47-0.938,1.253
	c-0.156-1.565-0.313-2.818-0.938-2.975c-0.47-0.157-1.253,0.781-1.723,2.19c-0.156-0.313-0.47-0.47-0.626-0.47
	c-0.47,0-0.938,0.783-1.253,1.879c-0.156-0.313-0.313-0.47-0.626-0.626c-0.47-0.156-1.409,0.626-1.879,2.035l0,0
	c0.155-1.879,0.155-3.444-0.47-3.602c-0.156-0.313-0.156-0.627-0.471-0.782c-0.47-0.471-2.505,1.564-2.349,4.54
	c-0.156,0-0.313,0.156-0.626,0.313l0,0c0-0.156,0-0.156,0-0.313c0.156-1.253,0.313-2.035-0.156-2.506
	c-0.157-0.155-0.471-0.155-0.783,0c-0.155-0.313-0.47-0.47-0.626-0.47c-0.47,0-0.938,0.939-1.253,2.35
	c-0.156,0.313-0.313,0.626-0.47,0.938h-0.313l-0.155-0.47l0,0l0,0c1.409-0.156,0.313,0-0.939,0c0-1.565,0-2.661-0.626-2.976
	c-0.626-0.313-2.191,1.409-2.505,4.07h-0.157h-0.47c-0.156-0.47,0-0.47,0,0h-0.313l0,0c0.626-2.817,0.47-5.166-0.471-5.479
	c-0.626-0.156-1.564,1.253-2.191,3.443c-0.156-1.096-0.47-1.722-0.939-1.879c-0.626,0-1.252,0.939-1.722,2.662l-0.157-0.157
	c-0.156-0.156-0.626-0.156-1.252,0.313c-0.47-0.939-1.096-1.565-1.565-1.565s-0.782,0.626-0.939,1.565
	c-0.469,0.313-0.782,0.938-1.252,1.564v-0.155l0,0c-0.313-2.35-0.939-3.914-1.564-3.759c-0.471,0-0.783,0.939-1.098,2.35
	l-0.782-2.035l-0.47-1.253l-0.156-0.626v-0.156l0,0l0,0c1.097,0,0.626,0-0.156,0c-0.156-1.097-0.471-1.723-0.939-1.879
	c-0.47-0.157-1.252,0.782-1.564,2.035c-0.313,0-0.471,0-0.313,0v0.155v0.313l0,0c-0.626,0-0.938,0,0,0l-0.156,2.035l-0.155-0.156
	c-0.157,0-0.157,0-0.313,0v-0.156c0.156-3.915,1.096-7.202,0.313-7.516c-0.471-0.313-2.036,1.409-2.818,4.07
	c-0.47-0.313-2.036,1.408-2.662,4.07l0,0c-0.47-0.155-1.564,1.252-2.191,3.444c-0.782,0.47-1.723,1.879-2.035,3.914
	c0,0.313,0,0.47,0,0.783c0,0-0.156,0-0.313,0v-0.157l0,0c0.313,0-0.783,0-1.723-0.156c0-1.879,0-3.131-0.782-3.443
	c-0.627-0.313-1.723,1.096-2.192,3.131c-0.155-1.408-0.782-2.349-1.564-2.349c-0.939,0-1.565,1.408-1.565,3.287l0,0
	c-0.313-1.564-0.938-2.661-1.723-2.505c-0.626,0.157-1.096,1.096-1.252,2.349c-1.097-0.155-1.723-0.155-1.879-0.155
	c0,0,0,0-0.157-0.157c-0.156,0-0.156,0-0.313,0c-0.313-0.47-0.782-0.782-1.097-0.782c-0.626,0.156-1.096,1.252-1.252,2.661
	c-1.253,0-2.349,0-0.938,0l0,0v0.157v0.782c0,0.47-0.157,0.938-0.157,1.408h-0.156c0-0.155,0-0.155,0-0.313
	c-0.155-0.47-0.155-0.783-0.155-1.253v-0.626v-0.313l0,0l0,0V399.4l0,0c1.096,0,0.626,0-0.157,0c0.157-2.507,0-4.541-0.782-4.697
	c-0.47-0.156-1.253,1.096-1.879,2.818l0,0c-0.626-0.157-1.565,1.252-2.349,3.287v-0.156v-1.097v-0.626v-0.156l0,0l0,0
	c0.155,0,0.313,0,0,0l0,0c-0.471,0-0.783-0.156-1.097-0.156c-0.156-0.156-0.313-0.313-0.47-0.313s-0.47,0-0.627,0.157
	c-1.409-0.157,0.627,0-0.313,0l0,0l0,0l0,0v0.156v0.156l0,0c-0.626,0.627-1.098,1.879-1.409,3.443c0,0.313,0,0.627,0,0.783h-0.156
	c0-2.035-0.627-3.601-1.566-3.601c-0.626,0-1.252,0.938-1.564,2.19c-0.156,0-0.156,0-0.313,0c-0.47-0.782-0.938-1.252-1.564-1.096
	c-0.156,0-0.313,0.156-0.47,0.313v-0.156h-0.156c-0.313-0.782-0.783-1.409-1.253-1.409c-0.626,0-1.096,0.782-1.409,2.036
	c0-1.409-0.47-2.35-0.939-2.507c-0.626-0.155-1.407,0.939-1.879,2.35c-0.155-2.035-0.313-3.444-0.938-3.602
	c-0.313-0.156-0.939,0.626-1.408,1.723c-0.157,0-0.157,0-0.313,0c0.313-2.191,0.47-4.07-0.157-4.228
	c-0.626-0.157-2.349,1.723-3.131,5.01c-0.939-0.155-1.565-0.313-0.471-0.155l0,0l0,0v0.155l-0.155,0.313l-0.313,0.47
	c-0.156,0.313-0.313,0.626-0.313,0.939l0,0l0,0l0,0c0,0.156,0,0.156,0,0.313c-0.157,0-0.157,0-0.313,0.156l0,0
	c0-1.722-0.626-3.131-1.409-3.131s-1.409,1.096-1.564,2.505c-0.157,0-0.313,0-0.313,0c0.156-0.938,0.156-2.035,0.313-3.131v-0.313
	l0,0l0,0v-0.155l0,0l0,0c1.252,0.155,0.47,0-0.783-0.157c-0.156-0.782-0.47-1.409-0.783-1.565c-0.47-0.155-1.096,0.471-1.722,1.565
	c-0.47,0-0.627,0,0,0c-0.156,0.313-0.313,0.783-0.47,1.253c-0.313-0.47-0.626-0.939-1.098-0.939c-0.469,0-0.938,0.471-1.252,1.097
	c-0.313,0-0.626,0-0.938,0l0,0c0.156-1.097,0.156-2.35-0.626-2.661c-0.47-0.313-1.409,0.156-2.036,1.252
	c-0.313-1.096-0.782-1.722-1.252-1.722c-0.783,0-1.565,1.879-1.565,4.228c-0.156-0.783-0.313-1.253-0.782-1.409
	c-0.313-0.157-0.782,0.156-1.254,0.782c-0.313-1.409-0.938-2.349-1.564-2.349c-0.313,0-0.47,0.156-0.782,0.627
	c-0.313,0-0.627,0-0.782,0c0.155-1.409,0.155-2.35-0.313-2.662c-0.156,0-0.156,0-0.313,0c-0.156-2.035-0.627-3.288-1.097-3.288
	c-0.626,0-1.408,2.506-1.722,6.105c-1.098-0.313-1.724-0.47-0.626-0.155l0,0v0.155l-0.157,0.626
	c-0.626,1.566-0.782,3.288-0.47,5.012c0,0.47,0.313,0.938,0.313,1.409l0.313,0.626v0.155c-0.313,0-0.471,0-0.783,0
	c-0.156-0.781-0.783-1.409-1.564-1.409c-0.471,0-0.783,0.313-1.098,0.628c-0.156,0-0.313,0-0.626,0
	c0.313-1.88,0.626-3.603-0.156-3.915c-0.47-0.156-1.564,0.47-2.349,1.879c0.313-1.878,0.156-3.287-0.47-3.444
	c-0.626-0.156-1.409,0.627-2.035,2.192c-0.157-0.783-0.313-1.253-0.783-1.253c-0.156,0-0.313,0-0.47,0.156
	c-0.156-1.723-0.783-2.976-1.409-2.976c-0.313,0-0.782,0.47-1.096,1.097c-0.313-0.938-0.783-1.565-1.253-1.565
	c-0.313,0-0.626,0.313-0.782,0.938l0,0c-0.157-0.47-0.313-0.782-0.626-0.938h-0.157c-0.156-1.097-0.313-1.878-0.782-2.035
	c-0.471,0-1.097,0.783-1.565,2.191l0,0c-0.156,0.471-0.313,1.097-0.47,1.723h-0.313c0-0.313-0.157-0.626-0.157-0.939
	c-0.781-3.914-1.096-7.202-2.035-7.357c-0.782-0.156-1.879,3.443-0.938,7.827c0,0.157,0.156,0.313,0.156,0.471
	c-0.156-0.156-0.313-0.313-0.626-0.313c-0.626,0-1.097,1.409-1.097,3.287c-0.313-0.782-0.782-1.252-1.253-1.252
	c-0.47,0-0.781,0.313-1.096,0.939c-0.313-0.313-0.47-0.471-0.783-0.471h-0.156l0,0c-0.47-3.758,0.156-6.889-0.782-7.202
	c-0.313-0.155-1.097,0.626-1.723,2.191c-0.313-4.384-1.253-7.828-2.034-7.828c-0.939,0-1.409,3.914-1.098,8.611
	c0,0.156,0,0.47,0,0.626c-0.782,0-1.252,0.157-0.156,0l0,0v0.157l0,0l0,0c-1.252-0.157-2.505-0.157-1.096,0l0,0l0,0v0.155l0,0l0,0
	v0.313v0.626c0,0.783-0.157,1.564-0.157,2.349h-0.155l-0.156,0.313c-0.157,0.313-0.313,0.469-0.313,0.782h-0.155
	c0-0.156-0.157-0.313-0.157-0.626v-0.313l0,0l0,0c0,0,0,0-0.156,0c0,0,0.783,0-0.313-0.156c-0.156-0.782-0.626-1.564-1.252-1.723
	c-0.313-0.156-0.783,0.157-1.097,0.47c-0.156-0.626-0.313-1.096-0.782-1.252c-0.626-0.157-1.565,0.782-2.192,2.35l0,0
	c0-0.157,0-0.313,0-0.471c0-2.506-0.626-4.696-1.564-4.696c-0.471,0-0.939,0.781-1.252,1.879c-0.313-0.627-0.627-1.098-1.098-1.098
	c-0.313,0-0.782,0.313-0.938,0.939c-0.313-0.313-0.471-0.626-0.939-0.626s-0.782,0.313-1.096,0.938c0,0,0,0-0.156,0
	c-0.157-0.155-0.157-0.313-0.313-0.313v-0.156c0.155,0,0.47,0.156,0,0v-0.156l0,0l0,0c-0.156,0-0.313,0-0.471-0.156
	c-0.155-0.156-0.313-0.156-0.47-0.156h-0.156l0,0c0-1.565-0.155-2.661-0.782-2.818c-0.156,0-0.156,0-0.313,0
	c-0.157-0.47-0.313-0.782-0.627-0.782c-0.626-0.156-1.252,1.252-1.722,3.287c-0.939-0.155-1.566-0.155-1.409-0.155l-0.313,0.626
	v0.156c-0.155,0-0.155,0-0.313,0c0.313-2.662,0.157-4.384-0.469-4.541c-0.783-0.313-2.507,2.976-2.977,7.046
	c0,0.313,0,0.471-0.155,0.783c-0.627,0.156-1.409,0.313-2.035,0.626c-1.254-0.156-1.254,0.313-1.254,0.782
	c-0.47,0.313-0.782,0.627-1.252,0.939l0,0c-0.471,0.156-0.782,0.313-1.253,0.47l0,0l0,0l0.156-1.096v-0.313
	c-0.782-0.313,1.879,0.313-1.879-0.626l-0.156,0.156l0,0c-0.155,0-0.155,0,0,0l-0.313,0.47c-0.313,0.47-0.47,0.939-0.782,1.409
	c0,0,0-0.156-0.157-0.156l0,0v-0.313V403l0,0c-0.938-0.313,2.192,0.783-2.19-0.783v0.157l-0.156,0.156c-0.313-0.156-0.157,0,0,0
	l-1.098,1.723c-0.47-0.627-0.625-0.783,0,0l-0.155,0.313c-0.313,0-1.097-0.155-2.661-0.47l0,0l0,0c-0.471-0.156-0.157,0,0,0l0,0l0,0
	l-0.157,0.157l-0.156,0.313l-0.313,0.628c-1.097-0.313-2.818-0.783-2.505-0.628v0.157c-0.626-0.157-0.939-0.313,0,0l0,0l0,0
	l-0.157,0.313l-0.469,0.783c0,0,0,0.155-0.157,0.155c-0.47,0-0.782,0-1.096,0c-1.097,0-2.035,0-0.783,0l0,0l0,0v0.157l-0.156,0.782
	c-0.156,0.313-0.313,0.783-0.47,1.097c-0.47-0.157-0.939-0.157-1.252-0.313c0-1.253-0.313-2.192-1.097-2.35
	c-0.313,0-0.627,0.156-0.939,0.471c-0.47-0.156-1.252,0.313-1.879,1.096c-0.471-0.782-0.939-1.252-1.409-1.096
	c-0.469,0-0.782,0.47-0.938,1.096c0-0.626-0.156-1.096-0.47-1.096c-0.471-0.156-1.41,0.47-2.036,1.879
	c0-0.156-0.156-0.156-0.313-0.156c-0.471-0.157-1.566,1.252-2.35,3.287c-0.313,0-0.47,0-0.938,0l0,0v0.157l0,0
	c-0.156,0-0.313,0-0.47,0c-0.157-2.818-0.783-5.012-1.409-5.012s-1.253,1.879-1.565,4.541c-0.47-0.156-0.627-0.156,0,0
	c0,0.313,0,0.471,0,0.782l-0.313,1.097l-0.156,0.471c-1.879,0-1.566,0-1.253,0l0,0l0,0v0.155v0.156l-0.156,0.783
	c0,0.47,0,0.782-0.157,1.252c-0.155,0-0.155,0-0.313,0c-0.627,0-1.253-0.156-0.939-0.156l0,0l0,0v0.156c-0.627,0-0.783,0,0,0l0,0
	c-0.313,0-0.627,0.157-0.938,0.157c-0.156,0-0.313-0.157-0.47-0.157c-0.157-0.47-0.471-0.939-0.783-1.096
	c0.156-0.156,0-0.156-0.939-0.156c-0.156-1.096-0.47-1.723-0.938-1.879c-0.782-0.313-1.88,1.879-2.35,4.54v0.157
	c-0.626,0.155-1.252,0.47-1.722,0.781c0-3.131-0.157-5.793-0.939-5.948c-0.783-0.156-2.035,2.505-2.191,5.793
	c0,0.155-0.156,0.313-0.156,0.47c-0.313,0.156-0.626,0.156-0.939,0.313c0-0.156,0-0.313,0.156-0.47l0.157-1.409v-0.47
	c0.782,0,0.47,0,0,0v-0.157l0,0c0.156,0-0.626-0.155-1.409-0.155c-0.156-1.253-0.627-2.035-1.096-2.035h-0.157
	c-0.156-0.626-0.47-1.097-0.782-1.253c-0.783-0.156-1.879,1.565-2.349,3.914c-0.157-0.156-0.313-0.156-0.47-0.156
	c-0.157,0-0.313,0-0.313,0c-0.155,0-0.155,0-0.313,0c0-0.47,0.157-0.939,0-1.565c0.471-1.723,0-3.443-0.782-3.602
	c-0.47-0.156-0.939,0.157-1.253,0.938c0,0,0,0-0.156,0c-0.47-0.155-1.409,1.098-2.192,3.132c-0.155-2.191-0.313-3.602-1.096-3.913
	c-0.47-0.157-0.938,0.47-1.409,1.564c-0.155-5.167,0-9.081-0.938-9.237c-0.626-0.156-1.723,2.818-2.035,6.89
	c-0.156,0.313-0.313,0.783-0.47,1.409c-0.156,0.155-0.313,0.313-0.626,0.626c-0.939,0-1.253,0.156-0.157,0l0,0l0,0c0,0,0,0,0,0.156
	c-0.626,0.939-1.252,2.35-1.722,4.07c-0.627,0.47-1.097,1.565-1.409,3.132c-0.157-1.565-0.626-2.506-1.253-2.506
	c-0.313,0-0.626,0.47-0.939,1.097l0,0c-0.156-0.627-0.47-1.097-0.938-1.097l0,0c-0.156-0.156-0.313-0.313-0.47-0.47
	c-0.782-0.156-2.035,1.723-2.191,4.541c0,0.155-0.157,0.313-0.157,0.313c-0.782-0.157-1.722-0.157-2.505-0.313l0,0
	c0.313,0-0.47,0-1.252,0c-0.313,0-0.783,0-1.097,0l0.156-0.156l0,0c0.156,0-0.313,0-1.097,0c-0.313-0.627-0.626-1.097-1.096-1.097
	c-0.313,0-0.782,0.313-0.939,0.782l0,0c-0.156-0.313-0.47-0.47-0.626-0.626c-0.155-0.47-0.313-0.782-0.626-0.938
	c-0.313-0.157-0.627,0-0.938,0.156c-0.313-1.724-0.783-2.976-1.409-2.976c-0.313,0-0.783,0.471-1.096,1.252
	c-0.313-0.47-0.627-0.781-0.783-0.781c-0.471,0-0.783,0.626-1.097,1.722c-0.313-0.156-0.627-0.156-0.782-0.156v-0.156l0.155-0.938
	l0.157-0.47v-0.157l0,0c-1.096,0,2.035,0-1.409,0v-0.471v-0.313v-0.157c1.097,0.157,0.47,0.157-0.47-0.156
	c0.156-1.879,0-3.131-0.47-3.287c-0.783-0.156-2.35,2.975-3.132,6.89c0,0.313-0.156,0.782-0.156,1.096c-0.156,0-0.313,0-0.471,0.156
	l0,0c-1.096,0,2.506,0-2.504,0v0.157l0,0c-0.783,0-1.565,0.155-2.35,0.313c-0.156-0.313-0.156-0.47-0.156-0.313l0,0l0,0l0,0h-0.156
	h-0.156c-0.313-0.627-0.313-0.939,0,0h-0.156h-0.157c-0.155,0-0.313,0.155-0.47,0.155c-3.601-0.782-0.782-0.155-1.722-0.313l0,0
	v0.157l-0.157,0.469l0,0c-0.313,0-0.626-0.156-0.939-0.156c0.313-0.155,0.939-0.313-1.722-0.313v0.313c-1.096,0-2.035-0.155-3.132,0
	c-0.782,0-1.565,0.156-2.191,0.156h-0.155l0,0v-0.156v-0.155l0,0c-0.939-0.157,1.878,0.313-1.409-0.313l-0.157-0.313v-0.156l0,0l0,0
	c0.313,0-1.252,0-2.349-0.156c-0.471-0.938-1.252-1.565-1.723-1.409c-0.155,0-0.47,0.313-0.47,0.626
	c-0.157-0.938-0.47-1.722-0.783-1.722c-0.47-0.157-1.096,0.782-1.564,2.191c0,0-0.156,0-0.313-0.156
	c-0.156-1.409-0.781-2.35-1.408-2.505c-0.627-0.157-1.253,0.938-1.565,2.505c-0.626-0.157-1.409-0.157-1.722-0.313
	c-0.157-0.313-0.471-0.938-1.098-0.782c-0.156-0.156-0.47-0.313-0.781-0.313c-0.627,0-1.254,0.626-1.409,1.565
	c-0.157,0-0.313,0-0.47,0c-0.471,0-0.939,0-1.409,0l-0.157-0.156v-0.157l0,0l0,0c1.723-0.313-0.469,0-1.878,0.313l-0.157-1.097
	v-0.313c1.879,0-0.47,0-2.035,0l-0.313-0.782l-0.157-0.157l0,0c0.938-0.156,0.626,0,0,0c-0.156-0.938-0.313-1.564-0.938-1.722
	c-0.471-0.157-1.254,0.313-1.723,1.408c-0.313,0-0.627,0-0.939,0c-1.879,0-1.565,0-1.252,0l0,0v0.156
	c-0.156,0.626-0.156,1.097-0.313,1.723c-0.156,0-0.313,0-0.47,0c-0.471,0-0.939,0-1.565,0l0,0c-0.47,0-0.155,0,0,0l0,0v0.157h-0.155
	l0,0l0,0l0,0c0.155,0-0.156,0-0.471,0.155c-1.564-0.155-3.132-0.313-4.697-0.47c-0.155-0.156-0.313-0.156-0.47-0.313
	c-1.252,0-1.879,0.157-2.349,0.157c-0.313,0-0.626,0-0.939,0l-0.156-0.47v-0.157l0,0c1.097,0,0.782,0,0,0c0.313,0-0.47,0-1.408,0
	c-0.939,0-1.879,0-1.879,0c-0.783,0-1.097,0,0,0l0,0l0,0l0,0v0.157v0.156c-0.156-0.156-0.156-0.156-0.313-0.313l0,0l0,0l0,0
	c0.313,0-0.783,0.157-1.879,0.313c-0.313,0-0.783,0-1.097,0c0-0.156,0-0.313-0.156-0.471c0-0.47-0.313-1.096-0.626-1.408
	c0,0,0,0,0-0.156h-0.157c-0.313-0.156-0.626-0.313-0.939-0.313c-0.313,0-0.625,0.157-0.781,0.313c0,0,0,0-0.156,0l0,0
	c-0.313,0-0.313,0.156-0.157,0.313c-0.155,0.313-0.313,0.782-0.313,1.252c-0.313-0.626-0.626-0.938-1.097-1.096v-0.156
	c-0.313,0-0.625,0-0.938,0c-0.156-0.156-0.156-0.156-0.313-0.313c-0.156-0.47-0.47-0.783-0.938-0.783
	c-0.47-0.156-1.097,0.627-1.409,1.723c-0.47-0.155-0.783-0.155-1.097-0.155c0.471-2.35,0.313-4.229-0.47-4.386
	c-0.627-0.155-1.409,0.783-2.035,2.35c0-2.035-0.156-3.444-0.782-3.602c-0.627-0.155-1.566,1.409-2.036,3.914
	c-0.47,0-0.938-0.155-1.252-0.155l0,0c0.156-2.818,0-5.012-0.783-5.323c-0.626-0.157-1.409,1.096-1.879,2.816
	c-2.505-0.313,0.313,0-0.782,0l0,0l0,0v0.157l0,0l0,0l0,0l0,0v0.156v0.626c0,0.157,0,0.313,0,0.47c-0.157,0-0.157,0-0.313-0.156
	v-0.155c0.155-1.566-0.313-2.818-1.097-2.818c-0.47-2.505-1.723-4.228-2.349-4.071c-0.938,0.313-0.626,2.662-0.626,5.638
	c0,0.155,0,0.155,0,0.313c-0.157,0-0.157,0-0.313,0c0-0.157,0-0.157,0-0.313c0.155-2.035-0.156-3.759-1.097-3.914
	c-0.627-0.156-1.253,0.626-1.565,1.723c-0.469-1.409-1.097-2.192-1.565-2.192c-0.47,0.156-0.938,0.783-1.096,1.724
	c-0.313,0.156-0.626,0.47-0.783,0.938c-0.156-0.156-0.313-0.156-0.47-0.156c-0.471,0-0.939,0.47-1.252,1.097
	c-0.313-0.627-0.783-1.097-1.097-1.097c-0.471,0-0.782,0.313-1.097,0.938c-0.313-0.313-0.47-0.47-0.782-0.47
	c-0.782,0-1.409,0.938-1.565,2.191c-0.156,0-0.156,0-0.313,0l0,0c0.156,0,0,0-0.157,0c-0.625-0.626-1.252-0.782-1.722-0.626
	c-0.155,0.156-0.313,0.313-0.47,0.626c-0.47,0-0.626,0-0.783,0c-0.156,0-0.156,0-0.156,0c0-1.097-0.313-2.034-0.938-2.191
	c-0.783-0.313-1.724,1.097-2.192,2.975c-0.156,0-0.626,0-1.409,0c-1.096-0.313-2.034-0.47-2.975-0.782
	c-0.313-0.47-0.47-0.938-0.626-1.253c-0.156,0.157-0.47,0.313-0.626,0.313c-0.157-0.156-0.313-0.156-0.627-0.313
	c0,0.157,0,0.471,0.157,0.627c-0.157,0-0.157,0.156-0.313,0.156c-0.155,0-0.313,0-0.47-0.156l0,0l0,0
	c-0.47-0.627-0.626-1.565-0.47-2.506l0.155-0.938l0,0v-0.156c0.313,0,0.627-0.156-1.096-0.47l0,0
	c0.157-1.565-0.156-2.818-0.939-2.976c-0.155,0-0.47,0-0.625,0.156l-0.156-0.626v-0.313l0,0c1.879,0.156-1.098-0.156-2.192-0.156
	c-0.313-0.156-0.47-0.313-0.783-0.47c-0.155-0.471-0.313-1.097-0.47-1.565v-0.157c0.939,0,0.783,0,0,0v-0.156l0,0l0,0
	c0.313,0-0.626,0-1.564,0.156c0-2.19-0.313-3.757-0.939-3.914c-0.47-0.155-1.096,0.783-1.564,2.35v-0.626v-0.471v-0.155l0,0l0,0l0,0
	c0.313,0,0.782,0-1.409,0c-0.471,0-0.783,0-1.097,0c-0.156-1.098-0.47-1.724-0.938-1.88c-0.626-0.156-1.409,1.253-1.724,3.132
	c-0.626,0-0.781,0,0,0c-0.155,0.47-0.155,1.096-0.155,1.564c0,0.157,0,0.47,0,0.627c0,0.156,0,0.156,0,0.313s0,0.47,0,0.627
	c-0.939,0-1.724,0-2.192,0v-0.157c0.157,0,0.313,0.157,0.313,0c0.156-0.156-0.155-0.626-0.625-1.565v-0.155
	c0-0.157,0-0.313,0.155-0.313c0,0-0.155,0-0.155-0.156s0.155-0.313,0.155-0.47v-0.47v-0.157c-0.155,0-0.313,0-0.47,0.157v-0.157
	c0-0.156-0.156-0.313-0.156-0.469c0.313,0,0.156,0,0,0v-0.157c0-0.156,0-0.313,0-0.313v-0.626c-0.156,0-0.313,0-0.47-0.156
	s-0.156-0.156-0.313-0.313c-0.155,0-0.313,0-0.313,0.157c-0.156-1.409-0.469-2.662-0.782-3.602c0.156,0,0.156,0,0-0.156
	c-0.313-1.097-0.782-1.723-1.096-1.723s-0.627,0.782-0.783,1.879c-0.156-0.471-0.313-0.626-0.626-0.783
	c-0.313,0-0.627,0.313-1.097,0.938c-0.47-0.155-0.782-0.155-1.097-0.313c0-0.783,0.157-1.409,0.157-2.192l0.156-1.879l0,0l0,0
	v-0.156c-0.47,0-0.783-0.155-1.096-0.155c-0.472-0.157-0.783-0.157-0.939-0.157c-0.313,0-0.313,0-0.157,0
	c-0.626,0.157,0.157,0.938-0.313,1.097l0.156-1.565V388.6c0.781,0.156,0.47,0,0,0l0,0v-0.313c0.155,0,0,0-0.156,0
	c-0.157-2.191-0.627-3.757-1.253-3.757c-0.783,0-1.565,2.19-1.724,5.166c-0.313,0-0.625,0-0.938,0
	c-0.313-1.097-0.626-1.879-0.939-1.723c-0.782,0-1.407,2.035-1.722,5.011c-0.156,0-0.313,0-0.47-0.156c0-0.313,0-0.783,0.155-1.253
	l0.627-2.505l0.156-0.626l0.156-0.313v-0.156l0,0l0,0c1.723,0.313-0.47-0.156-1.879-0.313l0,0l0.157-0.626
	c0.938,0.156,0.782,0.156,0,0v-0.157c0.155,0-0.157,0-0.47-0.156c-0.157-3.131-0.628-5.637-1.409-5.637
	c-0.783,0-1.409,2.192-1.565,5.011l0,0c0,0.471,0,0.939,0,1.409c0,0,0,0,0,0.156c-0.939-0.156-1.723-0.47-1.409-0.313l0,0l0,0
	c-0.782-0.155-1.097-0.313,0,0l0,0v0.157l-0.157,0.626c-0.155,0.313-0.313,0.626-0.47,0.939c-0.155-0.156-0.313-0.156-0.47-0.313
	l0,0c0.157-1.564,0.313-2.816,0.313-3.914l0,0c0-1.096-0.155-1.722-0.625-1.879c-0.313-0.156-0.939,0.471-1.566,1.409
	c-0.156,0-0.47,0-0.626,0v-0.156c-0.156,0-0.47-0.155-0.626-0.155c-0.156-1.566-0.47-2.507-0.939-2.662
	c-0.155,0-0.47,0.155-0.783,0.626c0-2.661,0.156-4.696-0.625-5.011c-0.471-0.155-1.254,0.783-1.879,2.192
	c-0.471-0.938-0.939-1.566-1.409-1.409h-0.156c-0.156-0.627-0.313-1.097-0.783-1.253c-0.626-0.156-1.252,0.47-1.879,1.724
	c0-0.313,0.157-0.783,0.157-1.254c0-2.661-0.627-4.854-1.566-4.854c-0.156,0-0.313,0.156-0.47,0.313
	c0-1.723-0.313-2.976-0.939-3.132c-0.469,0-0.782,0.471-1.252,1.409c0-1.564-0.155-2.505-0.627-2.661
	c-0.782-0.157-2.19,3.131-3.131,7.201c0,0.157,0,0.157,0,0.313c0-0.471,0-0.783,0.156-1.254c0.783-4.227,0.783-7.827-0.156-7.983
	c-0.156,0-0.313,0-0.47,0.156c0.156-4.07-0.313-7.046-0.939-7.046c-0.938,0-1.564,5.011-2.661,11.116
	c-0.156,0.782-0.313,1.565-0.313,2.191c-0.156-0.782-0.313-1.409-0.626-1.722c0-1.098-0.157-1.88-0.47-1.88
	c-0.783-0.156-2.35,2.818-3.444,6.732c-0.157,0.313-0.157,0.782-0.313,1.096c-0.157-0.626-0.471-0.938-0.783-0.938
	c0,0-0.156,0-0.313,0c-0.157-1.409-0.627-2.35-1.097-2.505c-0.313,0-0.47,0.155-0.782,0.47c0-0.939-0.157-1.565-0.627-1.723
	c-0.782-0.156-2.19,2.349-2.975,5.793l-0.156-0.156c-0.47-0.156-1.096,0.313-1.565,1.252c-0.156,0-0.47,0-0.627-0.156l-0.156,0.313
	l0,0l-0.155,0.47c0.155-2.662-0.47-4.854-1.253-4.854c-0.939,0-1.723,2.19-1.879,4.854v0.156c-0.626-0.156-1.097-0.156-1.409-0.313
	c0-0.155,0-0.313,0-0.47v-0.156l0,0c1.565,0.313,0.157,0-1.252-0.313c-0.157-0.157-0.313-0.313-0.627-0.313
	c-0.156,0-0.156,0-0.313,0.156h-0.156c0-0.313,0-0.47-0.156-0.782v-0.157v-0.155l0,0c1.253,0,0.626,0-0.313,0h-3.757
	c-0.156-0.156-0.156-0.156-0.313-0.313l-0.157-0.156c-0.626-0.313,0.313-0.938-0.782-1.253c0-1.564,0-2.816-0.626-2.975
	c-0.471-0.156-1.253,0.938-1.879,2.662c-2.036-0.939-0.783,0.47-1.566,0.313c-0.155,0.313-0.47,0.627-0.782,0.939
	c0-0.313,0-0.626,0.156-0.626v-0.626c-0.783-0.471,1.879,0.47-1.722-1.098l-0.313,0.313c0,0,0,0-0.156,0.156v-0.156v-0.783v-0.47
	v-0.156V373.1l0,0c0.938,0,0.471,0-0.156,0c0.156-2.034,0.313-3.602-0.313-3.914c-0.472-0.313-1.88,1.409-2.507,3.914
	c-1.096-0.47-2.661-0.938-1.252-0.47l0,0l0,0l0,0l0,0v0.156c0,0.157-0.157,0.157-0.157,0.313c-0.313-0.313-0.781-0.626-1.096-0.938
	c0-0.47,0.156-0.939,0.156-1.409l0.157-1.096l0.155-0.471v-0.313l0,0l0,0l0,0l0,0c0.313,0,0.471,0,0,0l0,0v-0.156
	c-0.47,0-0.782,0-1.252,0c-2.191-4.071-0.627-1.097-1.253-2.036h-0.156c-0.156,0-0.313,0.157-0.626,0.157
	c-0.156-2.975-0.471-4.854-1.097-4.854s-1.096,1.722-1.564,4.228c-0.47-0.157-1.097-0.313-1.879-0.47l0,0c-0.471-0.157-0.313,0,0,0
	l0,0l0,0l0,0l0,0l-0.313,0.938l-0.313,1.566c-1.408,0-2.661,0.156-1.097,0v0.156l-0.155,0.626l-0.156,1.253l-0.313,1.409l0,0l0,0
	l0,0l0,0c-6.105-1.097-1.723-0.313-3.132-0.471l0,0l0,0l0,0l0,0v0.156l0,0c-0.156,0-0.156,0-0.313,0c0.155,0,0,0-0.313,0
	c-0.156-0.313-0.313-0.47-0.626-0.47c-0.313,0-0.627,0.157-0.783,0.47c-0.781,0-1.564,0-1.252,0l0,0c-0.783,0-1.097,0,0,0l0,0v0.157
	v0.156v0.47l0,0c-0.313,0-0.627-0.156-0.938-0.156c-0.313-0.47-0.627-0.783-1.098-0.783c-0.313,0-0.626,0.156-0.781,0.471
	c-0.156,0-0.156,0,0,0c-0.156,0.155-0.313,0.47-0.471,0.938c0,0,0,0-0.156,0s-0.626-0.156-1.097-0.156h-0.156
	c-0.155,0-0.313,0-0.47,0c-0.313,0-0.47,0-0.626-0.156c-0.783-0.156-1.408-0.156-0.313,0l0,0v0.313l-0.156,0.939v0.313
	c-0.157,0.313-0.313,0.47-0.47,0.783c0-0.156,0-0.156,0-0.313c0.47-1.722,0-3.443-0.783-3.757c-0.783-0.313-1.723,0.939-2.19,2.817
	c-0.472,0.157-0.783,0.157-1.098,0.157h-0.156l0,0h-0.155c-0.313-0.157-0.939-0.313-1.724-0.471c0.156-2.191,0.471-3.758-0.313-4.07
	c-0.626-0.313-2.661,1.723-2.818,4.854c0-0.47,0-1.096,0-1.722c-0.626-0.313-0.938-0.313-1.096-0.313
	c-0.156-0.313-0.471-0.626-0.782-0.938c0-0.471,0-0.939,0-1.409c-0.47,0-0.783,0-1.097,0v-0.47v-0.313l0,0l0,0
	c-1.096,0-1.723,0-2.035,0c-0.156,0-0.47,0-0.626,0v-0.157c0.313,0.627-0.313-2.816-2.035-1.252c-0.157,0-0.313-0.156-0.47-0.156
	c0.156-1.097,0.313-2.191,0.313-3.444v-0.939v-0.313l0,0c1.566,0,0.157,0-1.252,0c-0.313,0-0.783,0-1.097,0
	c0-1.253,0.47-2.35,0.627-3.603v-0.155v-0.156l0,0l0,0c-1.097-0.313,1.722,0.313-0.938-0.313c0.155-2.817-0.783-4.854-1.409-4.696
	c-0.783,0.313-1.097,2.817-1.88,6.42c-0.313,1.408-0.313,2.661-0.155,3.757c-0.47,1.723-1.409,2.818-2.349,3.758
	c0-0.47,0-0.313-0.157,0c-0.156,0.156-0.47,0.313-0.626,0.47c-3.444,0,1.723,0-0.626,0l0,0l0,0l-0.156,0.156l-0.157,0.157
	l-0.156,0.313c-0.938,0-1.723,0.157-1.564,0.157l0,0l0.156,0.313l0.155,0.156c-0.313,0.156-0.47,0.156-0.781,0.313
	c-0.471-0.156-1.098-0.156-2.036-0.47c0-0.471,0-0.939,0-1.409s0-0.782-0.156-1.096c0.47,0,0.313,0,0,0
	c-0.156-1.723-0.783-2.976-1.564-2.976c-0.627,0-1.097,1.096-1.409,2.505c-0.156,0-0.313,0-0.156,0l0,0v0.157l0,0
	c-0.939-1.097-1.409-0.783-1.724-0.313c-0.313-0.783-0.625-1.565-0.313-0.626c-0.156,0-0.313,0-0.47,0.155c0-0.155,0-0.155,0-0.155
	v-0.157c0.938-3.131-0.156-5.949-0.939-5.793c-0.626,0.157-1.096,1.253-1.408,2.817c-0.156,0-0.156,0-0.313,0h-0.157
	c0-1.722,0.157-2.817,0-2.817c-0.156,0-0.469,0.938-0.782,2.662c-0.782-1.724-2.034-2.662-2.505-2.35
	c-0.783,0.471-0.313,2.035-0.156,4.229c-0.471-0.157-0.938-0.157-1.252-0.157c0.155-0.47,0.155-0.939,0.155-1.565
	c0-2.034-0.626-3.601-1.564-3.601c-0.939,0-1.565,1.565-1.565,3.601c0,0.939,0.156,1.724,0.313,2.35
	c-0.313-0.156-0.625-0.156-0.938-0.313v-0.782v-0.47v-0.157v-0.155c-1.096-0.156,1.879,0.155-1.096-0.156c0,0,0,0,0-0.157
	l-0.156-1.722v-0.156v-0.157l0,0c-1.409,0.627,1.722,1.098-1.565,0.627V540H1273.134z"/>
</svg>
