<?xml version="1.0" encoding="utf-8"?>
<!-- Generator: Adobe Illustrator 16.0.0, SVG Export Plug-In . SVG Version: 6.00 Build 0)  -->
<!DOCTYPE svg PUBLIC "-//W3C//DTD SVG 1.1//EN" "http://www.w3.org/Graphics/SVG/1.1/DTD/svg11.dtd">
<svg version="1.1" id="圖層_1" xmlns="http://www.w3.org/2000/svg" xmlns:xlink="http://www.w3.org/1999/xlink" x="0px" y="0px"
	 width="32px" height="32px" viewBox="0 0 32 32" style="enable-background:new 0 0 32 32;" xml:space="preserve">
<style type="text/css">
<![CDATA[
	.st0{fill:#155495;}
	.st1{filter:url(#Adobe_OpacityMaskFilter);}
	.st2{clip-path:url(#SVGID_7_);fill:#1A94D1;}
	.st3{enable-background:new    ;}
	.st4{fill:#42A737;stroke:#42A737;stroke-width:0.2;stroke-miterlimit:10;}
	.st5{clip-path:url(#SVGID_5_);fill:#FFFFFF;}
	.st6{clip-path:url(#SVGID_5_);}
	.st7{mask:url(#SVGID_1_);}
	.st8{fill:#FFFFFF;}
	.st9{clip-path:url(#SVGID_7_);fill:#FFFFFF;}
	.st10{fill:#9D2325;}
	.st11{fill:#D89C18;}
	.st12{fill:#42A737;}
	.st13{filter:url(#Adobe_OpacityMaskFilter_1_);}
]]>
</style>
<g>
	<defs>
		<rect id="SVGID_6_" width="32" height="32"/>
	</defs>
	<clipPath id="SVGID_1_">
		<use xlink:href="#SVGID_6_"  style="overflow:visible;"/>
	</clipPath>
	<path style="clip-path:url(#SVGID_1_);fill:#FFFFFF;" d="M31.998,18.321c0,0-0.002-1.696-0.002-2.432l-0.009-0.719l0.003-1.749
		c0.006-1.886,0.01-3.835-0.012-5.76c-0.027-2.336-1.023-4.331-2.959-5.929c-1.905-1.572-4.023-1.785-5.656-1.794
		c-1.627-0.008-3.253-0.011-4.878-0.011c-1.12,0-2.242,0.001-3.375,0.003c-1.019,0.001-2.038,0.002-3.082,0.002
		c-0.371,0-0.739-0.001-1.11-0.003h-0.083c-0.346-0.001-0.693-0.003-1.04-0.003c-0.683,0-1.241,0.005-1.758,0.017
		C2.7,0.064-0.086,4.336,0.002,8.294c0.112,5.027,0.113,10.233,0.003,15.47c-0.047,2.261,0.728,4.271,2.239,5.814
		c1.53,1.562,3.75,2.495,5.938,2.495l0.084-0.001c1.656-0.018,3.457-0.026,5.666-0.026c1.273,0,2.546,0.002,3.819,0.005
		c1.276,0.002,2.552,0.006,3.826,0.006c0.696,0,1.392-0.001,2.085-0.004c4.879-0.013,8.304-3.432,8.331-8.314
		C32.003,21.901,32,19.999,31.998,18.321"/>
	<path style="clip-path:url(#SVGID_1_);fill:#1A94D1;" d="M29.996,15.902c0,2.529,0.011,5.057-0.002,7.585
		c-0.022,3.899-2.675,6.554-6.577,6.566c-4.975,0.014-9.948-0.036-14.921,0.017c-3.117,0.034-6.577-2.335-6.491-6.521
		C2.11,18.537,2.113,13.518,2.002,8.505c-0.074-3.251,2.241-6.468,6.322-6.56c1.285-0.029,2.57-0.011,3.855-0.011
		c3.647,0,7.295-0.013,10.943,0.007c1.641,0.009,3.201,0.294,4.534,1.396c1.463,1.207,2.3,2.708,2.323,4.606
		c0.03,2.653,0.007,5.306,0.007,7.958H29.996z M25.275,8.816C24.531,8.775,23.95,9.31,23.12,9.053
		c-1.322-1.05-2.891-1.458-4.624-0.627c-1.83,0.876-2.194,2.544-2.243,4.322c-0.541,0.271-1.035,0.162-1.515,0.069
		c-2.642-0.509-4.797-1.928-6.794-3.806c-1.025,1.974-0.223,3.495,0.886,4.91c-0.441,0.402-0.873-0.15-1.24,0.147
		c0.063,1.563,0.593,2.333,2.23,3.257c0.145,0.081,0.287,0.166,0.231,0.367c-0.239,0.342-0.76,0.017-1.003,0.47
		c0.6,1.427,1.896,2.007,3.444,2.449c-0.85,0.788-1.698,1.09-2.546,1.413c-0.884,0.338-1.82,0.321-2.948,0.371
		c3.303,1.877,7.053,2.186,10.248,0.758c4.834-2.161,6.971-6.116,7.09-11.096c0.454-0.729,1.29-0.912,1.398-1.697
		c-0.435-0.193-0.863,0.269-1.233-0.142C24.65,9.714,25.406,9.564,25.275,8.816"/>
</g>
</svg>
