<?xml version="1.0" encoding="utf-8"?>
<!-- Generator: Adobe Illustrator 16.0.0, SVG Export Plug-In . SVG Version: 6.00 Build 0)  -->
<!DOCTYPE svg PUBLIC "-//W3C//DTD SVG 1.1//EN" "http://www.w3.org/Graphics/SVG/1.1/DTD/svg11.dtd">
<svg version="1.1" id="圖層_1" xmlns="http://www.w3.org/2000/svg" xmlns:xlink="http://www.w3.org/1999/xlink" x="0px" y="0px"
	 width="32px" height="32px" viewBox="0 0 32 32" style="enable-background:new 0 0 32 32;" xml:space="preserve">
<style type="text/css">
<![CDATA[
	.st0{fill:#155495;}
	.st1{filter:url(#Adobe_OpacityMaskFilter);}
	.st2{clip-path:url(#SVGID_7_);fill:#1A94D1;}
	.st3{enable-background:new    ;}
	.st4{fill:#42A737;stroke:#42A737;stroke-width:0.2;stroke-miterlimit:10;}
	.st5{clip-path:url(#SVGID_5_);fill:#FFFFFF;}
	.st6{clip-path:url(#SVGID_5_);}
	.st7{mask:url(#SVGID_1_);}
	.st8{fill:#FFFFFF;}
	.st9{clip-path:url(#SVGID_7_);fill:#FFFFFF;}
	.st10{fill:#9D2325;}
	.st11{fill:#D89C18;}
	.st12{fill:#42A737;}
	.st13{filter:url(#Adobe_OpacityMaskFilter_1_);}
]]>
</style>
<path class="st8" d="M31.998,18.32c0,0-0.002-1.695-0.002-2.432l-0.009-0.719l0.003-1.748c0.006-1.886,0.01-3.836-0.012-5.76
	c-0.027-2.336-1.023-4.331-2.959-5.929c-1.905-1.572-4.023-1.785-5.656-1.795c-1.627-0.008-3.253-0.011-4.878-0.011
	c-1.121,0-2.241,0.001-3.375,0.003c-1.019,0.001-2.037,0.002-3.081,0.002c-0.371,0-0.739-0.001-1.11-0.003h-0.084
	c-0.346-0.001-0.692-0.003-1.039-0.003c-0.683,0-1.239,0.005-1.758,0.017C2.7,0.063-0.087,4.336,0.002,8.294
	c0.112,5.027,0.112,10.232,0.003,15.471c-0.047,2.26,0.729,4.271,2.239,5.814c1.53,1.562,3.75,2.494,5.938,2.494l0.084-0.001
	c1.656-0.018,3.456-0.025,5.667-0.025c1.272,0,2.546,0.002,3.818,0.005c1.276,0.002,2.552,0.005,3.826,0.005
	c0.696,0,1.392-0.001,2.085-0.003c4.879-0.014,8.304-3.432,8.331-8.314C32.003,21.9,32,19.999,31.998,18.32"/>
<path class="st0" d="M24.889,15.265h-4.081c0,0-0.135-2.279,0.233-3.256c0.332-0.876,1.201-1.351,2.105-1.446
	c0.558-0.059,1.729-0.053,1.729-0.053l0.032-3.308c0,0-4.313-0.327-6.138,1.013c-1.45,1.065-1.56,2.645-1.791,4.329
	c-0.111,0.797-0.013,2.721-0.013,2.721h-3.067v3.67h3.067v10.924c0,0-1.279-0.001-1.719,0c-2.207,0.008-4.412,0.026-6.616-0.003
	c-3.938-0.052-6.613-2.746-6.622-6.664C1.997,18.332,1.996,13.47,2.01,8.61c0.01-3.033,1.592-5.222,4.428-6.23
	C6.99,2.184,7.549,2.126,8.124,2.127c5.188,0.005,10.375-0.009,15.562,0.02c3.425,0.021,6.192,2.645,6.252,6.104
	c0.088,5.144,0.078,10.292,0,15.437c-0.053,3.504-2.829,6.129-6.338,6.159c-0.886,0.008-2.645,0.012-2.645,0.012l-0.069-10.924
	h4.003V15.265z"/>
</svg>
