<?xml version="1.0" encoding="utf-8"?>
<!-- Generator: Adobe Illustrator 16.0.0, SVG Export Plug-In . SVG Version: 6.00 Build 0)  -->
<!DOCTYPE svg PUBLIC "-//W3C//DTD SVG 1.1//EN" "http://www.w3.org/Graphics/SVG/1.1/DTD/svg11.dtd">
<svg version="1.1" id="圖層_1" xmlns="http://www.w3.org/2000/svg" xmlns:xlink="http://www.w3.org/1999/xlink" x="0px" y="0px"
	 width="32px" height="32px" viewBox="0 0 32 32" style="enable-background:new 0 0 32 32;" xml:space="preserve">
<style type="text/css">
<![CDATA[
	.st0{fill:#155495;}
	.st1{filter:url(#Adobe_OpacityMaskFilter);}
	.st2{clip-path:url(#SVGID_7_);fill:#1A94D1;}
	.st3{enable-background:new    ;}
	.st4{fill:#42A737;stroke:#42A737;stroke-width:0.2;stroke-miterlimit:10;}
	.st5{clip-path:url(#SVGID_5_);fill:#FFFFFF;}
	.st6{clip-path:url(#SVGID_5_);}
	.st7{mask:url(#SVGID_1_);}
	.st8{fill:#FFFFFF;}
	.st9{clip-path:url(#SVGID_7_);fill:#FFFFFF;}
	.st10{fill:#9D2325;}
	.st11{fill:#D89C18;}
	.st12{fill:#42A737;}
	.st13{filter:url(#Adobe_OpacityMaskFilter_1_);}
]]>
</style>
<g>
	<defs>
		<rect id="SVGID_4_" width="32" height="32"/>
	</defs>
	<clipPath id="SVGID_1_">
		<use xlink:href="#SVGID_4_"  style="overflow:visible;"/>
	</clipPath>
	<path style="clip-path:url(#SVGID_1_);fill:#FFFFFF;" d="M31.998,18.321c0,0-0.002-1.696-0.002-2.432l-0.009-0.719l0.003-1.749
		c0.006-1.887,0.01-3.835-0.012-5.76c-0.027-2.336-1.023-4.331-2.959-5.929c-1.905-1.573-4.023-1.784-5.656-1.794
		c-1.627-0.008-3.253-0.013-4.878-0.013c-1.12,0-2.242,0.002-3.375,0.005c-1.019,0-2.038,0.002-3.082,0.002
		c-0.371,0-0.739-0.002-1.11-0.005h-0.083c-0.346,0-0.693-0.002-1.04-0.002c-0.683,0-1.241,0.005-1.758,0.017
		C2.7,0.064-0.086,4.335,0.002,8.294c0.112,5.028,0.113,10.233,0.003,15.471c-0.047,2.261,0.728,4.271,2.239,5.814
		c1.53,1.562,3.75,2.495,5.938,2.495l0.084-0.001c1.656-0.018,3.457-0.026,5.666-0.026c1.273,0,2.546,0.002,3.819,0.005
		c1.276,0.002,2.552,0.006,3.826,0.006c0.696,0,1.392-0.001,2.085-0.004c4.879-0.013,8.304-3.432,8.331-8.314
		C32.003,21.901,32,19.999,31.998,18.321"/>
	<g style="clip-path:url(#SVGID_1_);">
		<path class="st4" d="M10.161,13.323v3.147h1.717c0.136,0,0.241,0.033,0.313,0.102c0.073,0.068,0.11,0.154,0.11,0.259
			c0,0.107-0.036,0.193-0.108,0.259c-0.071,0.065-0.176,0.099-0.314,0.099H9.834c-0.184,0-0.317-0.042-0.398-0.128
			c-0.081-0.084-0.121-0.22-0.121-0.41v-3.327c0-0.178,0.039-0.309,0.116-0.397c0.078-0.087,0.178-0.132,0.304-0.132
			c0.126,0,0.229,0.043,0.309,0.131S10.161,13.146,10.161,13.323"/>
		<path class="st4" d="M13.008,16.729v-3.404c0-0.178,0.038-0.31,0.116-0.398c0.079-0.087,0.178-0.131,0.303-0.131
			c0.126,0,0.23,0.044,0.309,0.13c0.079,0.088,0.118,0.221,0.118,0.399v3.404c0,0.179-0.04,0.313-0.118,0.4
			c-0.079,0.089-0.182,0.134-0.309,0.134c-0.122,0-0.223-0.045-0.301-0.135C13.048,17.038,13.008,16.905,13.008,16.729"/>
		<path class="st4" d="M16.019,13.318l1.627,2.548v-2.57c0-0.169,0.035-0.292,0.104-0.378c0.068-0.082,0.162-0.124,0.28-0.124
			c0.121,0,0.218,0.042,0.288,0.124c0.071,0.086,0.104,0.209,0.104,0.378v3.398c0,0.378-0.151,0.569-0.456,0.569
			c-0.074,0-0.145-0.014-0.203-0.034c-0.063-0.025-0.12-0.061-0.173-0.109c-0.052-0.049-0.101-0.106-0.146-0.172
			c-0.046-0.066-0.091-0.134-0.138-0.202l-1.587-2.517v2.532c0,0.164-0.038,0.29-0.111,0.374c-0.073,0.084-0.169,0.128-0.284,0.128
			c-0.12,0-0.217-0.044-0.289-0.129c-0.073-0.085-0.107-0.211-0.107-0.373v-3.334c0-0.141,0.014-0.253,0.045-0.334
			c0.035-0.088,0.095-0.161,0.179-0.217c0.083-0.057,0.173-0.083,0.27-0.083c0.077,0,0.141,0.014,0.195,0.038
			c0.056,0.026,0.103,0.061,0.144,0.103c0.041,0.044,0.082,0.1,0.125,0.169C15.929,13.171,15.973,13.243,16.019,13.318"/>
		<path class="st4" d="M22.219,13.543h-1.907v1.06h1.756c0.129,0,0.226,0.03,0.289,0.091c0.064,0.06,0.096,0.139,0.096,0.237
			s-0.031,0.179-0.095,0.24c-0.063,0.062-0.159,0.092-0.29,0.092h-1.756v1.229h1.973c0.133,0,0.233,0.031,0.3,0.097
			c0.068,0.063,0.101,0.148,0.101,0.254c0,0.102-0.032,0.185-0.101,0.25c-0.066,0.063-0.167,0.096-0.3,0.096h-2.3
			c-0.184,0-0.316-0.042-0.396-0.128c-0.08-0.084-0.121-0.22-0.121-0.409v-3.248c0-0.124,0.018-0.229,0.053-0.308
			c0.038-0.08,0.093-0.138,0.171-0.172c0.075-0.039,0.175-0.057,0.294-0.057h2.234c0.135,0,0.234,0.029,0.301,0.093
			c0.064,0.063,0.098,0.144,0.098,0.244c0,0.1-0.033,0.185-0.098,0.245C22.453,13.512,22.354,13.543,22.219,13.543"/>
		<path class="st12" d="M16.064,29.855c-2.511,0-5.021,0.009-7.532-0.002c-3.552-0.016-6.032-2.257-6.445-5.803
			c-0.042-0.362-0.083-0.726-0.083-1.089C1.998,18.386,2,13.812,2.001,9.234c0-0.121,0.001-0.244,0.008-0.364
			c0.233-4.325,2.776-6.742,7.121-6.746c4.737-0.007,9.475-0.014,14.212,0.001c3.175,0.01,5.634,1.839,6.452,4.731
			c0.147,0.516,0.183,1.033,0.183,1.562c0,4.981-0.06,9.963,0.022,14.942c0.058,3.517-2.903,6.662-6.525,6.519
			c-2.467-0.097-4.941-0.019-7.41-0.019V29.855z M15.39,25.243c0.579,0.054,1.015-0.183,1.424-0.427
			c2.65-1.576,5.211-3.291,7.3-5.582c2.771-3.035,2.255-6.97-0.476-9.563c-4.035-3.834-11.162-3.847-15.23-0.107
			c-2.431,2.237-3.117,5.312-1.584,8.268c0.829,1.601,2.166,2.685,3.732,3.528c1.159,0.625,2.405,0.929,3.682,1.174
			c0.905,0.175,1.122,0.505,1.146,1.427C15.395,24.358,15.211,24.754,15.39,25.243"/>
	</g>
</g>
</svg>
